<svg xmlns="http://www.w3.org/2000/svg" xmlns:xlink="http://www.w3.org/1999/xlink" width="220" height="220" viewBox="0 0 220 220">
  <defs>
    <clipPath id="clip-path">
      <circle id="Elipse_5198" data-name="Elipse 5198" cx="110" cy="110" r="110" fill="none"/>
    </clipPath>
  </defs>
  <g id="Grupo_121181" data-name="Grupo 121181" transform="translate(-7584.783 -6502.629)">
    <g id="Grupo_121180" data-name="Grupo 121180" transform="translate(7584.783 6502.629)" clip-path="url(#clip-path)">
      <g id="Grupo_121147" data-name="Grupo 121147" transform="translate(-25.651 7.551)">
        <path id="Trazado_164302" data-name="Trazado 164302" d="M7830.4,6607.935s10.681,40.467-19.069,75.725-81.607,48.959-123.289,61.042-80.727-1.868-95.371-32.927,14.937-47.792,21.46-88.361,1.315-52.252,31.742-83.14,92.863-30.153,135.077,1.561S7830.4,6607.935,7830.4,6607.935Z" transform="translate(-7588.654 -6517.57)" fill="#af0"/>
        <path id="Trazado_164303" data-name="Trazado 164303" d="M7830.4,6607.935s10.681,40.467-19.069,75.725-81.607,48.959-123.289,61.042-80.727-1.868-95.371-32.927,14.937-47.792,21.46-88.361,1.315-52.252,31.742-83.14,101.444-38.165,143.658-6.452S7830.4,6607.935,7830.4,6607.935Z" transform="translate(-7588.654 -6517.57)" fill="#dff7f9"/>
      </g>
      <g id="Grupo_121155" data-name="Grupo 121155" transform="translate(-4.988 27.572)">
        <g id="Grupo_121148" data-name="Grupo 121148" transform="translate(4.569 9.141)">
          <line id="Línea_362" data-name="Línea 362" x2="203.719" transform="translate(0 137.611)" fill="none" stroke="#1a2e35" stroke-miterlimit="10" stroke-width="1"/>
          <line id="Línea_363" data-name="Línea 363" x2="203.719" transform="translate(0 99.042)" fill="none" stroke="#1a2e35" stroke-miterlimit="10" stroke-width="1"/>
        </g>
        <g id="Grupo_121149" data-name="Grupo 121149" transform="translate(53.922 32.953)">
          <line id="Línea_368" data-name="Línea 368" x1="1.514" y2="1.597" transform="translate(0 27.236)" fill="none" stroke="#bedcde" stroke-miterlimit="10" stroke-width="1"/>
          <line id="Línea_369" data-name="Línea 369" x1="23.994" y2="25.309" transform="translate(3.341)" fill="none" stroke="#bedcde" stroke-miterlimit="10" stroke-width="1"/>
          <line id="Línea_370" data-name="Línea 370" x1="13.481" y2="13.855" transform="translate(15.353 4.119)" fill="none" stroke="#bedcde" stroke-miterlimit="10" stroke-width="1"/>
        </g>
        <g id="Grupo_121150" data-name="Grupo 121150" transform="translate(177.062 32.953)">
          <line id="Línea_371" data-name="Línea 371" x1="1.514" y2="1.597" transform="translate(0 27.236)" fill="none" stroke="#bedcde" stroke-miterlimit="10" stroke-width="1"/>
          <line id="Línea_372" data-name="Línea 372" x1="23.994" y2="25.309" transform="translate(3.341)" fill="none" stroke="#bedcde" stroke-miterlimit="10" stroke-width="1"/>
          <line id="Línea_373" data-name="Línea 373" x1="13.481" y2="13.855" transform="translate(15.353 4.119)" fill="none" stroke="#bedcde" stroke-miterlimit="10" stroke-width="1"/>
        </g>
        <g id="Grupo_121151" data-name="Grupo 121151" transform="translate(0 110.84)">
          <line id="Línea_374" data-name="Línea 374" x1="1.514" y2="1.597" transform="translate(0 27.236)" fill="none" stroke="#1a2e35" stroke-miterlimit="10" stroke-width="1"/>
          <line id="Línea_375" data-name="Línea 375" x1="23.994" y2="25.309" transform="translate(3.341)" fill="none" stroke="#1a2e35" stroke-miterlimit="10" stroke-width="1"/>
          <line id="Línea_376" data-name="Línea 376" x1="13.481" y2="13.855" transform="translate(15.353 4.119)" fill="none" stroke="#1a2e35" stroke-miterlimit="10" stroke-width="1"/>
        </g>
        <g id="Grupo_121153" data-name="Grupo 121153" transform="translate(132.055)">
          <line id="Línea_380" data-name="Línea 380" x1="1.514" y2="1.597" transform="translate(0 27.236)" fill="none" stroke="#bedcde" stroke-miterlimit="10" stroke-width="1"/>
          <line id="Línea_381" data-name="Línea 381" x1="23.994" y2="25.309" transform="translate(3.341)" fill="none" stroke="#bedcde" stroke-miterlimit="10" stroke-width="1"/>
          <line id="Línea_382" data-name="Línea 382" x1="13.481" y2="13.855" transform="translate(15.353 4.119)" fill="none" stroke="#bedcde" stroke-miterlimit="10" stroke-width="1"/>
        </g>
        <g id="Grupo_121154" data-name="Grupo 121154" transform="translate(97.36 73.02)">
          <line id="Línea_383" data-name="Línea 383" x1="1.514" y2="1.597" transform="translate(0 27.236)" fill="none" stroke="#1a2e35" stroke-miterlimit="10" stroke-width="1"/>
          <line id="Línea_384" data-name="Línea 384" x1="23.994" y2="25.309" transform="translate(3.341)" fill="none" stroke="#1a2e35" stroke-miterlimit="10" stroke-width="1"/>
          <line id="Línea_385" data-name="Línea 385" x1="13.481" y2="13.855" transform="translate(15.353 4.119)" fill="none" stroke="#1a2e35" stroke-miterlimit="10" stroke-width="1"/>
        </g>
      </g>
      <g id="Grupo_121167" data-name="Grupo 121167" transform="translate(65.514 62.748)">
        <path id="Rectángulo_41246" data-name="Rectángulo 41246" d="M18.5,0h9.979a18.5,18.5,0,0,1,18.5,18.5V90.987a0,0,0,0,1,0,0H0a0,0,0,0,1,0,0V18.5A18.5,18.5,0,0,1,18.5,0Z" transform="translate(5.07 13.133)" fill="#1a2e35" stroke="#1a2e35" stroke-linecap="round" stroke-linejoin="round" stroke-width="1"/>
        <path id="Trazado_164304" data-name="Trazado 164304" d="M7772.722,6882.849l-24.81-7.3v-8.126h-1.4v-29.983H7742.1v29.983h-1.4v7.906l-24.81,7.518v1.188h.33a2.418,2.418,0,1,0,3.438-.885l.048-.049,22.731-2.733v3.275a2.417,2.417,0,1,0,3.732,0v-3.275l22.7,2.73a2.415,2.415,0,1,0,3.352.937h.5Z" transform="translate(-7715.138 -6730.961)" fill="#1a2e35" stroke="#1a2e35" stroke-linecap="round" stroke-linejoin="round" stroke-width="1"/>
        <rect id="Rectángulo_41247" data-name="Rectángulo 41247" width="50.552" height="11.065" rx="5.532" transform="translate(3.713 104.068)" fill="#fff" stroke="#1a2e35" stroke-linecap="round" stroke-linejoin="round" stroke-width="1"/>
        <g id="Grupo_121166" data-name="Grupo 121166">
          <rect id="Rectángulo_41248" data-name="Rectángulo 41248" width="35.115" height="19.523" transform="translate(11.856 86.125)" fill="#fff" stroke="#1a2e35" stroke-linecap="round" stroke-linejoin="round" stroke-width="1"/>
          <g id="Grupo_121161" data-name="Grupo 121161">
            <g id="Grupo_121158" data-name="Grupo 121158" transform="translate(0.391)">
              <path id="Trazado_164305" data-name="Trazado 164305" d="M7760.967,6685.988l-5.38,2.106s1.949,12.086,4.522,18.324,12.085,16.14,12.085,16.14,4.913-7.173,6.628-12.865-.079-21.677-.079-21.677a11.2,11.2,0,0,0-3.976-1.4C7772.351,6686.223,7760.967,6685.988,7760.967,6685.988Z" transform="translate(-7735.161 -6656.058)" fill="#fff" stroke="#1a2e35" stroke-linecap="round" stroke-linejoin="round" stroke-width="1"/>
              <path id="Trazado_164306" data-name="Trazado 164306" d="M7774.965,6699.371l2.486,4.778-4.124,9.1,6.628,9.98,4.055-9.122-4.912-10.137,2.573-4.444-3.665-3.665Z" transform="translate(-7743.933 -6660.941)" fill="#1a2e35" stroke="#1a2e35" stroke-linecap="round" stroke-linejoin="round" stroke-width="1"/>
              <path id="Trazado_164307" data-name="Trazado 164307" d="M7764.494,6684.909l-1.716.468-1.637,2.885,4.054,11.462,6.628-6.861,7.251,7.406s.857-11.54.857-12.865-1.169-1.793-2.027-2.026S7764.494,6684.909,7764.494,6684.909Z" transform="translate(-7737.907 -6655.525)" fill="#fff" stroke="#1a2e35" stroke-linecap="round" stroke-linejoin="round" stroke-width="1"/>
              <path id="Trazado_164308" data-name="Trazado 164308" d="M7740.045,6685.834a62.232,62.232,0,0,0,5.068,19.493,91.568,91.568,0,0,0,6.394,11.073c0-.234,4.133-12.476,4.289-16.608s.936-12.944.936-12.944,7.993,3.184,9.9,4.289c2.963,1.716,6.705,2.105,6.627,4.133-.027.735.477,5.57,1.117,11.439.1.931,5.121,8.955,5.228,9.925,1.076,9.79-2.576,13.913-2.757,13.958-.312.078-6.784,0-6.784,0s3.509,15.985,4.055,16.842l.546.857h-27.882l-1.166-3.509-1.034,3.509h-28.631l3.821-17.387h-4.211s-1.091-2.184.39-10.371,6.472-28.694,6.472-29.4S7738.408,6687.55,7740.045,6685.834Z" transform="translate(-7715.174 -6655.982)" fill="#af0"/>
              <g id="Grupo_121156" data-name="Grupo 121156" transform="translate(20.193 29.728)">
                <line id="Línea_386" data-name="Línea 386" x1="0.38" y2="18.433" transform="translate(10.251 40.638)" fill="none" stroke="#85b538" stroke-linecap="round" stroke-linejoin="round" stroke-width="1"/>
                <path id="Trazado_164309" data-name="Trazado 164309" d="M7776.489,6719.241c4.6-4.289,6.626-12.866,6.626-12.866l-4.131-1.793,3.977-1.948-3.436-14.646c-1.946-1.678-3.089-1.631-3.036-1.261,0,0-.78,8.811-.936,12.945s-4.289,16.374-4.289,16.607a49.941,49.941,0,0,1-6.393-11.073c-4.215-11.355-5.023-18.214-5.145-19.506a.126.126,0,0,0-.193-.091,13.627,13.627,0,0,0-3.044,1.518c-.282,2.024-.646,4.954-.9,8.178-.468,6-.468,8.655-.468,8.655l5.38,1.326-3.821,2.183s4.211,4.288,7.72,7.485a29.527,29.527,0,0,0,5.848,4.366l-4.5,6.908A44.041,44.041,0,0,0,7776.489,6719.241Z" transform="translate(-7755.125 -6685.588)" fill="#85b538"/>
              </g>
              <path id="Trazado_164310" data-name="Trazado 164310" d="M7766.232,6674.728v6.705a8.923,8.923,0,0,0,7.8,6c6.392.41,7.485-5.771,7.485-5.771v-5.926S7769.663,6678.626,7766.232,6674.728Z" transform="translate(-7740.426 -6650.49)" fill="#ffd0b4"/>
              <path id="Trazado_113882" data-name="Trazado 113882" d="M7781.514,6669.709v4.34l-.094.02s-1.528,4.689-7.783,4.756a7.631,7.631,0,0,1-7.405-4.736v-6.43Z" transform="translate(-7740.426 -6646.994)" fill="#ff9e61"/>
              <g id="Grupo_121157" data-name="Grupo 121157" transform="translate(20.868)">
                <path id="Trazado_164311" data-name="Trazado 164311" d="M7799.246,6653.857s.233-3.041,2.105-3.041,1.871,3.509,1.4,4.912-2.885,2.417-3.664,1.326" transform="translate(-7777.543 -6638.664)" fill="#ffd0b4"/>
                <path id="Trazado_164312" data-name="Trazado 164312" d="M7773.088,6626.785s-6.889-.25-9.269,1.5-1.879,6.513-1.879,8.016,1.126,14.4,1.879,16.283,6.262,4.759,11.021,3.632,6.263-4.509,6.513-6.263.25-15.155,0-18.662S7776.469,6627.161,7773.088,6626.785Z" transform="translate(-7759.149 -6626.773)" fill="#ffd0b4"/>
                <path id="Trazado_164313" data-name="Trazado 164313" d="M7781.424,6632.688c-.02-.554-.043-1.03-.07-1.393-.25-3.508-4.885-4.134-8.266-4.51,0,0-6.889-.25-9.269,1.5s-1.879,6.513-1.879,8.016c0,.6.181,3.027.446,5.841a.889.889,0,0,0,1.308-.58c.5-1.377-.25-2.63.376-4.383s.876-2.881,2.379-3.758a12.94,12.94,0,0,1,3.006-1.252s-3.132,3.633,3.757,3.507C7777.691,6635.6,7780.208,6634.668,7781.424,6632.688Z" transform="translate(-7759.149 -6626.773)" fill="#1a2e35" stroke="#1a2e35" stroke-linecap="round" stroke-linejoin="round" stroke-width="1"/>
                <path id="Trazado_164314" data-name="Trazado 164314" d="M7784.154,6651.125s1.17,5.535.079,6.082-1.793.7-2.729-1.17" transform="translate(-7768.846 -6638.816)" fill="none" stroke="#1a2e35" stroke-linecap="round" stroke-linejoin="round" stroke-width="1"/>
                <path id="Trazado_164315" data-name="Trazado 164315" d="M7774.715,6663s-.234,2.573,4.99,2.183" transform="translate(-7765.488 -6644.691)" fill="none" stroke="#1a2e35" stroke-linecap="round" stroke-linejoin="round" stroke-width="1"/>
                <path id="Trazado_164316" data-name="Trazado 164316" d="M7776.964,6650.4c0,.538-.227.976-.507.976s-.506-.437-.506-.976.227-.974.506-.974S7776.964,6649.865,7776.964,6650.4Z" transform="translate(-7766.1 -6637.977)" fill="#1a2e35"/>
                <path id="Trazado_164317" data-name="Trazado 164317" d="M7792.468,6650.4c0,.538-.227.976-.506.976s-.506-.437-.506-.976.227-.974.506-.974S7792.468,6649.865,7792.468,6650.4Z" transform="translate(-7773.768 -6637.977)" fill="#1a2e35"/>
                <path id="Trazado_164318" data-name="Trazado 164318" d="M7776.026,6648.5l-.365,2.918a.941.941,0,0,1-.934.824h-4.237a.94.94,0,0,1-.924-.767l-.558-2.975" transform="translate(-7762.666 -6637.52)" fill="none" stroke="#1a2e35" stroke-linecap="round" stroke-linejoin="round" stroke-width="2"/>
                <path id="Trazado_164319" data-name="Trazado 164319" d="M7793.92,6648.5l-.365,2.918a.941.941,0,0,1-.933.824h-4.238a.94.94,0,0,1-.924-.767l-.558-2.975" transform="translate(-7771.516 -6637.52)" fill="none" stroke="#1a2e35" stroke-linecap="round" stroke-linejoin="round" stroke-width="2"/>
                <path id="Trazado_164320" data-name="Trazado 164320" d="M7786.9,6648.5" transform="translate(-7771.517 -6637.52)" fill="none" stroke="#1a2e35" stroke-linecap="round" stroke-linejoin="round" stroke-width="2"/>
                <path id="Trazado_164321" data-name="Trazado 164321" d="M7782.893,6648.5" transform="translate(-7769.534 -6637.52)" fill="none" stroke="#1a2e35" stroke-linecap="round" stroke-linejoin="round" stroke-width="2"/>
                <path id="Trazado_164322" data-name="Trazado 164322" d="M7762.375,6651.434" transform="translate(-7759.386 -6638.969)" fill="none" stroke="#1a2e35" stroke-linecap="round" stroke-linejoin="round" stroke-width="2"/>
                <path id="Trazado_164323" data-name="Trazado 164323" d="M7769.009,6648.5" transform="translate(-7762.667 -6637.52)" fill="none" stroke="#1a2e35" stroke-linecap="round" stroke-linejoin="round" stroke-width="2"/>
                <path id="Trazado_164324" data-name="Trazado 164324" d="M7760.23,6653.857s-.234-3.041-2.105-3.041-1.871,3.509-1.4,4.912,2.885,2.417,3.666,1.326" transform="translate(-7756.461 -6638.664)" fill="#ffd0b4"/>
                <path id="Trazado_113889" data-name="Trazado 113889" d="M7775.729,6646.193c-.013.729-2.427,1.2-2.551.539-.2-1.1,2.571-1.693,2.551-.539" transform="translate(-7764.723 -6636.066)"/>
                <path id="Trazado_113890" data-name="Trazado 113890" d="M7792.219,6646.66c-.335.583-2.493-.1-2.3-.695.326-.981,2.826-.225,2.3.695" transform="translate(-7773.003 -6636.036)"/>
                <line id="Línea_387" data-name="Línea 387" x2="7.018" transform="translate(6.342 10.983)" fill="none" stroke="#1a2e35" stroke-linecap="round" stroke-linejoin="round" stroke-width="2"/>
                <line id="Línea_388" data-name="Línea 388" x2="7.018" transform="translate(15.387 10.983)" fill="none" stroke="#1a2e35" stroke-linecap="round" stroke-linejoin="round" stroke-width="2"/>
                <line id="Línea_389" data-name="Línea 389" x2="2.027" transform="translate(13.359 10.983)" fill="none" stroke="#1a2e35" stroke-linecap="round" stroke-linejoin="round" stroke-width="2"/>
                <line id="Línea_390" data-name="Línea 390" x1="3.353" y2="1.482" transform="translate(2.989 10.983)" fill="none" stroke="#1a2e35" stroke-linecap="round" stroke-linejoin="round" stroke-width="2"/>
              </g>
            </g>
            <g id="Grupo_121160" data-name="Grupo 121160" transform="translate(0 36.636)">
              <g id="Grupo_121159" data-name="Grupo 121159" transform="translate(29.473 13.87)">
                <path id="Trazado_164325" data-name="Trazado 164325" d="M7793.364,6730.292a8.732,8.732,0,0,0-3.743-2.088,2.81,2.81,0,0,0-1.41-.112,41.027,41.027,0,0,1-4.513-1.355c-.78-.233-1.247.546-1.014,1.4s1.9,1.589,2.523,1.745.359.172.359.172,1.014,2.5.546,3.431-2.105,3.041-1.56,4.522a2.978,2.978,0,0,0,3.119,2.262c1.715,0,2.729.077,3.119,0s7.329,3.352,6.55,3.43-.312-6.938-.312-6.938Z" transform="translate(-7777.613 -6726.695)" fill="#f4c0a6"/>
                <path id="Trazado_164326" data-name="Trazado 164326" d="M7772.71,6734.588a25.515,25.515,0,0,0,5.458-3.587c1.793-1.793,2.417-2.26,3.04-2.417a14.62,14.62,0,0,0,3.743-1.4c.624-.545,1.092.468.157,1.249a15.376,15.376,0,0,1-2.184,1.481c-.39.233-.78,1.325-.78,1.325s3.821-1.637,5.147-1.248,2.637,1.572,2.56,2.273-.328.36-1.185.282-2.077-.45-3.013-.06-2.027,1.325-2.027,1.715,1.091.625,1.949.546a7.9,7.9,0,0,1,2.339-.156c.858.156,1.56.624,1.638,1.091s-.312.469-1.248.546a8.935,8.935,0,0,0-3.119.546c-.547.39-3.354,1.716-2.886,2.183s.748.471,1.684.471,1.937-.72,2.482-.677c.732.056,1.128.113,1.128.113s1.3.057,1.184.564c-.181.82-.621.846-2.5.933a13.48,13.48,0,0,0-3.2.234,12.962,12.962,0,0,1-3.508.624,26.161,26.161,0,0,1-6.317-.936Z" transform="translate(-7772.71 -6726.859)" fill="#ffd0b4"/>
                <path id="Trazado_164327" data-name="Trazado 164327" d="M7795.326,6730.422s-1.579-1.466-2.482-1.522-3.667,2.369-4.062,3.271.507.563,1.241.338,2.708-1.128,3.385-1.41a2.611,2.611,0,0,1,1.784-.186" transform="translate(-7780.611 -6727.786)" fill="#f4c0a6"/>
                <path id="Trazado_164328" data-name="Trazado 164328" d="M7799.162,6737.6s-2.256-1.129-3.666-.508-3.16,1.861-3.16,2.426.282.451,1.522.395,3.462-.423,3.762-.437a7.973,7.973,0,0,1,1.316.269" transform="translate(-7782.417 -6731.744)" fill="#f4c0a6"/>
              </g>
              <path id="Trazado_164329" data-name="Trazado 164329" d="M7728.98,6712.2l-1.949,10.448s16.92-3.353,17.544-2.885,1.188,12.867,1.188,12.867-21.852,3.819-24.425,4.677-5.224,1.013-6.16.233-1.013-2.729-.311-6.55,7.408-31.734,7.408-31.734" transform="translate(-7714.4 -6699.256)" fill="#af0" stroke="#85b538" stroke-linecap="round" stroke-linejoin="round" stroke-width="1"/>
              <path id="Trazado_164330" data-name="Trazado 164330" d="M7815.487,6723.476l.7,11.929-5.615-.234-.56,9.889s15.48,3.6,16.338,4.068.7-.467,1.716-1.949a13.26,13.26,0,0,0,1.793-6.082c-.079-1.4-3.276-6.082-3.354-5.848" transform="translate(-7761.688 -6711.234)" fill="#af0" stroke="#85b538" stroke-linecap="round" stroke-linejoin="round" stroke-width="1"/>
              <line id="Línea_391" data-name="Línea 391" x2="5.224" transform="translate(54.502 24.172)" fill="none" stroke="#85b538" stroke-linecap="round" stroke-linejoin="round" stroke-width="1"/>
              <line id="Línea_392" data-name="Línea 392" x1="6.94" y2="2.417" transform="translate(5.691 23.392)" fill="none" stroke="#85b538" stroke-linecap="round" stroke-linejoin="round" stroke-width="1"/>
            </g>
          </g>
          <g id="Grupo_121163" data-name="Grupo 121163" transform="translate(3.602 82.911)">
            <g id="Grupo_121162" data-name="Grupo 121162" transform="translate(5.025 60.704)">
              <path id="Trazado_164331" data-name="Trazado 164331" d="M7737.128,6911.861s-1.132,4.863-2.714,6.56-3.054,2.827-2.941,4.184l.114,1.356h16.285v-4.071c0-2.374-1.018-6.558-1.018-8.255s-10.179.114-10.179.114" transform="translate(-7731.467 -6910.91)" fill="#1a2e35" stroke="#1a2e35" stroke-linecap="round" stroke-linejoin="round" stroke-width="1"/>
              <path id="Trazado_164332" data-name="Trazado 164332" d="M7731.865,6931.363a2.2,2.2,0,0,0-.392,1.358l.114,1.356h16.285v-2.714Z" transform="translate(-7731.467 -6921.025)" fill="#4e5e64" stroke="#1a2e35" stroke-linecap="round" stroke-linejoin="round" stroke-width="1"/>
            </g>
            <path id="Trazado_164333" data-name="Trazado 164333" d="M7746.346,6809.264s1.584-10.065-1.13-14.7-12.214-4.75-17.529-1.584-7.379,8.354-5.456,15.026,6.361,6.8,6.361,6.8-1.131,9.161-1.131,12.78,3.846,26.125,3.846,26.125H7742.5S7746.121,6814.014,7746.346,6809.264Z" transform="translate(-7721.525 -6790.809)" fill="#4e5e64" stroke="#1a2e35" stroke-linecap="round" stroke-linejoin="round" stroke-width="1"/>
            <line id="Línea_393" data-name="Línea 393" y1="9.274" x2="1.131" transform="translate(7.067 14.723)" fill="#fff" stroke="#1a2e35" stroke-linecap="round" stroke-linejoin="round" stroke-width="1"/>
          </g>
          <g id="Grupo_121165" data-name="Grupo 121165" transform="translate(32.613 82.911)">
            <g id="Grupo_121164" data-name="Grupo 121164" transform="translate(3.852 60.704)">
              <path id="Trazado_164334" data-name="Trazado 164334" d="M7797.289,6911.861s1.132,4.863,2.714,6.56,3.054,2.827,2.94,4.184l-.113,1.356h-16.285v-4.071c0-2.374,1.018-6.558,1.018-8.255s10.179.114,10.179.114" transform="translate(-7786.544 -6910.91)" fill="#1a2e35" stroke="#1a2e35" stroke-linecap="round" stroke-linejoin="round" stroke-width="1"/>
              <path id="Trazado_164335" data-name="Trazado 164335" d="M7802.551,6931.363a2.2,2.2,0,0,1,.392,1.358l-.113,1.356h-16.285v-2.714Z" transform="translate(-7786.544 -6921.025)" fill="#4e5e64" stroke="#1a2e35" stroke-linecap="round" stroke-linejoin="round" stroke-width="1"/>
            </g>
            <path id="Trazado_164336" data-name="Trazado 164336" d="M7779.383,6809.264s-1.583-10.065,1.131-14.7,12.214-4.75,17.53-1.584,7.421,8.354,5.5,15.026-6.405,6.8-6.405,6.8,1.131,9.161,1.131,12.78-3.845,26.125-3.845,26.125h-11.2S7779.608,6814.014,7779.383,6809.264Z" transform="translate(-7778.924 -6790.809)" fill="#4e5e64" stroke="#1a2e35" stroke-linecap="round" stroke-linejoin="round" stroke-width="1"/>
            <line id="Línea_394" data-name="Línea 394" x1="1.131" y1="9.274" transform="translate(17.083 14.723)" fill="#fff" stroke="#1a2e35" stroke-linecap="round" stroke-linejoin="round" stroke-width="1"/>
          </g>
        </g>
      </g>
      <g id="Grupo_121169" data-name="Grupo 121169" transform="translate(119.37 44.285)">
        <path id="Trazado_164337" data-name="Trazado 164337" d="M7823.34,6590.246h22.369a2.387,2.387,0,0,1,2.386,2.386v10.381a2.386,2.386,0,0,1-2.386,2.386h-6.721l1.756,4.75-5.526-4.75H7823.34a2.384,2.384,0,0,1-2.386-2.386v-10.381A2.385,2.385,0,0,1,7823.34,6590.246Z" transform="translate(-7820.954 -6590.246)" fill="#feca2e"/>
        <g id="Grupo_121168" data-name="Grupo 121168" transform="translate(5.428 5.994)">
          <circle id="Elipse_5195" data-name="Elipse 5195" cx="1.301" cy="1.301" r="1.301" transform="translate(12.44)" fill="#fc4b52"/>
          <circle id="Elipse_5196" data-name="Elipse 5196" cx="1.301" cy="1.301" r="1.301" transform="translate(6.22)" fill="#fc4b52"/>
          <circle id="Elipse_5197" data-name="Elipse 5197" cx="1.301" cy="1.301" r="1.301" fill="#fc4b52"/>
        </g>
      </g>
      <g id="Grupo_121170" data-name="Grupo 121170" transform="translate(30.916 128.759)">
        <path id="Trazado_164338" data-name="Trazado 164338" d="M7649.878,6757.374l-3.929,8.294h11.131l3.929-7.89Z" transform="translate(-7645.949 -6757.374)" fill="#1a2e35" stroke="#1a2e35" stroke-linecap="round" stroke-linejoin="round" stroke-width="1"/>
        <path id="Trazado_164339" data-name="Trazado 164339" d="M7678.169,6757.374h-24.447l3.929,8.294H7682.1Z" transform="translate(-7649.793 -6757.374)" fill="#fff" stroke="#1a2e35" stroke-linecap="round" stroke-linejoin="round" stroke-width="1"/>
      </g>
      <g id="Grupo_121171" data-name="Grupo 121171" transform="translate(4.414 136.829)">
        <rect id="Rectángulo_41249" data-name="Rectángulo 41249" width="5.51" height="70.908" transform="translate(5.919 11.649)" fill="#a3a3a3" stroke="#1a2e35" stroke-linecap="round" stroke-linejoin="round" stroke-width="1"/>
        <rect id="Rectángulo_41250" data-name="Rectángulo 41250" width="5.51" height="70.908" transform="translate(182.269 11.834)" fill="#a3a3a3" stroke="#1a2e35" stroke-linecap="round" stroke-linejoin="round" stroke-width="1"/>
        <rect id="Rectángulo_41251" data-name="Rectángulo 41251" width="185.476" height="68.343" transform="translate(4.723)" fill="#a3a3a3" stroke="#1a2e35" stroke-linecap="round" stroke-linejoin="round" stroke-width="1"/>
        <rect id="Rectángulo_41252" data-name="Rectángulo 41252" width="185.476" height="7.11" transform="translate(4.723)" fill="#1a2e35" stroke="#1a2e35" stroke-linecap="round" stroke-linejoin="round" stroke-width="1"/>
        <rect id="Rectángulo_41253" data-name="Rectángulo 41253" width="194.922" height="4.241" fill="#fff" stroke="#1a2e35" stroke-linecap="round" stroke-linejoin="round" stroke-width="1"/>
      </g>
      <g id="Grupo_121173" data-name="Grupo 121173" transform="translate(-2.385 63.731)">
        <g id="Grupo_121172" data-name="Grupo 121172">
          <path id="Trazado_164340" data-name="Trazado 164340" d="M7594.559,6764.428s-12.52-26.667-9.8-27.438,8.42,3.478,8.42,3.478-16.734-44.83-12.4-48.308,12.42,14.3,12.42,14.3-8.637-27.439-7.622-37.873,11.989-.387,11.989-.387-8.791-37.487-.629-39.42,7.891,42.9,7.891,42.9,2.679-32.077,5.949-23.187-3.6,38.646-3.6,38.646,4.484-10.047,6.974-.773-4.952,46.763-4.952,46.763,6.328-6.184,6.92,1.545-13.1,31.691-13.1,31.691l-7.747.773Z" transform="translate(-7580.065 -6628.718)" fill="#af0"/>
          <path id="Trazado_164341" data-name="Trazado 164341" d="M7594.559,6764.428s-12.52-26.667-9.8-27.438,8.42,3.478,8.42,3.478-16.734-44.83-12.4-48.308,12.42,14.3,12.42,14.3-8.637-27.439-7.622-37.873,11.989-.387,11.989-.387-8.791-37.487-.629-39.42,7.891,42.9,7.891,42.9,2.679-32.077,5.949-23.187-3.6,38.646-3.6,38.646,4.484-10.047,6.974-.773-4.952,46.763-4.952,46.763,6.328-6.184,6.92,1.545-13.1,31.691-13.1,31.691l-7.747.773Z" transform="translate(-7580.065 -6628.718)" fill="#fc4b52"/>
          <path id="Trazado_164342" data-name="Trazado 164342" d="M7602.117,6788.679s-10.436-18.55-8.5-22.027,7.729,4.638,7.729,4.638-13.139-32.85-11.207-35.941,8.115,10.435,8.115,10.435-2.319-45.217,1.546-43.671,4.251,23.188,4.251,23.188-2.318-51.4,1.159-49.854,3.092,58.743,3.092,58.743,6.956-22.029,8.115-11.98-8.889,37.1-8.889,37.1,9.662-21.256,10.821-10.049-7.729,32.077-7.729,32.077,3.478-8.5,3.478-3.864-2.706,10.435-2.706,10.435" transform="translate(-7584.951 -6651.81)" fill="none" stroke="#1a2e35" stroke-linecap="round" stroke-linejoin="round" stroke-width="1"/>
        </g>
        <rect id="Rectángulo_41254" data-name="Rectángulo 41254" width="22.092" height="19.118" transform="translate(9.179 136.722)" fill="#1a2e35" stroke="#1a2e35" stroke-miterlimit="10" stroke-width="1"/>
      </g>
      <g id="Grupo_121179" data-name="Grupo 121179" transform="translate(126.727 61.439)">
        <path id="Trazado_164343" data-name="Trazado 164343" d="M7876.747,6640.088s-2.263,3.732-2.6,5.429.226,2.375-.227,3.62-2.374,1.244-2.374,2.487,1.356,2.375,1.809,2.714-.339,1.81.452,3.958,1.132,4.864,2.488,4.864a38.144,38.144,0,0,0,4.185-.453l.679,4.128,9.33-.848s-.113-4.071,2.375-5.768,7.408-11.422,4.468-17.755S7882.062,6634.887,7876.747,6640.088Z" transform="translate(-7853.331 -6630.446)" fill="#ffbf9d"/>
        <path id="Trazado_164344" data-name="Trazado 164344" d="M7875.339,6629.134a8.628,8.628,0,0,0-.363,3.072,12.369,12.369,0,0,0,1.809,5.632c1.153,1.9,3.915,3.117,4.593,5.148.227.68.792,2.489,2.375,2.941s1.244.453.791,3.506.905,6.106,3.62,6.9a8.082,8.082,0,0,0,7.464-1.583c2.148-1.7,6.219-8.708,6.333-15.042.2-11.206-10.846-16.692-20.809-15.315A6.786,6.786,0,0,0,7875.339,6629.134Z" transform="translate(-7855.019 -6624.184)" fill="#1a2e35" stroke="#1a2e35" stroke-linecap="round" stroke-linejoin="round" stroke-width="1"/>
        <path id="Trazado_164345" data-name="Trazado 164345" d="M7886.145,6690.435a10.639,10.639,0,0,0-4.357,1.032c-1.264.67-5.654,4.863-6.784,5.542s-3.28.339-2.036.905,2.148.677,4.3-.114,6.672-2.375,8.028-2.375,6.334.679,6.787.792,3.392,1.47,3.392,1.47a18.724,18.724,0,0,0-3.166-4.75A8.415,8.415,0,0,0,7886.145,6690.435Z" transform="translate(-7853.848 -6656.945)" fill="#fc4b52" stroke="#c21d23" stroke-miterlimit="10" stroke-width="1"/>
        <path id="Trazado_164346" data-name="Trazado 164346" d="M7891.305,6662.56a1.163,1.163,0,0,0-.725,1.231,15.543,15.543,0,0,1-.073,4.486c-.452,1.924,1.949,1.924,2.476-1.228C7893.329,6664.97,7892.538,6662.119,7891.305,6662.56Z" transform="translate(-7862.68 -6643.14)" fill="#ff9a6c"/>
        <g id="Grupo_121174" data-name="Grupo 121174" transform="translate(2.117 45.493)">
          <path id="Trazado_164347" data-name="Trazado 164347" d="M7847.312,6714.19s-1.357.678-1.47,3.958-5.768,26.35-6.107,29.969,1.584,5.994,4.863,7.238,9.5,3.28,10.631,2.714,3.278-12.214,4.071-17.3-8.708-22.732-9.16-23.41S7848.1,6714.3,7847.312,6714.19Z" transform="translate(-7839.696 -6714.19)" fill="#fc4b52"/>
          <line id="Línea_395" data-name="Línea 395" x1="6.22" y2="9.274" transform="translate(8.747 27.029)" fill="#c21d23"/>
        </g>
        <path id="Trazado_164348" data-name="Trazado 164348" d="M7893.024,6848.224l7.854,43.48a.975.975,0,0,0,1.256.754h0a.974.974,0,0,0,.666-1.054L7897,6847.3Z" transform="translate(-7863.953 -6734.527)" fill="#fff" stroke="#1a2e35" stroke-linecap="round" stroke-linejoin="round" stroke-width="1"/>
        <g id="Grupo_121176" data-name="Grupo 121176" transform="translate(14.37 100.387)">
          <path id="Trazado_164349" data-name="Trazado 164349" d="M7869.931,6826.606s-2.939,39.7-2.939,40.825-3.055,13.005-3.055,13.005h8.144a11.775,11.775,0,0,0,.792-4.862c0-3.279.339-10.291.339-10.97s9.048-35.737,9.048-35.737-.453-3.507-4.864-5.541S7870.61,6825.7,7869.931,6826.606Z" transform="translate(-7863.937 -6822.795)" fill="#ffbf9d"/>
          <g id="Grupo_121175" data-name="Grupo 121175" transform="translate(0 41.339)">
            <path id="Trazado_164350" data-name="Trazado 164350" d="M7872.872,6916.022c0-3,.282-9.1.332-10.654a4.719,4.719,0,0,0-6.1.7l0,.008c-.07,1.028-.108,1.671-.108,1.8,0,1.13-3.055,13-3.055,13h8.144A11.779,11.779,0,0,0,7872.872,6916.022Z" transform="translate(-7863.937 -6904.582)" fill="#1a2e35" stroke="#1a2e35" stroke-linecap="round" stroke-linejoin="round" stroke-width="1"/>
            <path id="Trazado_164351" data-name="Trazado 164351" d="M7872.938,6926.216a11.788,11.788,0,0,0,.791-4.862c0-1.219.047-2.955.106-4.688-.785-.917-2.477-2.317-4.29-.175-.792.936-2.881,6.841-3.872,9.726Z" transform="translate(-7864.796 -6909.913)" fill="#4f4f4f" stroke="#1a2e35" stroke-linecap="round" stroke-linejoin="round" stroke-width="1"/>
            <path id="Trazado_164352" data-name="Trazado 164352" d="M7873.333,6916.257l.679,9.725h2.037l1.7-9.952S7875.482,6913.317,7873.333,6916.257Z" transform="translate(-7868.584 -6909.68)" fill="#1a2e35" stroke="#1a2e35" stroke-linecap="round" stroke-linejoin="round" stroke-width="1"/>
          </g>
        </g>
        <g id="Grupo_121177" data-name="Grupo 121177" transform="translate(0 98.415)">
          <path id="Trazado_164353" data-name="Trazado 164353" d="M7839.359,6819.474s-3.5,3.845-3.845,7.125,11.762,38,11.762,38a8.876,8.876,0,0,1-1.924,3.958c-1.7,2.149-4.07,5.2-4.409,7.238a5.059,5.059,0,0,0,0,2.714h8.03s2.826-7.238,3.957-9.046.452-5.316.113-6.9-3.394-38.111-3.394-38.111S7847.276,6816.76,7839.359,6819.474Z" transform="translate(-7835.507 -6818.894)" fill="#ffbf9d"/>
          <path id="Trazado_164354" data-name="Trazado 164354" d="M7858.1,6912.091c.981-1.571.6-4.417.261-6.178a3.579,3.579,0,0,0-3.089-.722c-2.374.566-2.827,2.037-2.827,2.037a8.87,8.87,0,0,1-1.922,3.958c-1.7,2.149-4.07,5.2-4.41,7.237a5.065,5.065,0,0,0,0,2.715h8.029S7856.97,6913.9,7858.1,6912.091Z" transform="translate(-7840.679 -6861.523)" fill="#1a2e35" stroke="#1a2e35" stroke-linecap="round" stroke-linejoin="round" stroke-width="1"/>
          <path id="Trazado_164355" data-name="Trazado 164355" d="M7853.975,6927.185h4.13s2.516-6.437,3.75-8.687c-.606-.558-2.442-1.976-4.2-.586-2.149,1.7-2.376,5.881-2.941,7.463C7854.446,6926.121,7854.182,6926.737,7853.975,6927.185Z" transform="translate(-7844.641 -6867.571)" fill="#4f4f4f" stroke="#1a2e35" stroke-linecap="round" stroke-linejoin="round" stroke-width="1"/>
          <path id="Trazado_164356" data-name="Trazado 164356" d="M7861.253,6917.66l.451,9.272h1.471l2.487-9.046S7863.4,6915.623,7861.253,6917.66Z" transform="translate(-7848.24 -6867.318)" fill="#1a2e35" stroke="#1a2e35" stroke-linecap="round" stroke-linejoin="round" stroke-width="1"/>
        </g>
        <g id="Grupo_121178" data-name="Grupo 121178" transform="translate(1.244 38.121)">
          <path id="Trazado_164357" data-name="Trazado 164357" d="M7850.619,6722.308a137.051,137.051,0,0,1,3.565,19.363c0,2.036-5.271,13.992-5.271,13.992s-6.227,3.357-7.81,5.732a5.856,5.856,0,0,0-.519,6.563c1.131,2.263,2.222,3.087,5.655,4.386,3.548,1.342,38.451,0,38.451,0a13.616,13.616,0,0,0,1.922-11.423c-.789-3.262-1.649-6.1-2.6-10.064a10.689,10.689,0,0,0,6.446-2.148c2.714-2.262,2.827-5.768,2.827-8.369s-1.7-24.314-1.7-26.464-.112-4.862-2.147-6.446-6.785-4.07-11.083-6.332c-3.387-1.783-5.882-1.471-8.595-1.471s-5.994,2.036-5.994,2.036-15.041,3.958-16.173,4.637c-1.057.634-.73,1.366-.314,3.859" transform="translate(-7838.882 -6699.605)" fill="#fc4b52" stroke="#c21d23" stroke-miterlimit="10" stroke-width="1"/>
          <path id="Trazado_164358" data-name="Trazado 164358" d="M7926.311,6726.721s-4.628,26.9-4.628,28.37,2.817,9.176,2.817,9.176" transform="translate(-7879.37 -6713.015)" fill="#c21d23"/>
          <path id="Trazado_164359" data-name="Trazado 164359" d="M7853.028,6785.08c-1.109,3.57-5.665,12.572-5.665,12.572s-6.561,3.393-8.144,5.768a6.991,6.991,0,0,0-.452,7.238c1.131,2.262,2.827,3.279,6.56,3.958s38.451,0,38.451,0a13.619,13.619,0,0,0,1.923-11.423c-.79-3.263-1.651-6.1-2.6-10.065l-2.818-8.048Z" transform="translate(-7837.968 -6741.877)" fill="#feca2e"/>
        </g>
        <path id="Trazado_164360" data-name="Trazado 164360" d="M7842.769,6848.216l-5.846,43.8a.972.972,0,0,0,.964,1.1h0a.973.973,0,0,0,.957-.8l8-43.759Z" transform="translate(-7836.203 -6734.981)" fill="#fff" stroke="#1a2e35" stroke-linecap="round" stroke-linejoin="round" stroke-width="1"/>
        <path id="Trazado_164361" data-name="Trazado 164361" d="M7921.086,6848.216l5.848,43.8a.972.972,0,0,1-.964,1.1h0a.973.973,0,0,1-.958-.8l-8-43.759Z" transform="translate(-7875.817 -6734.981)" fill="#fff" stroke="#1a2e35" stroke-linecap="round" stroke-linejoin="round" stroke-width="1"/>
        <path id="Trazado_164362" data-name="Trazado 164362" d="M7874.318,6848.216l-5.848,43.8a.974.974,0,0,0,.965,1.1h0a.972.972,0,0,0,.956-.8l8-43.759Z" transform="translate(-7851.805 -6734.981)" fill="#fff" stroke="#1a2e35" stroke-linecap="round" stroke-linejoin="round" stroke-width="1"/>
        <path id="Trazado_164363" data-name="Trazado 164363" d="M7889.968,6749.095h-36.53a96.808,96.808,0,0,0-.452,15.946c.565,7.35,1.811,16.737,1.583,22.731a14.249,14.249,0,0,1-3.618,9.274h-8.143a1.472,1.472,0,0,0-1.471,1.47h0a1.472,1.472,0,0,0,1.471,1.47H7886.8a25.032,25.032,0,0,0,3.733-14.363c-.341-8.595-3.733-18.32-2.6-25.219S7889.968,6749.095,7889.968,6749.095Z" transform="translate(-7838.391 -6685.96)" fill="#af0" stroke="#85b538" stroke-miterlimit="10" stroke-width="1"/>
        <path id="Trazado_164364" data-name="Trazado 164364" d="M7911.646,6644.76a3.868,3.868,0,0,0-2.375,3.053c-.112,2.148-.792,9.5-3.5,13.684s0,10.857,6.671,11.875,12.1-9.048,9.612-19.452S7913.908,6643.855,7911.646,6644.76Z" transform="translate(-7869.74 -6634.155)" fill="#1a2e35" stroke="#1a2e35" stroke-linecap="round" stroke-linejoin="round" stroke-width="1"/>
      </g>
      <path id="Trazado_165986" data-name="Trazado 165986" d="M0,0H221.047" transform="translate(-11.996 219.572)" fill="none" stroke="#1a2e35" stroke-linecap="round" stroke-width="1"/>
      <path id="Trazado_113884" data-name="Trazado 113884" d="M7758.347,6655.021l1.794,1.617" transform="translate(-7670.621 -6577.995)" fill="none" stroke="#ff9e61" stroke-miterlimit="10" stroke-width="1"/>
      <path id="Trazado_113886" data-name="Trazado 113886" d="M7803.067,6654.846a.127.127,0,0,0-.18-.01l-1.415,1.276" transform="translate(-7691.949 -6577.888)" fill="none" stroke="#ff9e61" stroke-miterlimit="10" stroke-width="1"/>
    </g>
  </g>
</svg>
