<svg xmlns="http://www.w3.org/2000/svg" xmlns:xlink="http://www.w3.org/1999/xlink" width="207.72" height="212.5" viewBox="0 0 207.72 212.5">
  <defs>
    <clipPath id="clip-path">
      <path id="Trazado_165522" data-name="Trazado 165522" d="M6704.606,4502.958c0,9.9-2.439,28.556-7.977,38.7-4.585,8.4-10.2,8.789-14.018,15.409a99.5,99.5,0,1,1-152.367-124.007c.718-.639.61-24.629,1.346-25.248,17.294-14.528,39.257-13.4,63.61-13.4,23.229,0,48.869.321,65.8,13.663,1.128.889-.849,22.928.239,23.865C6682.448,4450.187,6704.606,4472.784,6704.606,4502.958Z" transform="translate(-6496.886 -4394.393)" fill="none"/>
    </clipPath>
  </defs>
  <g id="Grupo_125011" data-name="Grupo 125011" transform="translate(-6496.886 -4394.393)">
    <g id="Grupo_125010" data-name="Grupo 125010" transform="translate(6496.886 4394.393)" clip-path="url(#clip-path)">
      <circle id="Elipse_5227" data-name="Elipse 5227" cx="99.497" cy="99.497" r="99.497" transform="translate(0 13.506)" fill="#dff7f9"/>
      <g id="Grupo_124682" data-name="Grupo 124682" transform="translate(-20.7 114.539)">
        <g id="Grupo_124681" data-name="Grupo 124681">
          <path id="Trazado_165384" data-name="Trazado 165384" d="M6461.686,4770.513v13.259h3.063a18.546,18.546,0,0,1,0-4.2c.293-1.564,3.617-5.595,3.52-9.055Z" transform="translate(-6459.602 -4686.125)" fill="#ececec"/>
          <path id="Trazado_165385" data-name="Trazado 165385" d="M6508,4770.513v13.259h3.063a18.546,18.546,0,0,1,0-4.2c.293-1.564,3.617-5.595,3.52-9.055Z" transform="translate(-6481.422 -4686.125)" fill="#e1e1e1"/>
          <path id="Trazado_165386" data-name="Trazado 165386" d="M6547.47,4770.513v13.259h-3.062a18.546,18.546,0,0,0,0-4.2c-.293-1.564-3.618-5.595-3.52-9.055Z" transform="translate(-6496.915 -4686.125)" fill="#ececec"/>
          <path id="Trazado_165387" data-name="Trazado 165387" d="M6587.563,4770.513v13.259H6584.5a18.607,18.607,0,0,0,0-4.2c-.293-1.564-3.618-5.595-3.52-9.055Z" transform="translate(-6515.803 -4686.125)" fill="#e1e1e1"/>
          <rect id="Rectángulo_41336" data-name="Rectángulo 41336" width="73.366" height="65.885" transform="translate(0 18.932)" fill="#f5f5f5"/>
          <path id="Trazado_165388" data-name="Trazado 165388" d="M6559.093,4646.75l.546,65.885h19.219v-65.887Z" transform="translate(-6505.492 -4627.818)" fill="#e1e1e1"/>
          <rect id="Rectángulo_41337" data-name="Rectángulo 41337" width="47.103" height="16.764" transform="translate(3.302 23.779)" fill="#ececec"/>
          <rect id="Rectángulo_41338" data-name="Rectángulo 41338" width="47.103" height="16.764" transform="translate(3.302 43.886)" fill="#ececec"/>
          <rect id="Rectángulo_41339" data-name="Rectángulo 41339" width="47.103" height="16.764" transform="translate(3.302 63.992)" fill="#ececec"/>
          <g id="Grupo_124680" data-name="Grupo 124680" transform="translate(19.326)">
            <g id="Grupo_124675" data-name="Grupo 124675">
              <g id="Grupo_124674" data-name="Grupo 124674">
                <path id="Trazado_165389" data-name="Trazado 165389" d="M6496.32,4610.957l-2.032,18.854h26.031l2.159-18.854Z" transform="translate(-6494.288 -4610.957)" fill="#e1e1e1"/>
              </g>
            </g>
            <g id="Grupo_124677" data-name="Grupo 124677" transform="translate(1.125 1.354)">
              <g id="Grupo_124676" data-name="Grupo 124676">
                <path id="Trazado_165390" data-name="Trazado 165390" d="M6498.393,4613.517l-1.977,16.5h23.493l1.9-16.5Z" transform="translate(-6496.416 -4613.517)" fill="#fff"/>
              </g>
            </g>
            <g id="Grupo_124679" data-name="Grupo 124679" transform="translate(5.839 4.129)">
              <g id="Grupo_124678" data-name="Grupo 124678">
                <path id="Trazado_165391" data-name="Trazado 165391" d="M6506.544,4618.764l-1.216,10.948h14.826l.761-10.948Z" transform="translate(-6505.328 -4618.764)" fill="#ececec"/>
              </g>
            </g>
          </g>
          <path id="Trazado_165392" data-name="Trazado 165392" d="M6544.735,4626.309l5.377,10.81-6.606-.075,1.229-10.734" transform="translate(-6498.149 -4618.189)" fill="#ececec"/>
        </g>
        <path id="Trazado_165393" data-name="Trazado 165393" d="M6508.708,4671.887a1.723,1.723,0,1,1-1.723-1.723A1.722,1.722,0,0,1,6508.708,4671.887Z" transform="translate(-6480.132 -4638.85)" fill="#e1e1e1"/>
        <path id="Trazado_165394" data-name="Trazado 165394" d="M6508.708,4710.28a1.723,1.723,0,1,1-1.723-1.723A1.723,1.723,0,0,1,6508.708,4710.28Z" transform="translate(-6480.132 -4656.937)" fill="#e1e1e1"/>
        <path id="Trazado_165395" data-name="Trazado 165395" d="M6508.708,4748.673a1.723,1.723,0,1,1-1.723-1.722A1.723,1.723,0,0,1,6508.708,4748.673Z" transform="translate(-6480.132 -4675.024)" fill="#e1e1e1"/>
      </g>
      <g id="Grupo_124691" data-name="Grupo 124691" transform="translate(-11.969 25.965)">
        <g id="Grupo_124684" data-name="Grupo 124684">
          <g id="Grupo_124683" data-name="Grupo 124683">
            <path id="Trazado_165396" data-name="Trazado 165396" d="M6515.856,4443.889l-41.6-.4,1.161,54.213,41.595.154Z" transform="translate(-6474.256 -4443.484)" fill="#e1e1e1"/>
          </g>
        </g>
        <g id="Grupo_124686" data-name="Grupo 124686" transform="translate(2.501 1.876)">
          <g id="Grupo_124685" data-name="Grupo 124685">
            <path id="Trazado_165397" data-name="Trazado 165397" d="M6515.4,4447.979l-36.416-.946,1.054,49.169,36.4.448Z" transform="translate(-6478.984 -4447.032)" fill="#fafafa"/>
          </g>
        </g>
        <g id="Grupo_124688" data-name="Grupo 124688" transform="translate(8.539 9.766)">
          <g id="Grupo_124687" data-name="Grupo 124687">
            <path id="Trazado_165398" data-name="Trazado 165398" d="M6514.563,4462.352l-24.16-.4.736,34.367,24.14-.518Z" transform="translate(-6490.402 -4461.949)" fill="#ececec"/>
          </g>
        </g>
        <g id="Grupo_124690" data-name="Grupo 124690" transform="translate(8.539 9.766)">
          <g id="Grupo_124689" data-name="Grupo 124689">
            <path id="Trazado_165399" data-name="Trazado 165399" d="M6491.139,4496.316l23.762-18.173-24.5-16.194Z" transform="translate(-6490.402 -4461.949)" fill="#f5f5f5"/>
          </g>
        </g>
      </g>
      <g id="Grupo_124700" data-name="Grupo 124700" transform="translate(172.137 -2.243)">
        <g id="Grupo_124693" data-name="Grupo 124693">
          <g id="Grupo_124692" data-name="Grupo 124692">
            <path id="Trazado_165400" data-name="Trazado 165400" d="M6858.847,4390.506l-36.495-.355,1.019,47.56,36.489.134Z" transform="translate(-6822.353 -4390.151)" fill="#e1e1e1"/>
          </g>
        </g>
        <g id="Grupo_124695" data-name="Grupo 124695" transform="translate(2.194 1.646)">
          <g id="Grupo_124694" data-name="Grupo 124694">
            <path id="Trazado_165401" data-name="Trazado 165401" d="M6858.446,4394.094l-31.946-.83.924,43.134,31.937.394Z" transform="translate(-6826.5 -4393.264)" fill="#fafafa"/>
          </g>
        </g>
        <g id="Grupo_124697" data-name="Grupo 124697" transform="translate(7.491 8.567)">
          <g id="Grupo_124696" data-name="Grupo 124696">
            <path id="Trazado_165402" data-name="Trazado 165402" d="M6857.711,4406.7l-21.2-.353.646,30.149,21.178-.454Z" transform="translate(-6836.516 -4406.35)" fill="#ececec"/>
          </g>
        </g>
        <g id="Grupo_124699" data-name="Grupo 124699" transform="translate(7.491 8.567)">
          <g id="Grupo_124698" data-name="Grupo 124698">
            <path id="Trazado_165403" data-name="Trazado 165403" d="M6837.163,4436.5l20.846-15.942-21.492-14.207Z" transform="translate(-6836.516 -4406.35)" fill="#f5f5f5"/>
          </g>
        </g>
      </g>
      <g id="Grupo_124707" data-name="Grupo 124707" transform="translate(167.747 165.243)">
        <g id="Grupo_124701" data-name="Grupo 124701" transform="translate(0 11.685)">
          <path id="Trazado_165404" data-name="Trazado 165404" d="M6814.056,4728.918c-.155.466,5.289,21.157,5.289,21.157l3.733-.778-5.133-20.379Z" transform="translate(-6814.052 -4728.918)" fill="#ececec"/>
        </g>
        <g id="Grupo_124702" data-name="Grupo 124702" transform="translate(21.471 8.729)">
          <path id="Trazado_165405" data-name="Trazado 165405" d="M6862.115,4723.33l-7.467,24.112H6859l7.156-22.4Z" transform="translate(-6854.648 -4723.33)" fill="#f5f5f5"/>
        </g>
        <g id="Grupo_124703" data-name="Grupo 124703" transform="translate(27.227 4.996)">
          <path id="Trazado_165406" data-name="Trazado 165406" d="M6874.087,4716.271l-8.556,27.846h4.355l8.245-26.134Z" transform="translate(-6865.531 -4716.271)" fill="#ececec"/>
        </g>
        <g id="Grupo_124704" data-name="Grupo 124704" transform="translate(2.648 31.13)">
          <path id="Trazado_165407" data-name="Trazado 165407" d="M6819.058,4765.685l4.356,15.089h21.934l4.045-15.089Z" transform="translate(-6819.058 -4765.685)" fill="#e1e1e1"/>
        </g>
        <g id="Grupo_124706" data-name="Grupo 124706" transform="translate(3.067)">
          <g id="Grupo_124705" data-name="Grupo 124705">
            <path id="Trazado_165408" data-name="Trazado 165408" d="M6830.747,4737.956a.734.734,0,0,1-.048-.155l-.117-.461c-.1-.425-.241-1.021-.42-1.782-.359-1.57-.873-3.814-1.508-6.59-1.254-5.6-2.987-13.336-4.922-21.974l.134.107h-3.84l.133-.168c1.948,8.646,3.691,16.391,4.954,21.994.614,2.784,1.11,5.034,1.458,6.609l.381,1.792.093.467a.666.666,0,0,1,.022.161.816.816,0,0,1-.048-.155c-.031-.118-.069-.271-.118-.461-.1-.425-.248-1.021-.431-1.782-.367-1.569-.893-3.813-1.541-6.589l-5.037-21.975-.039-.167h4.124l.024.107c1.9,8.646,3.606,16.39,4.84,21.993.6,2.784,1.083,5.034,1.423,6.609.159.765.284,1.366.373,1.792l.091.467A.841.841,0,0,1,6830.747,4737.956Z" transform="translate(-6819.852 -4706.825)" fill="#e1e1e1"/>
          </g>
        </g>
      </g>
      <g id="Grupo_124709" data-name="Grupo 124709" transform="translate(-21.155 211.956)">
        <g id="Grupo_124708" data-name="Grupo 124708">
          <path id="Trazado_165409" data-name="Trazado 165409" d="M6681.186,4795.285c0,.076-50.215.137-112.145.137-61.95,0-112.154-.061-112.154-.137s50.2-.139,112.154-.139C6630.97,4795.146,6681.186,4795.209,6681.186,4795.285Z" transform="translate(-6456.887 -4795.146)" fill="#1a2e35"/>
        </g>
      </g>
      <g id="Grupo_124726" data-name="Grupo 124726" transform="translate(153.423 67.531)">
        <g id="Grupo_124711" data-name="Grupo 124711">
          <g id="Grupo_124710" data-name="Grupo 124710">
            <path id="Trazado_165410" data-name="Trazado 165410" d="M6822.251,4522.282a2.067,2.067,0,0,0-.375-.114,2.6,2.6,0,0,0-1.147.017,4.135,4.135,0,0,0-1.667.856,8.822,8.822,0,0,0-1.693,1.973,35.494,35.494,0,0,0-2.931,6.631,97.413,97.413,0,0,0-2.982,9.324l0,.013,0,.007a2.721,2.721,0,0,1-.616.763,1.219,1.219,0,0,1-.962.307,1.779,1.779,0,0,1-.885-.511c-.247-.229-.479-.473-.712-.718a16.311,16.311,0,0,0-1.466-1.431,2.705,2.705,0,0,0-1.854-.757,2.507,2.507,0,0,0-1.7,1.132,4.262,4.262,0,0,0-.585,2.1,21.148,21.148,0,0,0,.612,4.623q.442,2.373.905,4.859.231,1.242.468,2.513.118.636.237,1.277a1.657,1.657,0,0,1-.151,1.354.667.667,0,0,1-.706.24,1.772,1.772,0,0,1-.625-.326l-1.073-.8a24.289,24.289,0,0,0-2.241-1.509,8.545,8.545,0,0,0-2.506-1.043,2.946,2.946,0,0,0-1.334.008,1.971,1.971,0,0,0-1.086.73,4.487,4.487,0,0,0-.712,2.643,14.772,14.772,0,0,0,.277,2.867,36.575,36.575,0,0,0,1.612,5.7,7.512,7.512,0,0,1,.462,1.471,1.069,1.069,0,0,1-.2.816,1.018,1.018,0,0,1-.153.154.524.524,0,0,1-.206.121.63.63,0,0,1-.461-.1,7.913,7.913,0,0,1-1.223-.973l-1.133-1.051a16.816,16.816,0,0,0-2.405-1.937,5.079,5.079,0,0,0-1.388-.631,1.721,1.721,0,0,0-1.413.176,2.044,2.044,0,0,0-.8,1.225,6.207,6.207,0,0,0-.189,1.547,13.1,13.1,0,0,0,.4,3.159,27.477,27.477,0,0,0,2.3,6.079,46.206,46.206,0,0,0,3.423,5.687,32.622,32.622,0,0,0,2.062,2.66l2.146,2.631.025.031-.126-.049,3.362-.489a30.776,30.776,0,0,0,3.316-.571,46.092,46.092,0,0,0,6.362-1.908,27.543,27.543,0,0,0,5.79-2.956,13.046,13.046,0,0,0,2.421-2.07,6.279,6.279,0,0,0,.9-1.272,2.057,2.057,0,0,0,.233-1.445,1.722,1.722,0,0,0-.928-1.083,5.032,5.032,0,0,0-1.451-.465,16.739,16.739,0,0,0-3.084-.184l-1.546.015a7.872,7.872,0,0,1-1.56-.1.632.632,0,0,1-.409-.235.515.515,0,0,1-.07-.228,1.008,1.008,0,0,1-.01-.217,1.079,1.079,0,0,1,.4-.736,7.664,7.664,0,0,1,1.332-.777,36.56,36.56,0,0,0,5.028-3.137,14.851,14.851,0,0,0,2.132-1.937,4.483,4.483,0,0,0,1.249-2.436,1.983,1.983,0,0,0-.316-1.271,2.947,2.947,0,0,0-.983-.9,8.544,8.544,0,0,0-2.558-.912,23.927,23.927,0,0,0-2.673-.389l-1.336-.127a1.764,1.764,0,0,1-.682-.181.667.667,0,0,1-.355-.656,1.666,1.666,0,0,1,.8-1.1l1.035-.786,2.037-1.546,3.937-2.988a21.087,21.087,0,0,0,3.561-3.011,4.257,4.257,0,0,0,.978-1.949,2.5,2.5,0,0,0-.5-1.979,1.817,1.817,0,0,0-.866-.516,4.14,4.14,0,0,0-1.016-.167,16.354,16.354,0,0,0-2.045.073c-.338.025-.674.049-1.01.053a1.78,1.78,0,0,1-1-.217,1.224,1.224,0,0,1-.5-.875,2.755,2.755,0,0,1,.057-.979l0-.008.006-.011a97.154,97.154,0,0,0,4.056-8.892,36.489,36.489,0,0,0,2.3-6.863,8.947,8.947,0,0,0,.1-2.592,4.2,4.2,0,0,0-.615-1.768,2.525,2.525,0,0,0-.819-.8,1.875,1.875,0,0,0-.352-.171,1.389,1.389,0,0,1,.363.151,2.492,2.492,0,0,1,.846.793,4.2,4.2,0,0,1,.645,1.784,8.927,8.927,0,0,1-.084,2.617,36.059,36.059,0,0,1-2.266,6.9,95.674,95.674,0,0,1-4.03,8.924l.008-.019a2.552,2.552,0,0,0-.05.912,1.049,1.049,0,0,0,.432.755,1.622,1.622,0,0,0,.9.186c.328,0,.661-.03,1-.056a16.6,16.6,0,0,1,2.07-.08,4.382,4.382,0,0,1,1.061.173,2.006,2.006,0,0,1,.951.567,2.688,2.688,0,0,1,.552,2.139,4.449,4.449,0,0,1-1.015,2.044,21.273,21.273,0,0,1-3.592,3.055q-1.918,1.46-3.928,2.993l-2.032,1.547-1.033.787a2.451,2.451,0,0,0-.47.414,1.056,1.056,0,0,0-.243.529.429.429,0,0,0,.241.434,1.55,1.55,0,0,0,.595.153l1.331.124a24.253,24.253,0,0,1,2.7.39,8.767,8.767,0,0,1,2.633.938,3.185,3.185,0,0,1,1.063.978,2.218,2.218,0,0,1,.356,1.421,4.7,4.7,0,0,1-1.306,2.583,15.067,15.067,0,0,1-2.166,1.973,36.857,36.857,0,0,1-5.061,3.164,7.426,7.426,0,0,0-1.279.744.815.815,0,0,0-.317.557.77.77,0,0,0,.008.164c.006.042.021.142.038.133a.445.445,0,0,0,.246.114,7.8,7.8,0,0,0,1.5.093l1.544-.017a17.089,17.089,0,0,1,3.134.186,5.284,5.284,0,0,1,1.53.493,1.987,1.987,0,0,1,1.061,1.252,2.317,2.317,0,0,1-.252,1.63,6.5,6.5,0,0,1-.941,1.331,13.376,13.376,0,0,1-2.467,2.115,27.739,27.739,0,0,1-5.847,2.987,46.045,46.045,0,0,1-6.4,1.921,31.1,31.1,0,0,1-3.33.575l-3.367.49-.077.012-.049-.061-.025-.03-2.15-2.636a32.458,32.458,0,0,1-2.068-2.67,46.158,46.158,0,0,1-3.444-5.724,27.741,27.741,0,0,1-2.316-6.14,13.317,13.317,0,0,1-.4-3.224,6.466,6.466,0,0,1,.2-1.617,2.316,2.316,0,0,1,.91-1.375,1.989,1.989,0,0,1,1.626-.211,5.3,5.3,0,0,1,1.465.665,17.022,17.022,0,0,1,2.443,1.969l1.131,1.049a7.773,7.773,0,0,0,1.171.939.462.462,0,0,0,.259.082c.006.017.084-.046.117-.073a.7.7,0,0,0,.116-.116.814.814,0,0,0,.141-.625,7.456,7.456,0,0,0-.447-1.41,36.906,36.906,0,0,1-1.618-5.743,15.1,15.1,0,0,1-.277-2.917,4.709,4.709,0,0,1,.768-2.789,2.226,2.226,0,0,1,1.217-.814,3.2,3.2,0,0,1,1.445-.01,8.738,8.738,0,0,1,2.58,1.075,24.283,24.283,0,0,1,2.261,1.527q.537.4,1.069.8a1.568,1.568,0,0,0,.542.29.429.429,0,0,0,.471-.156,1.036,1.036,0,0,0,.178-.553,2.37,2.37,0,0,0-.069-.622q-.117-.642-.235-1.276-.235-1.269-.463-2.513l-.895-4.857a21.291,21.291,0,0,1-.606-4.676,4.459,4.459,0,0,1,.622-2.2,2.688,2.688,0,0,1,1.846-1.214,2.006,2.006,0,0,1,1.085.218,4.367,4.367,0,0,1,.9.585,16.582,16.582,0,0,1,1.479,1.45c.232.246.461.488.7.712a1.624,1.624,0,0,0,.793.47,1.048,1.048,0,0,0,.827-.268,2.565,2.565,0,0,0,.577-.709l-.007.019a95.993,95.993,0,0,1,3.023-9.331,35.123,35.123,0,0,1,2.978-6.636,8.845,8.845,0,0,1,1.724-1.976,4.162,4.162,0,0,1,1.7-.848,2.563,2.563,0,0,1,1.162.006A1.482,1.482,0,0,1,6822.251,4522.282Z" transform="translate(-6786.969 -4522.076)" fill="#a7e446"/>
          </g>
        </g>
        <g id="Grupo_124713" data-name="Grupo 124713" transform="translate(7.374 7.401)">
          <g id="Grupo_124712" data-name="Grupo 124712">
            <path id="Trazado_165411" data-name="Trazado 165411" d="M6826.045,4536.07a.927.927,0,0,1-.054.173l-.182.5c-.173.451-.416,1.089-.727,1.9-.642,1.666-1.559,4.048-2.691,6.985-2.252,5.921-5.356,14.074-8.784,23.079-3.418,9.021-6.545,17.175-8.861,23.056-1.158,2.941-2.1,5.317-2.773,6.953-.331.8-.59,1.436-.773,1.882l-.208.487a.883.883,0,0,1-.079.162.929.929,0,0,1,.053-.173c.047-.125.106-.29.182-.5.172-.451.416-1.089.726-1.9.642-1.666,1.56-4.047,2.691-6.984,2.254-5.92,5.358-14.074,8.787-23.083s6.543-17.171,8.86-23.052c1.157-2.941,2.1-5.317,2.773-6.954.331-.8.59-1.436.773-1.882l.208-.487A.878.878,0,0,1,6826.045,4536.07Z" transform="translate(-6800.912 -4536.07)" fill="#a7e446"/>
          </g>
        </g>
        <g id="Grupo_124715" data-name="Grupo 124715" transform="translate(23.545 25.649)">
          <g id="Grupo_124714" data-name="Grupo 124714">
            <path id="Trazado_165412" data-name="Trazado 165412" d="M6840.734,4570.575a9.324,9.324,0,0,1-1.323.786l-3.239,1.8c-1.266.7-2.42,1.332-3.271,1.758a7.04,7.04,0,0,1-1.414.616,10.926,10.926,0,0,1,1.322-.787l3.228-1.826c1.267-.7,2.429-1.317,3.283-1.735A7.908,7.908,0,0,1,6840.734,4570.575Z" transform="translate(-6831.487 -4570.572)" fill="#a7e446"/>
          </g>
        </g>
        <g id="Grupo_124717" data-name="Grupo 124717" transform="translate(17.743 19.45)">
          <g id="Grupo_124716" data-name="Grupo 124716">
            <path id="Trazado_165413" data-name="Trazado 165413" d="M6825.891,4569.694c-.068.034-1.326-2.366-2.809-5.36s-2.63-5.449-2.562-5.483,1.325,2.367,2.809,5.361S6825.959,4569.661,6825.891,4569.694Z" transform="translate(-6820.517 -4558.851)" fill="#a7e446"/>
          </g>
        </g>
        <g id="Grupo_124719" data-name="Grupo 124719" transform="translate(11.578 36.209)">
          <g id="Grupo_124718" data-name="Grupo 124718">
            <path id="Trazado_165414" data-name="Trazado 165414" d="M6815.775,4598.71a8.062,8.062,0,0,1-1.163-1.06c-.686-.687-1.608-1.664-2.564-2.8s-1.771-2.2-2.334-2.992a7.914,7.914,0,0,1-.852-1.323,9.984,9.984,0,0,1,1.007,1.206c.6.76,1.434,1.805,2.389,2.931s1.846,2.122,2.494,2.842A9.912,9.912,0,0,1,6815.775,4598.71Z" transform="translate(-6808.86 -4590.538)" fill="#a7e446"/>
          </g>
        </g>
        <g id="Grupo_124721" data-name="Grupo 124721" transform="translate(18.502 42.1)">
          <g id="Grupo_124720" data-name="Grupo 124720">
            <path id="Trazado_165415" data-name="Trazado 165415" d="M6831.618,4601.685a7.6,7.6,0,0,1-1.395.408c-.87.218-2.074.5-3.408.8s-2.547.547-3.427.717a.728.728,0,1,1-.042-.19c.87-.217,2.074-.5,3.41-.8s2.545-.548,3.425-.717A7.642,7.642,0,0,1,6831.618,4601.685Z" transform="translate(-6821.953 -4601.677)" fill="#a7e446"/>
          </g>
        </g>
        <g id="Grupo_124723" data-name="Grupo 124723" transform="translate(13.251 55.056)">
          <g id="Grupo_124722" data-name="Grupo 124722">
            <path id="Trazado_165416" data-name="Trazado 165416" d="M6824.437,4626.181a12.47,12.47,0,0,1-1.8.48c-1.119.262-2.667.6-4.381.967s-3.269.676-4.4.889a12.336,12.336,0,0,1-1.838.289,12.562,12.562,0,0,1,1.8-.479c1.118-.262,2.667-.6,4.381-.968s3.269-.674,4.4-.888A12.428,12.428,0,0,1,6824.437,4626.181Z" transform="translate(-6812.023 -4626.174)" fill="#a7e446"/>
          </g>
        </g>
        <g id="Grupo_124725" data-name="Grupo 124725" transform="translate(5.041 46.937)">
          <g id="Grupo_124724" data-name="Grupo 124724">
            <path id="Trazado_165417" data-name="Trazado 165417" d="M6804.989,4621.427a2,2,0,0,1-.4-.361c-.244-.244-.585-.607-1-1.06-.83-.91-1.948-2.192-3.121-3.661s-2.184-2.838-2.888-3.847c-.353-.5-.63-.918-.815-1.208a2.051,2.051,0,0,1-.265-.467,1.993,1.993,0,0,1,.353.405l.886,1.156c.743.978,1.772,2.327,2.946,3.79s2.261,2.763,3.052,3.7A15.713,15.713,0,0,1,6804.989,4621.427Z" transform="translate(-6796.5 -4610.822)" fill="#a7e446"/>
          </g>
        </g>
      </g>
      <g id="Grupo_124744" data-name="Grupo 124744" transform="translate(151.95 96.295)">
        <g id="Grupo_124728" data-name="Grupo 124728">
          <g id="Grupo_124727" data-name="Grupo 124727">
            <path id="Trazado_165418" data-name="Trazado 165418" d="M6793.9,4640.667c-9.184-7.4-10.515-20.06-9.361-31.278.192-1.873.122-3.866,1.127-5.452s3.167-2.568,4.793-1.661c1.349.75,1.845,2.414,2.533,3.809a11.013,11.013,0,0,0,4.113,4.506,4.192,4.192,0,0,0,3.83.613c1.68-.782,2.025-3.006,2.141-4.874q.324-5.221.651-10.442a17.438,17.438,0,0,1,.943-5.506,5.805,5.805,0,0,1,3.908-3.666,3.52,3.52,0,0,1,4.185,2.652,17.258,17.258,0,0,1-.106,2.328,1.97,1.97,0,0,0,1.022,1.927,2.264,2.264,0,0,0,2.109-.716,24.892,24.892,0,0,0,4.917-6.422,34.538,34.538,0,0,1,4.633-6.658,10.119,10.119,0,0,1,7.1-3.367c2.686.032,5.42,1.877,5.916,4.548s-1.222,5.244-3.039,7.26a41.781,41.781,0,0,1-9.243,7.674,3.441,3.441,0,0,0-1.559,1.461c-.49,1.216.6,2.534,1.8,3.027a21.657,21.657,0,0,0,4.323.789c1.444.271,2.977,1.021,3.433,2.435.634,1.96-1.1,3.851-2.759,5.053a35.776,35.776,0,0,1-10.982,5.374,12.082,12.082,0,0,0-4.058,1.638,3.465,3.465,0,0,0-1.378,3.882,3.526,3.526,0,0,0,3.725,1.732,24.885,24.885,0,0,0,4.2-1.283c2.632-.792,5.933-.388,7.424,1.941a5.924,5.924,0,0,1,.27,5.268,13.65,13.65,0,0,1-3.146,4.419,35.985,35.985,0,0,1-16.066,9.719c-6.092,1.656-11.645,1.836-17.411-.733" transform="translate(-6784.185 -4576.461)" fill="#feca2e"/>
          </g>
        </g>
        <g id="Grupo_124731" data-name="Grupo 124731" transform="translate(8.993 1.803)">
          <g id="Grupo_124730" data-name="Grupo 124730">
            <g id="Grupo_124729" data-name="Grupo 124729">
              <path id="Trazado_165419" data-name="Trazado 165419" d="M6801.188,4650.6a82.1,82.1,0,0,1,4.106-15.177,167.425,167.425,0,0,1,7.875-17.554l2.3-4.5c.758-1.473,1.51-2.935,2.334-4.319a83.885,83.885,0,0,1,5.19-7.681c1.77-2.364,3.534-4.542,5.2-6.566s3.262-3.877,4.786-5.506a66.415,66.415,0,0,1,7.753-7.145c.978-.77,1.756-1.341,2.289-1.721l.608-.429a1.329,1.329,0,0,1,.214-.135,1.475,1.475,0,0,1-.193.165l-.589.456c-.519.4-1.283.987-2.247,1.771a70.256,70.256,0,0,0-7.658,7.207c-1.508,1.635-3.086,3.495-4.744,5.522s-3.408,4.212-5.167,6.575a84.734,84.734,0,0,0-5.153,7.663c-.817,1.377-1.562,2.827-2.321,4.3l-2.3,4.494a171.869,171.869,0,0,0-7.885,17.507,83.626,83.626,0,0,0-4.163,15.1" transform="translate(-6801.188 -4579.871)" fill="#d39c11"/>
            </g>
          </g>
        </g>
        <g id="Grupo_124734" data-name="Grupo 124734" transform="translate(24.382 10.256)">
          <g id="Grupo_124733" data-name="Grupo 124733">
            <g id="Grupo_124732" data-name="Grupo 124732">
              <path id="Trazado_165420" data-name="Trazado 165420" d="M6831.612,4616.578a3.684,3.684,0,0,1-.128-.809c-.062-.522-.128-1.281-.2-2.22-.137-1.877-.237-4.475-.336-7.34s-.235-5.456-.4-7.326c-.08-.935-.152-1.692-.208-2.213a3.672,3.672,0,0,1-.049-.817,3.761,3.761,0,0,1,.181.8c.1.518.207,1.272.317,2.207.228,1.87.4,4.468.5,7.337.091,2.828.173,5.385.236,7.34.033.883.063,1.627.086,2.224A3.822,3.822,0,0,1,6831.612,4616.578Z" transform="translate(-6830.285 -4595.853)" fill="#d39c11"/>
            </g>
          </g>
        </g>
        <g id="Grupo_124737" data-name="Grupo 124737" transform="translate(25.709 28.016)">
          <g id="Grupo_124736" data-name="Grupo 124736">
            <g id="Grupo_124735" data-name="Grupo 124735">
              <path id="Trazado_165421" data-name="Trazado 165421" d="M6857.1,4629.558a5.156,5.156,0,0,1-.965.049c-.62.013-1.517.026-2.624.078-2.214.086-5.27.313-8.628.71s-6.385.9-8.563,1.32c-1.091.2-1.968.39-2.577.516a.485.485,0,1,1-.03-.132c.6-.167,1.472-.392,2.56-.626,2.172-.484,5.2-1.019,8.57-1.423a84.71,84.71,0,0,1,8.663-.611c1.111-.021,2.01,0,2.632.033A5.144,5.144,0,0,1,6857.1,4629.558Z" transform="translate(-6832.793 -4629.431)" fill="#d39c11"/>
            </g>
          </g>
        </g>
        <g id="Grupo_124740" data-name="Grupo 124740" transform="translate(3.44 25.452)">
          <g id="Grupo_124739" data-name="Grupo 124739">
            <g id="Grupo_124738" data-name="Grupo 124738">
              <path id="Trazado_165422" data-name="Trazado 165422" d="M6800.673,4656.067a1.222,1.222,0,0,1-.144-.3l-.352-.9c-.3-.778-.708-1.919-1.19-3.333-.97-2.829-2.186-6.779-3.469-11.156s-2.461-8.334-3.369-11.179c-.447-1.383-.814-2.521-1.087-3.367-.116-.367-.212-.67-.291-.918a1.2,1.2,0,0,1-.079-.329,1.269,1.269,0,0,1,.144.305c.095.242.211.538.351.9.3.78.708,1.919,1.192,3.334.969,2.829,2.185,6.779,3.469,11.157s2.461,8.333,3.37,11.179c.447,1.382.813,2.521,1.086,3.366l.291.917A1.27,1.27,0,0,1,6800.673,4656.067Z" transform="translate(-6790.69 -4624.583)" fill="#d39c11"/>
            </g>
          </g>
        </g>
        <g id="Grupo_124743" data-name="Grupo 124743" transform="translate(13.424 48.84)">
          <g id="Grupo_124742" data-name="Grupo 124742">
            <g id="Grupo_124741" data-name="Grupo 124741">
              <path id="Trazado_165423" data-name="Trazado 165423" d="M6842.166,4668.809a1.293,1.293,0,0,1-.325.108l-.948.247-3.491.873c-2.948.738-7.008,1.8-11.492,2.986s-8.56,2.213-11.524,2.89c-1.482.338-2.683.6-3.518.764l-.961.184a1.253,1.253,0,0,1-.34.04,1.356,1.356,0,0,1,.325-.109l.948-.246,3.49-.873c2.948-.737,7.009-1.8,11.494-2.986s8.557-2.212,11.521-2.889c1.482-.339,2.684-.6,3.518-.765l.962-.183A1.227,1.227,0,0,1,6842.166,4668.809Z" transform="translate(-6809.566 -4668.804)" fill="#d39c11"/>
            </g>
          </g>
        </g>
      </g>
      <g id="Grupo_124803" data-name="Grupo 124803" transform="translate(35.539 0.552)">
        <g id="Grupo_124745" data-name="Grupo 124745" transform="translate(0 13.948)">
          <rect id="Rectángulo_41340" data-name="Rectángulo 41340" width="128.26" height="175.753" fill="#375a64"/>
        </g>
        <g id="Grupo_124746" data-name="Grupo 124746" transform="translate(10.68 21.052)">
          <path id="Trazado_165424" data-name="Trazado 165424" d="M6696.783,4593.436h-112.51v-158.2h112.51v158.2Z" transform="translate(-6584.273 -4435.24)" fill="#e1e1e1"/>
        </g>
        <g id="Grupo_124747" data-name="Grupo 124747" transform="translate(9.916 18.96)">
          <path id="Trazado_165425" data-name="Trazado 165425" d="M6694.326,4588.638h-111.5V4431.284h111.5v157.354Z" transform="translate(-6582.83 -4431.284)" fill="#ececec"/>
        </g>
        <g id="Grupo_124751" data-name="Grupo 124751" transform="translate(7.697 19.221)">
          <g id="Grupo_124748" data-name="Grupo 124748" transform="translate(0.138 0.138)">
            <path id="Trazado_165426" data-name="Trazado 165426" d="M6680.491,4576.748l-12.841,10.457h-88.756V4432.039H6691.4V4567.9Z" transform="translate(-6578.894 -4432.039)" fill="#fafafa"/>
          </g>
          <g id="Grupo_124750" data-name="Grupo 124750">
            <g id="Grupo_124749" data-name="Grupo 124749">
              <path id="Trazado_165427" data-name="Trazado 165427" d="M6680.368,4576.625s.228-.194.686-.57l2.057-1.682,8.143-6.628-.015.034c-.014-22.317-.043-71.907-.082-135.862l.125.125-111.528.013h-.982l.138-.138c-.011,58.334-.02,112.149-.027,155.166l-.111-.11,88.755.063-.03.01,9.645-7.822,2.417-1.953c.538-.433.811-.645.811-.645s-.262.225-.8.664l-2.4,1.972q-3.21,2.621-9.615,7.858l-.013.01h-.017l-88.755.064h-.11v-.111c-.007-43.016-.017-96.831-.027-155.166v-.138h1.12l111.528.014h.125v.124c-.039,63.956-.067,113.545-.081,135.862v.021l-.017.013-8.169,6.6-2.072,1.665C6680.605,4576.443,6680.368,4576.625,6680.368,4576.625Z" transform="translate(-6578.633 -4431.778)" fill="#1a2e35"/>
            </g>
          </g>
        </g>
        <g id="Grupo_124752" data-name="Grupo 124752" transform="translate(41.106 8.515)">
          <path id="Rectángulo_41341" data-name="Rectángulo 41341" d="M14.757,0H31.893A14.154,14.154,0,0,1,46.047,14.154v1.631a0,0,0,0,1,0,0H0a0,0,0,0,1,0,0V14.757A14.757,14.757,0,0,1,14.757,0Z" fill="#fc4b52"/>
        </g>
        <g id="Grupo_124753" data-name="Grupo 124753" transform="translate(50.701)">
          <path id="Trazado_165428" data-name="Trazado 165428" d="M6661.626,4403.951l-1.684-8.515h26.514l-1.473,8.515Z" transform="translate(-6659.943 -4395.437)" fill="#ff4f5b"/>
        </g>
        <g id="Grupo_124763" data-name="Grupo 124763" transform="translate(19.603 44.079)">
          <g id="Grupo_124754" data-name="Grupo 124754">
            <path id="Trazado_165429" data-name="Trazado 165429" d="M6620.1,4497.734h-18.955v-18.956H6620.1Zm-18.426-.53h17.9v-17.9h-17.9Z" transform="translate(-6601.144 -4478.779)" fill="#feca2e"/>
          </g>
          <g id="Grupo_124756" data-name="Grupo 124756" transform="translate(27 4.44)">
            <g id="Grupo_124755" data-name="Grupo 124755">
              <path id="Trazado_165430" data-name="Trazado 165430" d="M6711.129,4487.311c0,.076-13.194.138-29.465.138s-29.47-.062-29.47-.138,13.192-.138,29.47-.138S6711.129,4487.234,6711.129,4487.311Z" transform="translate(-6652.194 -4487.173)" fill="#1a2e35"/>
            </g>
          </g>
          <g id="Grupo_124758" data-name="Grupo 124758" transform="translate(27 8.379)">
            <g id="Grupo_124757" data-name="Grupo 124757">
              <path id="Trazado_165431" data-name="Trazado 165431" d="M6711.129,4494.758c0,.076-13.194.138-29.465.138s-29.47-.062-29.47-.138,13.192-.137,29.47-.137S6711.129,4494.682,6711.129,4494.758Z" transform="translate(-6652.194 -4494.621)" fill="#1a2e35"/>
            </g>
          </g>
          <g id="Grupo_124760" data-name="Grupo 124760" transform="translate(27 12.317)">
            <g id="Grupo_124759" data-name="Grupo 124759">
              <path id="Trazado_165432" data-name="Trazado 165432" d="M6711.129,4502.205c0,.076-13.194.138-29.465.138s-29.47-.062-29.47-.138,13.192-.138,29.47-.138S6711.129,4502.13,6711.129,4502.205Z" transform="translate(-6652.194 -4502.067)" fill="#1a2e35"/>
            </g>
          </g>
          <g id="Grupo_124762" data-name="Grupo 124762" transform="translate(27 16.256)">
            <g id="Grupo_124761" data-name="Grupo 124761">
              <path id="Trazado_165433" data-name="Trazado 165433" d="M6711.129,4509.652c0,.076-13.194.138-29.465.138s-29.47-.062-29.47-.138,13.192-.137,29.47-.137S6711.129,4509.576,6711.129,4509.652Z" transform="translate(-6652.194 -4509.515)" fill="#1a2e35"/>
            </g>
          </g>
        </g>
        <g id="Grupo_124774" data-name="Grupo 124774" transform="translate(19.603 73.292)">
          <g id="Grupo_124764" data-name="Grupo 124764">
            <path id="Trazado_165434" data-name="Trazado 165434" d="M6620.1,4552.967h-18.955v-18.955H6620.1Zm-18.426-.529h17.9v-17.9h-17.9Z" transform="translate(-6601.144 -4534.013)" fill="#a7e446"/>
          </g>
          <g id="Grupo_124765" data-name="Grupo 124765" transform="translate(3.769 1.2)">
            <path id="Trazado_165435" data-name="Trazado 165435" d="M6608.271,4544.949l2.516-2.7,4.194,3.355,9.6-9.319,2.3,2.71-12.085,11.922Z" transform="translate(-6608.271 -4536.282)" fill="#a7e446"/>
          </g>
          <g id="Grupo_124767" data-name="Grupo 124767" transform="translate(27 4.44)">
            <g id="Grupo_124766" data-name="Grupo 124766">
              <path id="Trazado_165436" data-name="Trazado 165436" d="M6711.129,4542.544c0,.077-13.194.139-29.465.139s-29.47-.062-29.47-.139,13.192-.137,29.47-.137S6711.129,4542.468,6711.129,4542.544Z" transform="translate(-6652.194 -4542.407)" fill="#1a2e35"/>
            </g>
          </g>
          <g id="Grupo_124769" data-name="Grupo 124769" transform="translate(27 8.378)">
            <g id="Grupo_124768" data-name="Grupo 124768">
              <path id="Trazado_165437" data-name="Trazado 165437" d="M6711.129,4549.991c0,.076-13.194.138-29.465.138s-29.47-.062-29.47-.138,13.192-.138,29.47-.138S6711.129,4549.916,6711.129,4549.991Z" transform="translate(-6652.194 -4549.854)" fill="#1a2e35"/>
            </g>
          </g>
          <g id="Grupo_124771" data-name="Grupo 124771" transform="translate(27 12.317)">
            <g id="Grupo_124770" data-name="Grupo 124770">
              <path id="Trazado_165438" data-name="Trazado 165438" d="M6711.129,4557.438c0,.076-13.194.138-29.465.138s-29.47-.062-29.47-.138,13.192-.138,29.47-.138S6711.129,4557.362,6711.129,4557.438Z" transform="translate(-6652.194 -4557.3)" fill="#1a2e35"/>
            </g>
          </g>
          <g id="Grupo_124773" data-name="Grupo 124773" transform="translate(27 16.256)">
            <g id="Grupo_124772" data-name="Grupo 124772">
              <path id="Trazado_165439" data-name="Trazado 165439" d="M6711.129,4564.886c0,.077-13.194.138-29.465.138s-29.47-.061-29.47-.138,13.192-.137,29.47-.137S6711.129,4564.811,6711.129,4564.886Z" transform="translate(-6652.194 -4564.749)" fill="#1a2e35"/>
            </g>
          </g>
        </g>
        <g id="Grupo_124785" data-name="Grupo 124785" transform="translate(19.603 101.56)">
          <g id="Grupo_124775" data-name="Grupo 124775">
            <path id="Trazado_165440" data-name="Trazado 165440" d="M6620.1,4606.415h-18.955v-18.955H6620.1Zm-18.426-.528h17.9v-17.9h-17.9Z" transform="translate(-6601.144 -4587.459)" fill="#fc4b52"/>
          </g>
          <g id="Grupo_124776" data-name="Grupo 124776" transform="translate(3.769 1.201)">
            <path id="Trazado_165441" data-name="Trazado 165441" d="M6608.271,4598.4l2.516-2.7,4.194,3.355,9.6-9.319,2.3,2.71-12.085,11.921Z" transform="translate(-6608.271 -4589.73)" fill="#fc4b52"/>
          </g>
          <g id="Grupo_124778" data-name="Grupo 124778" transform="translate(27 4.44)">
            <g id="Grupo_124777" data-name="Grupo 124777">
              <path id="Trazado_165442" data-name="Trazado 165442" d="M6711.129,4595.992c0,.076-13.194.138-29.465.138s-29.47-.062-29.47-.138,13.192-.137,29.47-.137S6711.129,4595.916,6711.129,4595.992Z" transform="translate(-6652.194 -4595.855)" fill="#1a2e35"/>
            </g>
          </g>
          <g id="Grupo_124780" data-name="Grupo 124780" transform="translate(27 8.379)">
            <g id="Grupo_124779" data-name="Grupo 124779">
              <path id="Trazado_165443" data-name="Trazado 165443" d="M6711.129,4603.44c0,.076-13.194.138-29.465.138s-29.47-.062-29.47-.138,13.192-.138,29.47-.138S6711.129,4603.364,6711.129,4603.44Z" transform="translate(-6652.194 -4603.302)" fill="#1a2e35"/>
            </g>
          </g>
          <g id="Grupo_124782" data-name="Grupo 124782" transform="translate(27 12.317)">
            <g id="Grupo_124781" data-name="Grupo 124781">
              <path id="Trazado_165444" data-name="Trazado 165444" d="M6711.129,4610.887c0,.076-13.194.138-29.465.138s-29.47-.062-29.47-.138,13.192-.138,29.47-.138S6711.129,4610.811,6711.129,4610.887Z" transform="translate(-6652.194 -4610.749)" fill="#1a2e35"/>
            </g>
          </g>
          <g id="Grupo_124784" data-name="Grupo 124784" transform="translate(27 16.256)">
            <g id="Grupo_124783" data-name="Grupo 124783">
              <path id="Trazado_165445" data-name="Trazado 165445" d="M6711.129,4618.334c0,.076-13.194.138-29.465.138s-29.47-.062-29.47-.138,13.192-.138,29.47-.138S6711.129,4618.258,6711.129,4618.334Z" transform="translate(-6652.194 -4618.196)" fill="#1a2e35"/>
            </g>
          </g>
        </g>
        <g id="Grupo_124796" data-name="Grupo 124796" transform="translate(19.603 128.854)">
          <g id="Grupo_124786" data-name="Grupo 124786">
            <path id="Trazado_165446" data-name="Trazado 165446" d="M6620.1,4658.021h-18.955v-18.955H6620.1Zm-18.426-.529h17.9v-17.9h-17.9Z" transform="translate(-6601.144 -4639.065)" fill="#12263f"/>
          </g>
          <g id="Grupo_124787" data-name="Grupo 124787" transform="translate(3.769 1.2)">
            <path id="Trazado_165447" data-name="Trazado 165447" d="M6608.271,4650l2.516-2.7,4.194,3.355,9.6-9.319,2.3,2.71-12.085,11.921Z" transform="translate(-6608.271 -4641.335)" fill="#12263f"/>
          </g>
          <g id="Grupo_124789" data-name="Grupo 124789" transform="translate(27 4.44)">
            <g id="Grupo_124788" data-name="Grupo 124788">
              <path id="Trazado_165448" data-name="Trazado 165448" d="M6711.129,4647.6c0,.076-13.194.137-29.465.137s-29.47-.061-29.47-.137,13.192-.138,29.47-.138S6711.129,4647.522,6711.129,4647.6Z" transform="translate(-6652.194 -4647.46)" fill="#1a2e35"/>
            </g>
          </g>
          <g id="Grupo_124791" data-name="Grupo 124791" transform="translate(27 8.379)">
            <g id="Grupo_124790" data-name="Grupo 124790">
              <path id="Trazado_165449" data-name="Trazado 165449" d="M6711.129,4655.045c0,.076-13.194.138-29.465.138s-29.47-.062-29.47-.138,13.192-.137,29.47-.137S6711.129,4654.969,6711.129,4655.045Z" transform="translate(-6652.194 -4654.908)" fill="#1a2e35"/>
            </g>
          </g>
          <g id="Grupo_124793" data-name="Grupo 124793" transform="translate(27 12.317)">
            <g id="Grupo_124792" data-name="Grupo 124792">
              <path id="Trazado_165450" data-name="Trazado 165450" d="M6711.129,4662.492c0,.076-13.194.138-29.465.138s-29.47-.062-29.47-.138,13.192-.137,29.47-.137S6711.129,4662.417,6711.129,4662.492Z" transform="translate(-6652.194 -4662.355)" fill="#1a2e35"/>
            </g>
          </g>
          <g id="Grupo_124795" data-name="Grupo 124795" transform="translate(27 16.256)">
            <g id="Grupo_124794" data-name="Grupo 124794">
              <path id="Trazado_165451" data-name="Trazado 165451" d="M6711.129,4669.94c0,.076-13.194.138-29.465.138s-29.47-.062-29.47-.138,13.192-.138,29.47-.138S6711.129,4669.864,6711.129,4669.94Z" transform="translate(-6652.194 -4669.802)" fill="#1a2e35"/>
            </g>
          </g>
        </g>
        <g id="Grupo_124797" data-name="Grupo 124797" transform="translate(87.783 148.834)">
          <path id="Trazado_165452" data-name="Trazado 165452" d="M6742.391,4676.844l-12.335,25.545h8.807Z" transform="translate(-6730.056 -4676.844)" fill="#e1e1e1"/>
        </g>
        <g id="Grupo_124801" data-name="Grupo 124801" transform="translate(96.59 148.809)">
          <g id="Grupo_124798" data-name="Grupo 124798" transform="translate(0 0.169)">
            <path id="Trazado_165453" data-name="Trazado 165453" d="M6746.707,4702.662l3.528-25.546,20.227,6.243Z" transform="translate(-6746.707 -4677.116)" fill="#fafafa"/>
          </g>
          <g id="Grupo_124800" data-name="Grupo 124800">
            <g id="Grupo_124799" data-name="Grupo 124799">
              <path id="Trazado_165454" data-name="Trazado 165454" d="M6746.707,4702.512c.5-.409,2.68-2.207,6.8-5.6l16.868-13.81.045.233-7.809-2.407-12.417-3.84.167-.107c-1.057,7.42-1.962,13.777-2.606,18.3-.638,4.392-.967,6.66-1.05,7.233a1.008,1.008,0,0,1,.011-.113l.045-.354.181-1.392c.164-1.241.4-3.024.7-5.265.609-4.555,1.467-10.961,2.467-18.44l.021-.151.146.044,12.421,3.825,7.808,2.413.242.075-.2.158-17.073,13.771-4.985,4.006-1.33,1.066-.34.271C6746.743,4702.486,6746.705,4702.515,6746.707,4702.512Z" transform="translate(-6746.707 -4676.797)" fill="#1a2e35"/>
            </g>
          </g>
        </g>
        <g id="Grupo_124802" data-name="Grupo 124802" transform="translate(73.921)" opacity="0.3">
          <path id="Trazado_165455" data-name="Trazado 165455" d="M6705.307,4395.437l-1.461,8.515h1.82l1.473-8.515h-2.319" transform="translate(-6703.846 -4395.437)" fill="#c21d23"/>
        </g>
      </g>
      <g id="Grupo_125009" data-name="Grupo 125009" transform="translate(8.117 50.772)">
        <g id="Grupo_124818" data-name="Grupo 124818" transform="translate(12.948 4.251)">
          <g id="Grupo_124809" data-name="Grupo 124809" transform="translate(8.188 7.018)">
            <g id="Grupo_124808" data-name="Grupo 124808">
              <g id="Grupo_124807" data-name="Grupo 124807">
                <g id="Grupo_124806" data-name="Grupo 124806">
                  <g id="Grupo_124805" data-name="Grupo 124805">
                    <g id="Grupo_124804" data-name="Grupo 124804">
                      <path id="Trazado_165456" data-name="Trazado 165456" d="M6556.2,4540.015h0a4.757,4.757,0,0,0,5.118-4.561c.1-2.591.187-5.208.187-5.208s3.924-.367,4.209-4.251.154-12.85.154-12.85h0a13.531,13.531,0,0,0-13.677.879l.241,13.669v7.354C6552.462,4537.513,6553.745,4539.827,6556.2,4540.015Z" transform="translate(-6552.195 -4511.696)" fill="#ffbf9d"/>
                    </g>
                  </g>
                </g>
              </g>
            </g>
          </g>
          <g id="Grupo_124810" data-name="Grupo 124810" transform="translate(6.17 3.761)">
            <path id="Trazado_165457" data-name="Trazado 165457" d="M6560.049,4518.352a1.99,1.99,0,0,0-2.653-.58,2.257,2.257,0,0,0-.752,2.822,2.972,2.972,0,0,0,1.905,1.441,1.492,1.492,0,0,1,1.167,1.606,4.97,4.97,0,0,1-1.363,2.7,7.169,7.169,0,0,1-4.5,2.13c-1.654.2-3.549-.149-4.511-1.509a6.164,6.164,0,0,1-.776-3.494q-.089-4.3-.178-8.591a12.327,12.327,0,0,1,.2-3.083,4.133,4.133,0,0,1,1.626-2.548,12.671,12.671,0,0,1,3.217-1.023,26.7,26.7,0,0,0,3.746-1.971,4.6,4.6,0,0,1,4.065-.395c.907.455,1.515,1.36,2.4,1.862,1.256.714,2.965.551,3.576,2.4a3.138,3.138,0,0,1-.021,1.975,4.565,4.565,0,0,1-6.205,2.439,6.154,6.154,0,0,1-.073,2.717c-.143.43-.194,1.085-.866,1.1" transform="translate(-6548.38 -4505.538)" fill="#1a2e35"/>
          </g>
          <g id="Grupo_124811" data-name="Grupo 124811" transform="translate(0.525)">
            <path id="Trazado_165458" data-name="Trazado 165458" d="M6544.3,4507.006a13.231,13.231,0,0,0,1.249-3.9,4.471,4.471,0,0,0-1.225-3.77,3.675,3.675,0,0,0-2.561-.905,4.329,4.329,0,0,0-3.9,3.092,4.663,4.663,0,0,0,1.57,4.777,5.056,5.056,0,0,0,5.032.656" transform="translate(-6537.707 -4498.427)" fill="#1a2e35"/>
          </g>
          <g id="Grupo_124813" data-name="Grupo 124813" transform="translate(6.044 7.163)">
            <g id="Grupo_124812" data-name="Grupo 124812">
              <path id="Trazado_165459" data-name="Trazado 165459" d="M6549.982,4511.97a1.912,1.912,0,0,1-1.841,1.8c-.019-.078.569-.234,1.076-.74S6549.9,4511.95,6549.982,4511.97Z" transform="translate(-6548.141 -4511.969)" fill="#ff4f5b"/>
            </g>
          </g>
          <g id="Grupo_124815" data-name="Grupo 124815" transform="translate(2.185 4.58)">
            <g id="Grupo_124814" data-name="Grupo 124814">
              <path id="Trazado_165460" data-name="Trazado 165460" d="M6545.268,4510.619a3.681,3.681,0,0,1-1.055.771,3.048,3.048,0,0,1-1.39.394,1.932,1.932,0,0,1-1.621-.728,2.157,2.157,0,0,1-.288-1.756,3.411,3.411,0,0,1,.653-1.286,4.036,4.036,0,0,1,.919-.927,12.423,12.423,0,0,1-.762,1.041,3.5,3.5,0,0,0-.563,1.227,1.967,1.967,0,0,0,.262,1.539,1.717,1.717,0,0,0,1.4.636,3.052,3.052,0,0,0,1.3-.314C6544.834,4510.873,6545.242,4510.577,6545.268,4510.619Z" transform="translate(-6540.846 -4507.086)" fill="#1a2e35"/>
            </g>
          </g>
          <g id="Grupo_124817" data-name="Grupo 124817" transform="translate(0 8.568)">
            <g id="Grupo_124816" data-name="Grupo 124816">
              <path id="Trazado_165461" data-name="Trazado 165461" d="M6536.719,4518.557a1.721,1.721,0,0,1,.189.431,4.432,4.432,0,0,0,.572,1.106,1.606,1.606,0,0,0,1.521.7,2.087,2.087,0,0,0,1.463-1.474,15.238,15.238,0,0,0,.4-2.257,3.477,3.477,0,0,1,.741-1.779,1.912,1.912,0,0,1,1.131-.645.75.75,0,0,1,.475.04c0,.027-.172-.007-.455.065a1.923,1.923,0,0,0-1,.666,3.439,3.439,0,0,0-.639,1.694,13.562,13.562,0,0,1-.387,2.3,2.309,2.309,0,0,1-1.68,1.634,1.546,1.546,0,0,1-1.053-.2,2.188,2.188,0,0,1-.669-.63,3.824,3.824,0,0,1-.518-1.189A1.443,1.443,0,0,1,6536.719,4518.557Z" transform="translate(-6536.714 -4514.626)" fill="#1a2e35"/>
            </g>
          </g>
        </g>
        <g id="Grupo_124819" data-name="Grupo 124819" transform="translate(10.165 49.379)">
          <path id="Trazado_165462" data-name="Trazado 165462" d="M6532.332,4583.751s-1.98,14.5,0,16.341a4.138,4.138,0,0,0,3.885,1.228l3.77-3.152.742-14.417Z" transform="translate(-6531.452 -4583.751)" fill="#ffbf9d"/>
        </g>
        <g id="Grupo_124822" data-name="Grupo 124822" transform="translate(42.384)">
          <g id="Grupo_124820" data-name="Grupo 124820" transform="translate(9.626)">
            <path id="Trazado_165463" data-name="Trazado 165463" d="M6610.57,4499.057l2.516-2.7,4.194,3.354,9.6-9.32,2.3,2.711-12.085,11.921Z" transform="translate(-6610.57 -4490.389)" fill="#feca2e"/>
          </g>
          <g id="Grupo_124821" data-name="Grupo 124821" transform="translate(0 9.403)">
            <path id="Trazado_165464" data-name="Trazado 165464" d="M6613.821,4508.169l-3.65,2.342c-.166-1.443-1.267-2.873-1.209-2.148s.007,4.484.007,4.484l-6.508,13.693a6.486,6.486,0,0,1-4.016,3.855l-6.075,1.807,2.375,8.031,8.444-2.8a7.288,7.288,0,0,0,4.627-4.641l5.819-17.73a27.434,27.434,0,0,0,.94-3.493A6.659,6.659,0,0,0,6613.821,4508.169Z" transform="translate(-6592.371 -4508.169)" fill="#ffbf9d"/>
          </g>
        </g>
        <g id="Grupo_124894" data-name="Grupo 124894" transform="translate(26.196 155.111)">
          <g id="Grupo_124893" data-name="Grupo 124893">
            <g id="Grupo_124829" data-name="Grupo 124829" transform="translate(0.04)">
              <g id="Grupo_124825" data-name="Grupo 124825">
                <g id="Grupo_124824" data-name="Grupo 124824">
                  <g id="Grupo_124823" data-name="Grupo 124823">
                    <path id="Trazado_165465" data-name="Trazado 165465" d="M6569.537,4787.725l-.091-4.061-7.606.122.07,5.942.472.023c2.1.083,10.689.274,12.085-.174C6576.023,4789.078,6569.537,4787.725,6569.537,4787.725Z" transform="translate(-6561.839 -4783.665)" fill="#ff4f5b"/>
                  </g>
                </g>
              </g>
              <g id="Grupo_124828" data-name="Grupo 124828" transform="translate(0.043 3.818)" opacity="0.5">
                <g id="Grupo_124827" data-name="Grupo 124827">
                  <g id="Grupo_124826" data-name="Grupo 124826">
                    <path id="Trazado_165466" data-name="Trazado 165466" d="M6564.7,4793.026a2.639,2.639,0,0,0-1-1.607,2.568,2.568,0,0,0-1.787-.524l.032,2.126Z" transform="translate(-6561.921 -4790.884)" fill="#fff"/>
                  </g>
                </g>
              </g>
            </g>
            <g id="Grupo_124832" data-name="Grupo 124832" transform="translate(0.11 4.834)" opacity="0.4">
              <g id="Grupo_124831" data-name="Grupo 124831">
                <g id="Grupo_124830" data-name="Grupo 124830">
                  <path id="Trazado_165467" data-name="Trazado 165467" d="M6572.771,4792.8s2.275.617,2,.995-8.963.512-12.8.235l.009-.17,10.133-.07S6572.328,4792.83,6572.771,4792.8Z" transform="translate(-6561.971 -4792.805)" fill="#fff"/>
                </g>
              </g>
            </g>
            <g id="Grupo_124836" data-name="Grupo 124836" transform="translate(0 5.699)">
              <g id="Grupo_124835" data-name="Grupo 124835">
                <g id="Grupo_124834" data-name="Grupo 124834">
                  <g id="Grupo_124833" data-name="Grupo 124833">
                    <path id="Trazado_165468" data-name="Trazado 165468" d="M6561.763,4794.632a.694.694,0,0,0,.131.013l.375.016,1.384.038c1.168.025,2.784.036,4.567.011s3.4-.086,4.564-.144l1.381-.079.375-.028a.631.631,0,0,0,.131-.016.8.8,0,0,0-.132,0l-.376.01-1.382.05c-1.168.041-2.781.09-4.563.116s-3.4.024-4.565.017l-1.384-.009h-.376A.76.76,0,0,0,6561.763,4794.632Z" transform="translate(-6561.763 -4794.44)" fill="#1a2e35"/>
                  </g>
                </g>
              </g>
            </g>
            <g id="Grupo_124840" data-name="Grupo 124840" transform="translate(10.237 4.74)">
              <g id="Grupo_124839" data-name="Grupo 124839">
                <g id="Grupo_124838" data-name="Grupo 124838">
                  <g id="Grupo_124837" data-name="Grupo 124837">
                    <path id="Trazado_165469" data-name="Trazado 165469" d="M6581.133,4793.829a3.163,3.163,0,0,1,.249-.664,3.1,3.1,0,0,1,.462-.536,1.232,1.232,0,0,0-.711,1.2Z" transform="translate(-6581.118 -4792.626)" fill="#1a2e35"/>
                  </g>
                </g>
              </g>
            </g>
            <g id="Grupo_124844" data-name="Grupo 124844" transform="translate(7.986 4.198)">
              <g id="Grupo_124843" data-name="Grupo 124843">
                <g id="Grupo_124842" data-name="Grupo 124842">
                  <g id="Grupo_124841" data-name="Grupo 124841">
                    <path id="Trazado_165470" data-name="Trazado 165470" d="M6576.865,4792.243c.021.013.128-.119.236-.3s.178-.33.157-.343-.127.119-.235.3S6576.844,4792.229,6576.865,4792.243Z" transform="translate(-6576.861 -4791.602)" fill="#1a2e35"/>
                  </g>
                </g>
              </g>
            </g>
            <g id="Grupo_124848" data-name="Grupo 124848" transform="translate(7.366 4.085)">
              <g id="Grupo_124847" data-name="Grupo 124847">
                <g id="Grupo_124846" data-name="Grupo 124846">
                  <g id="Grupo_124845" data-name="Grupo 124845">
                    <path id="Trazado_165471" data-name="Trazado 165471" d="M6575.692,4791.826c.018.019.137-.064.266-.183s.22-.232.2-.25-.136.063-.265.183S6575.676,4791.808,6575.692,4791.826Z" transform="translate(-6575.69 -4791.39)" fill="#1a2e35"/>
                  </g>
                </g>
              </g>
            </g>
            <g id="Grupo_124852" data-name="Grupo 124852" transform="translate(6.968 3.762)">
              <g id="Grupo_124851" data-name="Grupo 124851">
                <g id="Grupo_124850" data-name="Grupo 124850">
                  <g id="Grupo_124849" data-name="Grupo 124849">
                    <path id="Trazado_165472" data-name="Trazado 165472" d="M6574.938,4790.825a.892.892,0,0,0,.4.045.876.876,0,0,0,.4-.048,1.733,1.733,0,0,0-.794,0Z" transform="translate(-6574.938 -4790.777)" fill="#1a2e35"/>
                  </g>
                </g>
              </g>
            </g>
            <g id="Grupo_124856" data-name="Grupo 124856" transform="translate(6.827 3.298)">
              <g id="Grupo_124855" data-name="Grupo 124855">
                <g id="Grupo_124854" data-name="Grupo 124854">
                  <g id="Grupo_124853" data-name="Grupo 124853">
                    <path id="Trazado_165473" data-name="Trazado 165473" d="M6574.671,4789.907a.765.765,0,0,0,.445.123.776.776,0,0,0,.457-.068,2.382,2.382,0,0,0-.451-.023A2.514,2.514,0,0,0,6574.671,4789.907Z" transform="translate(-6574.67 -4789.899)" fill="#1a2e35"/>
                  </g>
                </g>
              </g>
            </g>
            <g id="Grupo_124860" data-name="Grupo 124860" transform="translate(8.237 3.472)">
              <g id="Grupo_124859" data-name="Grupo 124859">
                <g id="Grupo_124858" data-name="Grupo 124858">
                  <g id="Grupo_124857" data-name="Grupo 124857">
                    <path id="Trazado_165474" data-name="Trazado 165474" d="M6577.337,4790.928a1.413,1.413,0,0,0,.489-.011,2.863,2.863,0,0,0,.519-.123,1.434,1.434,0,0,0,.3-.127.268.268,0,0,0,.118-.153.2.2,0,0,0-.077-.195.9.9,0,0,0-1.1.28.866.866,0,0,0-.155.328c-.019.084-.017.132-.011.133a1.353,1.353,0,0,1,.216-.421.89.89,0,0,1,.414-.277.757.757,0,0,1,.583.031c.078.057.049.148-.036.2a1.508,1.508,0,0,1-.273.122,3.482,3.482,0,0,1-.5.139C6577.524,4790.91,6577.337,4790.913,6577.337,4790.928Z" transform="translate(-6577.337 -4790.229)" fill="#1a2e35"/>
                  </g>
                </g>
              </g>
            </g>
            <g id="Grupo_124864" data-name="Grupo 124864" transform="translate(7.715 3.254)">
              <g id="Grupo_124863" data-name="Grupo 124863">
                <g id="Grupo_124862" data-name="Grupo 124862">
                  <g id="Grupo_124861" data-name="Grupo 124861">
                    <path id="Trazado_165475" data-name="Trazado 165475" d="M6577,4790.756a.487.487,0,0,0,.051-.34.812.812,0,0,0-.139-.355.492.492,0,0,0-.411-.243.194.194,0,0,0-.146.228.53.53,0,0,0,.086.217,1.5,1.5,0,0,0,.236.292.7.7,0,0,0,.283.193c.008-.012-.1-.086-.236-.239a1.644,1.644,0,0,1-.209-.291c-.069-.1-.118-.287,0-.311s.249.106.326.2a.815.815,0,0,1,.143.316A1.8,1.8,0,0,1,6577,4790.756Z" transform="translate(-6576.35 -4789.817)" fill="#1a2e35"/>
                  </g>
                </g>
              </g>
            </g>
            <g id="Grupo_124868" data-name="Grupo 124868" transform="translate(0.123 3.75)">
              <g id="Grupo_124867" data-name="Grupo 124867">
                <g id="Grupo_124866" data-name="Grupo 124866">
                  <g id="Grupo_124865" data-name="Grupo 124865">
                    <path id="Trazado_165476" data-name="Trazado 165476" d="M6562,4790.812c0,.017.217-.024.563.011a2.385,2.385,0,0,1,2.017,1.557c.121.325.136.543.153.541a.462.462,0,0,0,0-.153,1.961,1.961,0,0,0-.089-.41,2.312,2.312,0,0,0-2.073-1.6,1.962,1.962,0,0,0-.418.018A.447.447,0,0,0,6562,4790.812Z" transform="translate(-6561.996 -4790.754)" fill="#1a2e35"/>
                  </g>
                </g>
              </g>
            </g>
            <g id="Grupo_124872" data-name="Grupo 124872" transform="translate(0.821 0.629)">
              <g id="Grupo_124871" data-name="Grupo 124871">
                <g id="Grupo_124870" data-name="Grupo 124870">
                  <g id="Grupo_124869" data-name="Grupo 124869">
                    <path id="Trazado_165477" data-name="Trazado 165477" d="M6563.357,4784.855a26.364,26.364,0,1,0,.05,1.563A13.731,13.731,0,0,0,6563.357,4784.855Z" transform="translate(-6563.315 -4784.855)" fill="#1a2e35"/>
                  </g>
                </g>
              </g>
            </g>
            <g id="Grupo_124876" data-name="Grupo 124876" transform="translate(3.813 5.181)">
              <g id="Grupo_124875" data-name="Grupo 124875">
                <g id="Grupo_124874" data-name="Grupo 124874">
                  <g id="Grupo_124873" data-name="Grupo 124873">
                    <path id="Trazado_165478" data-name="Trazado 165478" d="M6568.973,4793.484a4.343,4.343,0,0,0,1.112.093,4.288,4.288,0,0,0,1.111-.106c0-.026-.5.011-1.111.014S6568.976,4793.457,6568.973,4793.484Z" transform="translate(-6568.973 -4793.461)" fill="#1a2e35"/>
                  </g>
                </g>
              </g>
            </g>
            <g id="Grupo_124880" data-name="Grupo 124880" transform="translate(2.319 5.221)">
              <g id="Grupo_124879" data-name="Grupo 124879">
                <g id="Grupo_124878" data-name="Grupo 124878">
                  <g id="Grupo_124877" data-name="Grupo 124877">
                    <path id="Trazado_165479" data-name="Trazado 165479" d="M6566.15,4793.54c-.018.019.043.1.095.218s.082.214.108.212.037-.121-.024-.251S6566.167,4793.521,6566.15,4793.54Z" transform="translate(-6566.147 -4793.537)" fill="#1a2e35"/>
                  </g>
                </g>
              </g>
            </g>
            <g id="Grupo_124884" data-name="Grupo 124884" transform="translate(1.746 4.53)">
              <g id="Grupo_124883" data-name="Grupo 124883">
                <g id="Grupo_124882" data-name="Grupo 124882">
                  <g id="Grupo_124881" data-name="Grupo 124881">
                    <path id="Trazado_165480" data-name="Trazado 165480" d="M6565.067,4792.233c-.018.018.032.1.112.175s.159.128.177.109-.032-.1-.112-.175S6565.085,4792.216,6565.067,4792.233Z" transform="translate(-6565.064 -4792.23)" fill="#1a2e35"/>
                  </g>
                </g>
              </g>
            </g>
            <g id="Grupo_124888" data-name="Grupo 124888" transform="translate(0.94 4.181)">
              <g id="Grupo_124887" data-name="Grupo 124887">
                <g id="Grupo_124886" data-name="Grupo 124886">
                  <g id="Grupo_124885" data-name="Grupo 124885">
                    <path id="Trazado_165481" data-name="Trazado 165481" d="M6563.54,4791.616c.006.026.107.023.22.061s.193.1.213.079-.045-.122-.185-.167S6563.533,4791.592,6563.54,4791.616Z" transform="translate(-6563.54 -4791.57)" fill="#1a2e35"/>
                  </g>
                </g>
              </g>
            </g>
            <g id="Grupo_124892" data-name="Grupo 124892" transform="translate(0.365 4.066)">
              <g id="Grupo_124891" data-name="Grupo 124891">
                <g id="Grupo_124890" data-name="Grupo 124890">
                  <g id="Grupo_124889" data-name="Grupo 124889">
                    <path id="Trazado_165482" data-name="Trazado 165482" d="M6562.454,4791.372c-.009.023.035.062.1.085s.122.023.131,0-.035-.062-.1-.085S6562.462,4791.348,6562.454,4791.372Z" transform="translate(-6562.453 -4791.354)" fill="#1a2e35"/>
                  </g>
                </g>
              </g>
            </g>
          </g>
        </g>
        <g id="Grupo_124966" data-name="Grupo 124966" transform="translate(0 149.867)">
          <g id="Grupo_124965" data-name="Grupo 124965">
            <g id="Grupo_124901" data-name="Grupo 124901">
              <g id="Grupo_124897" data-name="Grupo 124897">
                <g id="Grupo_124896" data-name="Grupo 124896">
                  <g id="Grupo_124895" data-name="Grupo 124895">
                    <path id="Trazado_165483" data-name="Trazado 165483" d="M6519.322,4781.755l2.58-3.138-5.847-4.869-3.823,4.55.344.326c1.539,1.433,7.924,7.178,9.274,7.75C6523.358,4787.01,6519.322,4781.755,6519.322,4781.755Z" transform="translate(-6512.232 -4773.749)" fill="#ff4f5b"/>
                  </g>
                </g>
              </g>
              <g id="Grupo_124900" data-name="Grupo 124900" transform="translate(0.076 2.839)" opacity="0.5">
                <g id="Grupo_124899" data-name="Grupo 124899">
                  <g id="Grupo_124898" data-name="Grupo 124898">
                    <path id="Trazado_165484" data-name="Trazado 165484" d="M6514.458,4782.547a2.643,2.643,0,0,0,.293-1.869,2.57,2.57,0,0,0-1.014-1.562l-1.361,1.633Z" transform="translate(-6512.376 -4779.116)" fill="#fff"/>
                  </g>
                </g>
              </g>
            </g>
            <g id="Grupo_124904" data-name="Grupo 124904" transform="translate(0 4.427)" opacity="0.4">
              <g id="Grupo_124903" data-name="Grupo 124903">
                <g id="Grupo_124902" data-name="Grupo 124902">
                  <path id="Trazado_165485" data-name="Trazado 165485" d="M6521.222,4788.354s1.322,1.952.867,2.058-7.128-5.458-9.856-8.169l.119-.122,7.726,6.556S6520.87,4788.084,6521.222,4788.354Z" transform="translate(-6512.232 -4782.12)" fill="#fff"/>
                </g>
              </g>
            </g>
            <g id="Grupo_124908" data-name="Grupo 124908" transform="translate(0.03 4.347)">
              <g id="Grupo_124907" data-name="Grupo 124907">
                <g id="Grupo_124906" data-name="Grupo 124906">
                  <g id="Grupo_124905" data-name="Grupo 124905">
                    <path id="Trazado_165486" data-name="Trazado 165486" d="M6512.289,4781.968a.683.683,0,0,0,.092.095l.274.258,1.024.932c.87.779,2.085,1.841,3.455,2.985s2.631,2.151,3.554,2.869l1.1.842.3.223a.656.656,0,0,0,.109.073.672.672,0,0,0-.1-.087l-.292-.238-1.081-.864c-.912-.73-2.166-1.745-3.535-2.887s-2.589-2.2-3.471-2.965l-1.043-.909-.286-.245A.818.818,0,0,0,6512.289,4781.968Z" transform="translate(-6512.289 -4781.968)" fill="#1a2e35"/>
                  </g>
                </g>
              </g>
            </g>
            <g id="Grupo_124912" data-name="Grupo 124912" transform="translate(7.766 10.572)">
              <g id="Grupo_124911" data-name="Grupo 124911">
                <g id="Grupo_124910" data-name="Grupo 124910">
                  <g id="Grupo_124909" data-name="Grupo 124909">
                    <path id="Trazado_165487" data-name="Trazado 165487" d="M6526.917,4794.237a3.136,3.136,0,0,1,.622-.341,2.988,2.988,0,0,1,.7-.1,1.011,1.011,0,0,0-.73.018A1.025,1.025,0,0,0,6526.917,4794.237Z" transform="translate(-6526.916 -4793.737)" fill="#1a2e35"/>
                  </g>
                </g>
              </g>
            </g>
            <g id="Grupo_124916" data-name="Grupo 124916" transform="translate(6.773 8.523)">
              <g id="Grupo_124915" data-name="Grupo 124915">
                <g id="Grupo_124914" data-name="Grupo 124914">
                  <g id="Grupo_124913" data-name="Grupo 124913">
                    <path id="Trazado_165488" data-name="Trazado 165488" d="M6525.039,4790.1a.808.808,0,0,0,.371-.07c.2-.063.351-.134.343-.159a.809.809,0,0,0-.372.071C6525.184,4790,6525.031,4790.076,6525.039,4790.1Z" transform="translate(-6525.038 -4789.863)" fill="#1a2e35"/>
                  </g>
                </g>
              </g>
            </g>
            <g id="Grupo_124920" data-name="Grupo 124920" transform="translate(6.508 8.056)">
              <g id="Grupo_124919" data-name="Grupo 124919">
                <g id="Grupo_124918" data-name="Grupo 124918">
                  <g id="Grupo_124917" data-name="Grupo 124917">
                    <path id="Trazado_165489" data-name="Trazado 165489" d="M6524.538,4789.039c0,.026.145.041.321.035s.318-.032.316-.058-.144-.041-.32-.034S6524.538,4789.014,6524.538,4789.039Z" transform="translate(-6524.538 -4788.98)" fill="#1a2e35"/>
                  </g>
                </g>
              </g>
            </g>
            <g id="Grupo_124924" data-name="Grupo 124924" transform="translate(6.668 7.312)">
              <g id="Grupo_124923" data-name="Grupo 124923">
                <g id="Grupo_124922" data-name="Grupo 124922">
                  <g id="Grupo_124921" data-name="Grupo 124921">
                    <path id="Trazado_165490" data-name="Trazado 165490" d="M6524.841,4787.576c-.017.02.105.15.272.292s.316.242.332.224-.1-.151-.272-.293S6524.857,4787.557,6524.841,4787.576Z" transform="translate(-6524.84 -4787.574)" fill="#1a2e35"/>
                  </g>
                </g>
              </g>
            </g>
            <g id="Grupo_124928" data-name="Grupo 124928" transform="translate(6.888 6.839)">
              <g id="Grupo_124927" data-name="Grupo 124927">
                <g id="Grupo_124926" data-name="Grupo 124926">
                  <g id="Grupo_124925" data-name="Grupo 124925">
                    <path id="Trazado_165491" data-name="Trazado 165491" d="M6525.259,4786.68a.764.764,0,0,0,.257.382.774.774,0,0,0,.39.247c.014-.023-.15-.141-.326-.313S6525.281,4786.665,6525.259,4786.68Z" transform="translate(-6525.256 -4786.679)" fill="#1a2e35"/>
                  </g>
                </g>
              </g>
            </g>
            <g id="Grupo_124932" data-name="Grupo 124932" transform="translate(7.367 8.3)">
              <g id="Grupo_124931" data-name="Grupo 124931">
                <g id="Grupo_124930" data-name="Grupo 124930">
                  <g id="Grupo_124929" data-name="Grupo 124929">
                    <path id="Trazado_165492" data-name="Trazado 165492" d="M6526.19,4789.558a1.478,1.478,0,0,0,.378.311,2.891,2.891,0,0,0,.473.245,1.478,1.478,0,0,0,.309.1.261.261,0,0,0,.189-.039.193.193,0,0,0,.068-.2.9.9,0,0,0-1.02-.508.863.863,0,0,0-.331.148c-.068.052-.1.09-.094.094a1.358,1.358,0,0,1,.438-.178.881.881,0,0,1,.494.059.758.758,0,0,1,.423.4c.022.094-.06.144-.159.128a1.422,1.422,0,0,1-.286-.085,3.23,3.23,0,0,1-.47-.222C6526.344,4789.665,6526.2,4789.546,6526.19,4789.558Z" transform="translate(-6526.163 -4789.442)" fill="#1a2e35"/>
                  </g>
                </g>
              </g>
            </g>
            <g id="Grupo_124936" data-name="Grupo 124936" transform="translate(7.356 7.454)">
              <g id="Grupo_124935" data-name="Grupo 124935">
                <g id="Grupo_124934" data-name="Grupo 124934">
                  <g id="Grupo_124933" data-name="Grupo 124933">
                    <path id="Trazado_165493" data-name="Trazado 165493" d="M6526.264,4788.9c0,.008.137-.042.261-.225a.809.809,0,0,0,.126-.359.491.491,0,0,0-.153-.452.193.193,0,0,0-.26.076.528.528,0,0,0-.076.221,1.487,1.487,0,0,0-.013.375.688.688,0,0,0,.089.331c.013,0-.019-.13-.024-.334a1.732,1.732,0,0,1,.031-.356c.014-.122.1-.294.207-.233a.441.441,0,0,1,.114.366.8.8,0,0,1-.1.333A1.932,1.932,0,0,1,6526.264,4788.9Z" transform="translate(-6526.142 -4787.843)" fill="#1a2e35"/>
                  </g>
                </g>
              </g>
            </g>
            <g id="Grupo_124940" data-name="Grupo 124940" transform="translate(1.482 2.847)">
              <g id="Grupo_124939" data-name="Grupo 124939">
                <g id="Grupo_124938" data-name="Grupo 124938">
                  <g id="Grupo_124937" data-name="Grupo 124937">
                    <path id="Trazado_165494" data-name="Trazado 165494" d="M6515.035,4779.132c-.01.015.18.124.418.375a2.38,2.38,0,0,1,.513,2.5c-.12.325-.251.5-.236.51s.042-.037.1-.117a2.067,2.067,0,0,0,.2-.369,2.311,2.311,0,0,0-.527-2.565,1.978,1.978,0,0,0-.329-.26A.452.452,0,0,0,6515.035,4779.132Z" transform="translate(-6515.035 -4779.132)" fill="#1a2e35"/>
                  </g>
                </g>
              </g>
            </g>
            <g id="Grupo_124944" data-name="Grupo 124944" transform="translate(2.082 0.921)">
              <g id="Grupo_124943" data-name="Grupo 124943">
                <g id="Grupo_124942" data-name="Grupo 124942">
                  <g id="Grupo_124941" data-name="Grupo 124941">
                    <path id="Trazado_165495" data-name="Trazado 165495" d="M6518.2,4775.49a26.441,26.441,0,0,0-2.033,2.376,26.231,26.231,0,0,0,2.033-2.376Z" transform="translate(-6516.168 -4775.49)" fill="#1a2e35"/>
                  </g>
                </g>
              </g>
            </g>
            <g id="Grupo_124948" data-name="Grupo 124948" transform="translate(3.368 6.312)">
              <g id="Grupo_124947" data-name="Grupo 124947">
                <g id="Grupo_124946" data-name="Grupo 124946">
                  <g id="Grupo_124945" data-name="Grupo 124945">
                    <path id="Trazado_165496" data-name="Trazado 165496" d="M6518.6,4785.685a6.247,6.247,0,0,0,1.694,1.44c.015-.022-.386-.317-.853-.715S6518.62,4785.666,6518.6,4785.685Z" transform="translate(-6518.601 -4785.684)" fill="#1a2e35"/>
                  </g>
                </g>
              </g>
            </g>
            <g id="Grupo_124952" data-name="Grupo 124952" transform="translate(2.093 5.356)">
              <g id="Grupo_124951" data-name="Grupo 124951">
                <g id="Grupo_124950" data-name="Grupo 124950">
                  <g id="Grupo_124949" data-name="Grupo 124949">
                    <path id="Trazado_165497" data-name="Trazado 165497" d="M6516.321,4783.876c-.025,0-.035.107-.07.227s-.077.216-.056.231.107-.067.144-.207S6516.346,4783.873,6516.321,4783.876Z" transform="translate(-6516.19 -4783.876)" fill="#1a2e35"/>
                  </g>
                </g>
              </g>
            </g>
            <g id="Grupo_124956" data-name="Grupo 124956" transform="translate(2.209 4.459)">
              <g id="Grupo_124955" data-name="Grupo 124955">
                <g id="Grupo_124954" data-name="Grupo 124954">
                  <g id="Grupo_124953" data-name="Grupo 124953">
                    <path id="Trazado_165498" data-name="Trazado 165498" d="M6516.44,4782.18c-.025,0-.038.094-.029.207s.037.2.063.2.039-.094.029-.206S6516.466,4782.177,6516.44,4782.18Z" transform="translate(-6516.409 -4782.18)" fill="#1a2e35"/>
                  </g>
                </g>
              </g>
            </g>
            <g id="Grupo_124960" data-name="Grupo 124960" transform="translate(1.827 3.693)">
              <g id="Grupo_124959" data-name="Grupo 124959">
                <g id="Grupo_124958" data-name="Grupo 124958">
                  <g id="Grupo_124957" data-name="Grupo 124957">
                    <path id="Trazado_165499" data-name="Trazado 165499" d="M6515.688,4780.737c-.012.022.065.087.126.188s.085.2.111.2.045-.122-.032-.247S6515.7,4780.713,6515.688,4780.737Z" transform="translate(-6515.687 -4780.73)" fill="#1a2e35"/>
                  </g>
                </g>
              </g>
            </g>
            <g id="Grupo_124964" data-name="Grupo 124964" transform="translate(1.473 3.214)">
              <g id="Grupo_124963" data-name="Grupo 124963">
                <g id="Grupo_124962" data-name="Grupo 124962">
                  <g id="Grupo_124961" data-name="Grupo 124961">
                    <path id="Trazado_165500" data-name="Trazado 165500" d="M6515.03,4779.828c-.022.012-.013.07.019.13s.077.1.1.084.013-.07-.019-.129S6515.052,4779.816,6515.03,4779.828Z" transform="translate(-6515.018 -4779.826)" fill="#1a2e35"/>
                  </g>
                </g>
              </g>
            </g>
          </g>
        </g>
        <g id="Grupo_124979" data-name="Grupo 124979" transform="translate(0.64 68.52)">
          <g id="Grupo_124967" data-name="Grupo 124967" transform="translate(0 3.895)">
            <path id="Trazado_165501" data-name="Trazado 165501" d="M6535.724,4627.782s-2.533,10.717-1.816,12.837,5.357,3.346,5.357,3.346l-.157,29.346-25.664,31.723,9.477,7.754s27.783-31.783,30.232-37.538-1.561-47.943-1.561-47.943Z" transform="translate(-6513.443 -4627.308)" fill="#a7e446"/>
          </g>
          <g id="Grupo_124968" data-name="Grupo 124968" transform="translate(13.946)">
            <path id="Trazado_165502" data-name="Trazado 165502" d="M6561.254,4619.944l1.256,89.132-13.056.066-6.552-72.594h0c-1.386-1.321-3.333-3.586-3.065-8.635l.318-5.867Z" transform="translate(-6539.812 -4619.944)" fill="#a7e446"/>
          </g>
          <g id="Grupo_124970" data-name="Grupo 124970" transform="translate(21.622 18.039)">
            <g id="Grupo_124969" data-name="Grupo 124969">
              <path id="Trazado_165503" data-name="Trazado 165503" d="M6554.326,4690.872a.51.51,0,0,1,.075-.132l.248-.366.97-1.373c.868-1.2,2.082-2.88,3.542-4.9l-.022.067c-.284-3.093-.628-6.846-1-10.89-.473-5.3-.857-10.1-1.083-13.585-.115-1.74-.191-3.149-.233-4.124-.015-.465-.029-.839-.038-1.123a2.105,2.105,0,0,1,.005-.393,2.084,2.084,0,0,1,.05.39c.022.282.053.654.09,1.119.078,1,.187,2.4.32,4.116.275,3.475.69,8.274,1.163,13.575.356,4.059.719,7.8.954,10.914l0,.034-.025.034-3.62,4.846-1.02,1.336-.275.346C6554.365,4690.837,6554.33,4690.875,6554.326,4690.872Z" transform="translate(-6554.325 -4654.05)" fill="#85b538"/>
            </g>
          </g>
          <g id="Grupo_124972" data-name="Grupo 124972" transform="translate(18.801 16.594)">
            <g id="Grupo_124971" data-name="Grupo 124971">
              <path id="Trazado_165504" data-name="Trazado 165504" d="M6555.82,4652.764a29.411,29.411,0,0,1-6.828-1.434,89.154,89.154,0,0,1,6.828,1.434Z" transform="translate(-6548.992 -4651.319)" fill="#85b538"/>
            </g>
          </g>
          <g id="Grupo_124974" data-name="Grupo 124974" transform="translate(27.419 47.253)">
            <g id="Grupo_124973" data-name="Grupo 124973">
              <path id="Trazado_165505" data-name="Trazado 165505" d="M6572.439,4710.5a10.421,10.421,0,0,0-7.153-.567,2.966,2.966,0,0,1,1.018-.4,8.007,8.007,0,0,1,5.193.411A3,3,0,0,1,6572.439,4710.5Z" transform="translate(-6565.286 -4709.287)" fill="#85b538"/>
            </g>
          </g>
          <g id="Grupo_124976" data-name="Grupo 124976" transform="translate(22.553 52.601)">
            <g id="Grupo_124975" data-name="Grupo 124975">
              <path id="Trazado_165506" data-name="Trazado 165506" d="M6572.709,4719.4c.06.046-3.612,4.976-8.2,11.009s-8.361,10.889-8.422,10.843,3.611-4.974,8.2-11.009S6572.649,4719.353,6572.709,4719.4Z" transform="translate(-6556.085 -4719.398)" fill="#85b538"/>
            </g>
          </g>
          <g id="Grupo_124978" data-name="Grupo 124978" transform="translate(30.832 5.927)">
            <g id="Grupo_124977" data-name="Grupo 124977">
              <path id="Trazado_165507" data-name="Trazado 165507" d="M6578.315,4631.844a2.186,2.186,0,0,1-.734.97,3.637,3.637,0,0,1-5.322-.561,2.2,2.2,0,0,1-.516-1.1,11.507,11.507,0,0,0,.667.979,3.625,3.625,0,0,0,5.048.532A11.105,11.105,0,0,0,6578.315,4631.844Z" transform="translate(-6571.739 -4631.151)" fill="#85b538"/>
            </g>
          </g>
        </g>
        <g id="Grupo_124980" data-name="Grupo 124980" transform="translate(16.665 13.402)">
          <path id="Trazado_165508" data-name="Trazado 165508" d="M6547.287,4531.608a11.386,11.386,0,0,1-.618-15.879" transform="translate(-6543.741 -4515.729)" fill="#1a2e35"/>
        </g>
        <g id="Grupo_125008" data-name="Grupo 125008" transform="translate(9.453 31.572)">
          <g id="Grupo_124989" data-name="Grupo 124989">
            <g id="Grupo_124981" data-name="Grupo 124981" transform="translate(0 6.024)">
              <path id="Trazado_165509" data-name="Trazado 165509" d="M6533.531,4561.473s-2.836,3.2-3.424,15.459c0,0,8.078,1.532,8.226,1.092S6533.531,4561.473,6533.531,4561.473Z" transform="translate(-6530.106 -4561.473)" fill="#fc4b52"/>
            </g>
            <g id="Grupo_124986" data-name="Grupo 124986" transform="translate(2.537)">
              <g id="Grupo_124985" data-name="Grupo 124985">
                <g id="Grupo_124984" data-name="Grupo 124984">
                  <g id="Grupo_124982" data-name="Grupo 124982" transform="translate(3.171 21.483)">
                    <path id="Trazado_165510" data-name="Trazado 165510" d="M6540.9,4590.7" transform="translate(-6540.899 -4590.703)" fill="#375a64"/>
                  </g>
                  <g id="Grupo_124983" data-name="Grupo 124983">
                    <path id="Trazado_165511" data-name="Trazado 165511" d="M6537.1,4591.8h24.8l-.4-3.874s-2.834-14.738-2.813-14.933l.446-.938a9.349,9.349,0,0,0,.109-7.8h0l12.142-4.153-2.973-10.02c-5.51.93-13.838,1.968-13.838,1.968l-1.24.1s-8.6.448-8.781.47c-3.6.436-7.782.711-9.312,4.561-.817,2.058-.04,5.148,1.294,8.333l3.179,9.784c1.27,5.377-.756,5.121-1.868,10.533C6537.675,4586.656,6537.083,4591.048,6537.1,4591.8Z" transform="translate(-6534.903 -4550.084)" fill="#fc4b52"/>
                  </g>
                </g>
              </g>
            </g>
            <g id="Grupo_124988" data-name="Grupo 124988" transform="translate(24.961 10.178)">
              <g id="Grupo_124987" data-name="Grupo 124987">
                <path id="Trazado_165512" data-name="Trazado 165512" d="M6591.242,4569.331a2.361,2.361,0,0,1-.539.228c-.352.128-.865.306-1.5.519-1.27.43-3.033,1-4.979,1.62s-3.687,1.241-4.922,1.752c-.62.25-1.113.474-1.457.621a2.444,2.444,0,0,1-.544.214,2.392,2.392,0,0,1,.5-.311c.331-.177.813-.428,1.428-.7a46.792,46.792,0,0,1,4.915-1.835c1.949-.624,3.72-1.162,5-1.544.643-.189,1.164-.339,1.527-.437A2.47,2.47,0,0,1,6591.242,4569.331Z" transform="translate(-6577.301 -4569.327)" fill="#c21d23"/>
              </g>
            </g>
          </g>
          <g id="Grupo_124991" data-name="Grupo 124991" transform="translate(4.71 4.71)">
            <g id="Grupo_124990" data-name="Grupo 124990">
              <path id="Trazado_165513" data-name="Trazado 165513" d="M6571.764,4559.126c0,.076-7.332.138-16.375.138s-16.376-.062-16.376-.138,7.331-.137,16.376-.137S6571.764,4559.05,6571.764,4559.126Z" transform="translate(-6539.013 -4558.989)" fill="#fafafa"/>
            </g>
          </g>
          <g id="Grupo_124993" data-name="Grupo 124993" transform="translate(1.771 9.58)">
            <g id="Grupo_124992" data-name="Grupo 124992">
              <path id="Trazado_165514" data-name="Trazado 165514" d="M6569.9,4568.335c0,.076-8.16.139-18.222.139s-18.224-.062-18.224-.139,8.157-.137,18.224-.137S6569.9,4568.259,6569.9,4568.335Z" transform="translate(-6533.456 -4568.198)" fill="#fafafa"/>
            </g>
          </g>
          <g id="Grupo_124995" data-name="Grupo 124995" transform="translate(0.764 15.123)">
            <g id="Grupo_124994" data-name="Grupo 124994">
              <path id="Trazado_165515" data-name="Trazado 165515" d="M6534.587,4578.814a8.44,8.44,0,1,1-1.518-.138A4.291,4.291,0,0,1,6534.587,4578.814Z" transform="translate(-6531.55 -4578.677)" fill="#fafafa"/>
            </g>
          </g>
          <g id="Grupo_124997" data-name="Grupo 124997" transform="translate(3.801 15.29)">
            <g id="Grupo_124996" data-name="Grupo 124996">
              <path id="Trazado_165516" data-name="Trazado 165516" d="M6561.128,4579.132c0,.076-5.336.138-11.917.138s-11.918-.062-11.918-.138,5.335-.138,11.918-.138S6561.128,4579.056,6561.128,4579.132Z" transform="translate(-6537.292 -4578.994)" fill="#fafafa"/>
            </g>
          </g>
          <g id="Grupo_124999" data-name="Grupo 124999" transform="translate(5.718 21.001)">
            <g id="Grupo_124998" data-name="Grupo 124998">
              <path id="Trazado_165517" data-name="Trazado 165517" d="M6562.311,4589.929c0,.075-4.789.138-10.7.138s-10.7-.062-10.7-.138,4.788-.138,10.7-.138S6562.311,4589.853,6562.311,4589.929Z" transform="translate(-6540.918 -4589.791)" fill="#fafafa"/>
            </g>
          </g>
          <g id="Grupo_125001" data-name="Grupo 125001" transform="translate(7.566 26.291)">
            <g id="Grupo_125000" data-name="Grupo 125000">
              <path id="Trazado_165518" data-name="Trazado 165518" d="M6563.8,4599.931c0,.076-4.341.138-9.695.138s-9.695-.062-9.695-.138,4.339-.137,9.695-.137S6563.8,4599.855,6563.8,4599.931Z" transform="translate(-6544.412 -4599.794)" fill="#fafafa"/>
            </g>
          </g>
          <g id="Grupo_125003" data-name="Grupo 125003" transform="translate(7.062 30.574)">
            <g id="Grupo_125002" data-name="Grupo 125002">
              <path id="Trazado_165519" data-name="Trazado 165519" d="M6564.2,4608.03c0,.076-4.644.137-10.371.137s-10.372-.061-10.372-.137,4.643-.138,10.372-.138S6564.2,4607.953,6564.2,4608.03Z" transform="translate(-6543.458 -4607.892)" fill="#fafafa"/>
            </g>
          </g>
          <g id="Grupo_125005" data-name="Grupo 125005" transform="translate(5.55 36.032)">
            <g id="Grupo_125004" data-name="Grupo 125004">
              <path id="Trazado_165520" data-name="Trazado 165520" d="M6564.2,4618.349c0,.076-5.282.138-11.8.138s-11.8-.062-11.8-.138,5.282-.138,11.8-.138S6564.2,4618.273,6564.2,4618.349Z" transform="translate(-6540.601 -4618.211)" fill="#fafafa"/>
            </g>
          </g>
          <g id="Grupo_125007" data-name="Grupo 125007" transform="translate(2.811 11.955)">
            <g id="Grupo_125006" data-name="Grupo 125006">
              <path id="Trazado_165521" data-name="Trazado 165521" d="M6539.807,4585.493a2.054,2.054,0,0,1-.22-.487q-.218-.566-.521-1.354c-.436-1.144-1.051-2.721-1.689-4.478s-1.169-3.37-1.5-4.552c-.166-.591-.29-1.072-.361-1.408a1.955,1.955,0,0,1-.087-.528,19.319,19.319,0,0,1,.634,1.878c.38,1.164.935,2.76,1.575,4.515s1.224,3.345,1.614,4.507c.2.582.345,1.055.439,1.385A2.015,2.015,0,0,1,6539.807,4585.493Z" transform="translate(-6535.421 -4572.687)" fill="#c21d23"/>
            </g>
          </g>
        </g>
      </g>
    </g>
  </g>
</svg>
