<svg xmlns="http://www.w3.org/2000/svg" width="189" height="205" viewBox="0 0 189 205">
  <g id="Grupo_134231" data-name="Grupo 134231" transform="translate(6511 11560)">
    <g id="Rectángulo_41755" data-name="Rectángulo 41755" transform="translate(-6511 -11560)" fill="rgba(255,255,255,0)" stroke="rgba(112,112,112,0)" stroke-width="1">
      <rect width="189" height="205" stroke="none"/>
      <rect x="0.5" y="0.5" width="188" height="204" fill="none"/>
    </g>
    <g id="Grupo_118788" data-name="Grupo 118788" transform="translate(-7631 -12323.186)">
      <g id="Grupo_118787" data-name="Grupo 118787" transform="translate(-4831.406 -5144.51)">
        <g id="Grupo_118779" data-name="Grupo 118779" transform="translate(5962.984 5922.83)">
          <circle id="Elipse_5163" data-name="Elipse 5163" cx="80.423" cy="80.423" r="80.423" transform="translate(0 0)" fill="#dff7f9" opacity="0.38"/>
        </g>
        <g id="Grupo_118786" data-name="Grupo 118786" transform="translate(5985.159 5912.882)">
          <path id="Trazado_162612" data-name="Trazado 162612" d="M6387.963,6520.846c-3.486-.146-7.135-.129-10.139,1.25s-5.088,4.535-3.813,7.362c.485,1.078,8.113,3.044,9,3.93,6.766,6.786,6.8,12.518,13.57,19.3,2.917-1.5,4.542-4.3,5.6-7.092a59.186,59.186,0,0,0,2.088-7.417c.913-3.883,1.738-8.219-.76-11.712C6400.417,6522.16,6393.744,6521.089,6387.963,6520.846Z" transform="translate(-6323.149 -6413.229)" fill="#eecab0"/>
          <path id="Trazado_162613" data-name="Trazado 162613" d="M6406.784,6534.989l-1.979-9.1-1.57-14.962-18.334-13.586-22.687,7.254s-2.524,3.089,1.039,4.277,20.974-1.187,20.974-1.187l5.936,14.247.791,23.349,5.541,15.434,19-8.706Z" transform="translate(-6313.039 -6393.931)" fill="#f7d0b2"/>
          <path id="Trazado_162614" data-name="Trazado 162614" d="M6516.7,6719.229s-26.059,15.481-31.882,18.777l4.659,28.184h54.068Z" transform="translate(-6414.668 -6576.562)" fill="#a7e446"/>
          <g id="Grupo_118785" data-name="Grupo 118785" transform="translate(0)">
            <g id="Grupo_118782" data-name="Grupo 118782" transform="translate(20.148 23.839)">
              <g id="Grupo_118781" data-name="Grupo 118781">
                <path id="Trazado_162615" data-name="Trazado 162615" d="M6278.456,6085.75a38.131,38.131,0,1,0-65.13,26.923,43.28,43.28,0,0,1,11.2,19.236l3.075,11.372h25l2.912-10.77a43.375,43.375,0,0,1,11.546-19.572A38.013,38.013,0,0,0,6278.456,6085.75Z" transform="translate(-6202.193 -6047.618)" fill="#feca2e"/>
                <g id="Grupo_118780" data-name="Grupo 118780" transform="translate(24.92 7.841)">
                  <path id="Trazado_162616" data-name="Trazado 162616" d="M6379.462,6091.935a47.638,47.638,0,0,1,4.713,44.152c-1.6,4.077-4.246,7.464-6.951,10.846a41.045,41.045,0,0,0-6.094,10.932c-2.463,6.39-3.786,13.086-5.145,19.771a13.588,13.588,0,0,1-1.436,4.4,9.308,9.308,0,0,1-4.8,3.662,14.585,14.585,0,0,1-6.2.871c-.891-.067-1.707-.35-2.581-.435a7.467,7.467,0,0,1-2.824-.8,18.333,18.333,0,0,1-3.1-2.212l-1.886-1.555a5.922,5.922,0,0,0-.106,1.623c-.022,2.44-.136,5.04,1.345,7.124a6.835,6.835,0,0,0,5.531,2.789h12.187a6.466,6.466,0,0,0,6.6-5.785l.621-10.21,2.188-8.093a43.381,43.381,0,0,1,11.546-19.572,38.129,38.129,0,0,0-3.61-57.509Z" transform="translate(-6343.04 -6091.935)" fill="#d39c11"/>
                </g>
              </g>
            </g>
            <g id="Grupo_118783" data-name="Grupo 118783">
              <path id="Trazado_162617" data-name="Trazado 162617" d="M6408.131,5917.331c0,2.457-1.307,11.291-2.919,11.291s-2.918-8.834-2.918-11.291,1.307-4.449,2.918-4.449S6408.131,5914.874,6408.131,5917.331Z" transform="translate(-6346.742 -5912.882)" fill="#feca2e"/>
              <path id="Trazado_162618" data-name="Trazado 162618" d="M6609.224,6008.039c-1.864,1.6-7.713,8.349-6.662,9.572s8.6-3.543,10.465-5.145,2.523-3.891,1.473-5.113S6611.087,6006.438,6609.224,6008.039Z" transform="translate(-6511.473 -5990.021)" fill="#feca2e"/>
              <path id="Trazado_162619" data-name="Trazado 162619" d="M6667.063,6210.335c-2.438.31-11.366.127-11.569-1.472s8.4-4.008,10.833-4.317,4.579.735,4.782,2.334S6669.5,6210.026,6667.063,6210.335Z" transform="translate(-6555.141 -6152.897)" fill="#feca2e"/>
              <path id="Trazado_162620" data-name="Trazado 162620" d="M6188.948,5992.171c1.935,1.515,8.084,7.99,7.09,9.259s-8.754-3.149-10.689-4.664-2.7-3.771-1.7-5.041S6187.013,5990.656,6188.948,5992.171Z" transform="translate(-6166.42 -5977.088)" fill="#feca2e"/>
              <path id="Trazado_162621" data-name="Trazado 162621" d="M6092.377,6174.641c2.438.31,11.365.126,11.568-1.472s-8.4-4.008-10.833-4.318-4.578.736-4.781,2.334S6089.939,6174.331,6092.377,6174.641Z" transform="translate(-6088.315 -6123.518)" fill="#feca2e"/>
            </g>
            <g id="Grupo_118784" data-name="Grupo 118784" transform="translate(39.991 62.131)">
              <path id="Trazado_162622" data-name="Trazado 162622" d="M6362.486,6283.3a9.815,9.815,0,0,1-2.872-3.39,12.028,12.028,0,0,0,2.246-6.138,38.758,38.758,0,0,0,.22-3.925,3.377,3.377,0,0,0-1.218-3.127c-.956-.7-2.231-.068-2.964.613a7.092,7.092,0,0,0-1.582,3.146,14.116,14.116,0,0,0-.234,6.693,13.318,13.318,0,0,0,.638,2.258,5.87,5.87,0,0,1-1.832.976c-2.083.666-3.665-.534-4.629-2.31-.158-.292-.309-.6-.45-.923.164-.439.32-.878.466-1.312a27.359,27.359,0,0,0,1.277-6.536c.147-1.837.2-4.031-1.567-5.119a1.162,1.162,0,0,0-1.562.41c-2.582,3.581-2.437,8.331-1.035,12.394a26.937,26.937,0,0,1-1.57,3.14c-.647,1.115-1.883,2.834-3.382,2.616-1.4-.2-2.511-1.955-3.205-3.039a12.391,12.391,0,0,1-1.222-2.523q.266-.7.493-1.416a25.9,25.9,0,0,0,1.084-5.791c.13-1.636.183-3.934-1.606-4.717a1.159,1.159,0,0,0-1.564.41,16.378,16.378,0,0,0-.881,11.033c.034.126.073.25.11.375a24.249,24.249,0,0,1-4.738,7.493c-.9.976.524,2.416,1.461,1.46a25.461,25.461,0,0,0,4.432-6.142,16.262,16.262,0,0,0,1.158,1.86c1.168,1.618,2.632,3.132,4.735,3.246,1.963.106,3.558-1.544,4.621-2.979a15.569,15.569,0,0,0,1.354-2.22,6.03,6.03,0,0,0,4.237,3.012,6.982,6.982,0,0,0,4.847-1.25,14.454,14.454,0,0,0,3.17,3.75A1.286,1.286,0,1,0,6362.486,6283.3Zm-13.134-15.9a14.284,14.284,0,0,1-.182,2.595,21.777,21.777,0,0,1-.5,3A10.482,10.482,0,0,1,6349.353,6267.395Zm8.908,5.746a10.871,10.871,0,0,1,.638-2.776,5.749,5.749,0,0,1,.555-1.149,2.582,2.582,0,0,1,.18-.223,1.779,1.779,0,0,1,.043.276,19.733,19.733,0,0,1-.789,7.017,6.963,6.963,0,0,1-.318.8A13.043,13.043,0,0,1,6358.261,6273.141Z" transform="translate(-6327.74 -6264.043)" fill="#fff"/>
              <path id="Trazado_162623" data-name="Trazado 162623" d="M6462.54,6338.083c-4.055,12.375-8.322,24.688-12.908,36.877a1.209,1.209,0,0,0,2.245.895c4.569-12.207,8.813-24.525,12.619-36.992C6464.889,6337.576,6462.965,6336.787,6462.54,6338.083Z" transform="translate(-6425.625 -6324.438)" fill="#fff"/>
              <path id="Trazado_162624" data-name="Trazado 162624" d="M6314.381,6331.169c3.236,12.614,6.259,25.29,8.947,38.032a1.209,1.209,0,0,0,2.374-.452c-2.711-12.75-5.757-25.417-9.252-37.975C6316.089,6329.479,6314.042,6329.848,6314.381,6331.169Z" transform="translate(-6314.343 -6318.306)" fill="#fff"/>
            </g>
          </g>
        </g>
        <path id="Trazado_162625" data-name="Trazado 162625" d="M6358.13,6577.746h-12.187a6.467,6.467,0,0,1-6.6-5.785l-1.028-12.487,27.6-.177-1.178,12.664A6.467,6.467,0,0,1,6358.13,6577.746Z" transform="translate(-308.92 -532.045)" fill="#59595b"/>
        <path id="Trazado_162626" data-name="Trazado 162626" d="M6349.618,6597.351c7.716.257,15.452-.222,23.168.023" transform="translate(-318.227 -563.326)" fill="#808183"/>
        <path id="Trazado_162627" data-name="Trazado 162627" d="M6349.618,6616.279c7.716.256,15.452-.222,23.168.024" transform="translate(-318.227 -578.905)" fill="#808183"/>
        <path id="Trazado_162628" data-name="Trazado 162628" d="M6370.344,6591.425c.865.027.827-1.389-.05-1.351-7.71.33-15.447-.065-23.157.275a.527.527,0,0,0,.039,1.052" transform="translate(-315.782 -557.376)" fill="#808183"/>
        <path id="Trazado_162629" data-name="Trazado 162629" d="M6370.344,6610.353c.865.027.827-1.388-.05-1.351-7.71.33-15.447-.065-23.157.275a.527.527,0,0,0,.039,1.052" transform="translate(-315.782 -572.956)" fill="#808183"/>
        <path id="Trazado_162630" data-name="Trazado 162630" d="M6430.133,6581.352c-.657-.212-1.08-1.324-1.629-2.077-.633-.869-2.479-1.946-3.246-2.7-2.9-2.855-4.886-5.23-8.105-7.722-2.5-1.937-6.535-5.6-6.57-6.012-.1-1.171-.576-2.275-.721-3.441l-1.184-9.547c-.3-2.448-.779-7.615,2.32-8.644,3.226-1.071,4.906,3.345,5.063,5.765.145,2.24-.139,4.6.786,6.643,1.141,2.527,3.8,3.924,6.029,5.572,5.536,4.093,7.922,1.031,9.357,17.645.105,1.22.068,2.979-.844,3.948C6430.876,6581.33,6430.473,6581.461,6430.133,6581.352Z" transform="translate(-366.655 -517.022)" fill="#f7d0b2"/>
      </g>
    </g>
  </g>
</svg>
