<svg xmlns="http://www.w3.org/2000/svg" width="97" height="97" viewBox="0 0 97 97">
  <g id="Grupo_134237" data-name="Grupo 134237" transform="translate(-753 -4662)">
    <g id="Elipse_5286" data-name="Elipse 5286" transform="translate(753 4662)" fill="#dff7f9" stroke="#346d81" stroke-width="2">
      <circle cx="48.5" cy="48.5" r="48.5" stroke="none"/>
      <circle cx="48.5" cy="48.5" r="47.5" fill="none"/>
    </g>
    <g id="Grupo_134216" data-name="Grupo 134216" transform="translate(844.434 -2197.049)">
      <path id="Trazado_170959" data-name="Trazado 170959" d="M125.587,6871.144c1.528.784,1.856,1.682,1.185,3.273-.7,1.665-1.4,3.33-2.114,4.988a2.025,2.025,0,1,1-3.7-1.589c.676-1.626,1.4-3.233,2.04-4.874a2.8,2.8,0,0,1,1.646-1.8Z" transform="translate(-154.268 0.001)"/>
      <path id="Trazado_170960" data-name="Trazado 170960" d="M-31.235,6999.818c0,1.988,0,3.871,0,5.754,0,1.351-.627,2-1.955,2q-11.2.005-22.407,0a1.743,1.743,0,0,1-1.981-1.983q-.013-2.624,0-5.248c0-.392-.039-.5-.471-.326a4.388,4.388,0,0,1-5.037-1.09,4.366,4.366,0,0,1-.532-5.18,3.731,3.731,0,0,0,.484-1.977c-.03-.963,0-1.928.017-2.893a4.128,4.128,0,0,1,3.279-4.133,2.6,2.6,0,0,0,1.972-1.533c.858-1.72,1.844-3.376,2.759-5.068.71-1.313.644-1.592-.6-2.373-.835-.523-1.651-1.177-1.559-2.185a4.783,4.783,0,0,0-.743-2.57,4.142,4.142,0,0,1,.643-4.587,1.711,1.711,0,0,0,.4-1.149,31.458,31.458,0,0,1,.135-4.834,9.957,9.957,0,0,1,9.349-8.279,21.288,21.288,0,0,1,4.029.077,5.5,5.5,0,0,1,3.4,1.858.6.6,0,0,0,.788.2,5.778,5.778,0,0,1,7.766,5.4c.034,1.973.015,3.948,0,5.921a1.659,1.659,0,0,0,.325,1.051,4.34,4.34,0,0,1-.15,5.359.815.815,0,0,0-.228.761,2.5,2.5,0,0,1-1.118,2.679c-.257.179-.523.345-.786.516-.7.46-.884.882-.494,1.621,1.157,2.2,2.366,4.365,3.549,6.547a.68.68,0,0,0,.555.317c3.127.566,4.448,2.393,4.229,5.571-.032.469.023.943-.01,1.412a4.667,4.667,0,0,0,.561,2.566A4.3,4.3,0,0,1-25.8,6999a4.424,4.424,0,0,1-4.943,1.031C-30.88,6999.975-31.019,6999.911-31.235,6999.818Z" transform="translate(0 -67.522)"/>
      <path id="Trazado_170961" data-name="Trazado 170961" d="M157.172,6904.594a1.977,1.977,0,0,1,.481-1.358c1.223-1.546,2.436-3.1,3.669-4.635a2.025,2.025,0,0,1,2.911-.418,1.988,1.988,0,0,1,.274,2.877c-1.228,1.6-2.483,3.175-3.745,4.745a2,2,0,0,1-3.59-1.211Z" transform="translate(-184.653 -22.182)"/>
      <path id="Trazado_170962" data-name="Trazado 170962" d="M193.915,7205.265a.844.844,0,0,1,.863.922c-.016.436.114.593.564.574a.8.8,0,0,1,.915.845.824.824,0,0,1-.912.864c-.441.013-.586.144-.566.582a.781.781,0,0,1-.792.9.839.839,0,0,1-.913-.874c-.011-.477-.177-.591-.625-.606a.852.852,0,1,1,.02-1.7c.488.021.584-.174.605-.615A.881.881,0,0,1,193.915,7205.265Z" transform="translate(-213.371 -278.671)" fill="#feca2e"/>
      <path id="Trazado_170963" data-name="Trazado 170963" d="M110.076,6938.53a2.017,2.017,0,0,1-1.979-2.035,2.074,2.074,0,0,1,2.073-2.035,2.035,2.035,0,0,1-.094,4.069Z" transform="translate(-143.723 -52.808)"/>
      <path id="Trazado_170964" data-name="Trazado 170964" d="M139.13,6955.686a2.026,2.026,0,0,1-1.943-2.076,2.1,2.1,0,0,1,2.123-1.992,2.017,2.017,0,0,1,1.927,2.152A2.054,2.054,0,0,1,139.13,6955.686Z" transform="translate(-167.985 -67.117)" fill="#010001"/>
      <path id="Trazado_170965" data-name="Trazado 170965" d="M89.327,6890.211a.646.646,0,0,1-.574.677.6.6,0,0,1-.747-.5q-.459-2.843-.87-5.69a.59.59,0,0,1,.551-.709c.471-.062.709.2.778.637.209,1.322.408,2.646.612,3.969C89.157,6889.123,89.24,6889.651,89.327,6890.211Z" transform="translate(-126.234 -10.704)" fill="#010101"/>
      <path id="Trazado_170966" data-name="Trazado 170966" d="M-45.786,6947.9a3.391,3.391,0,0,0-2.4,2.477,3.29,3.29,0,0,0-2.559-2.463,3.3,3.3,0,0,0,2.554-2.5A3.339,3.339,0,0,0-45.786,6947.9Z" transform="translate(-11.239 -61.942)" fill="#fc4b52"/>
      <path id="Trazado_170967" data-name="Trazado 170967" d="M67.175,6906.669a.623.623,0,0,1,.593.361q.643,1.206,1.277,2.417a.672.672,0,1,1-1.187.624c-.431-.8-.868-1.6-1.266-2.424A.64.64,0,0,1,67.175,6906.669Z" transform="translate(-109.034 -29.629)" fill="#010101"/>
      <path id="Trazado_170968" data-name="Trazado 170968" d="M155.811,7083.538a1.764,1.764,0,1,1,.011,3.528,2.457,2.457,0,0,0-1.68-1.749A2.513,2.513,0,0,0,155.811,7083.538Z" transform="translate(-182.128 -177.145)" fill="#fc4b52"/>
      <path id="Trazado_170969" data-name="Trazado 170969" d="M180.954,7262.574a.914.914,0,1,1,.918-.9A.956.956,0,0,1,180.954,7262.574Z" transform="translate(-203.722 -324.944)" fill="#a7e446"/>
      <path id="Trazado_170970" data-name="Trazado 170970" d="M-11.594,6919.139a.872.872,0,0,1,.852-.924.89.89,0,0,1,.931.92.928.928,0,0,1-.893.906A.92.92,0,0,1-11.594,6919.139Z" transform="translate(-43.896 -39.258)" fill="#a7e446"/>
      <path id="Trazado_170971" data-name="Trazado 170971" d="M128.762,6885.5c.034-.1.085-.3.162-.48.71-1.689,1.427-3.376,2.135-5.066.188-.448.43-.856.987-.623s.445.691.255,1.141q-1.1,2.594-2.184,5.192c-.161.383-.394.676-.859.566C128.947,6886.158,128.765,6885.936,128.762,6885.5Z" transform="translate(-160.96 -6.771)" fill="#feca2e"/>
      <path id="Trazado_170972" data-name="Trazado 170972" d="M-10.812,7152.171c.743.767,1.421,1.48,2.115,2.177a1.45,1.45,0,0,0,2.42-.01c.493-.489.967-1,1.463-1.485a.717.717,0,0,1,1.143.022c.516.53,1.03,1.062,1.56,1.579a1.39,1.39,0,0,0,2.18.015c.722-.7,1.42-1.425,2.124-2.133.257.167.27.41.348.61,1.44,3.711,2.8,7.458,4.351,11.121a8.863,8.863,0,0,1,.641,3.69c-.013,1.547-.021,3.095.007,4.642.009.529-.165.7-.695.7q-11.135-.021-22.27,0c-.527,0-.713-.174-.708-.7.019-2.175.006-4.351.012-6.526a1.3,1.3,0,0,1,.091-.52c1.812-4.02,3.21-8.2,4.856-12.287C-11.07,7152.806-10.965,7152.547-10.812,7152.171Z" transform="translate(-40.11 -234.388)" fill="#fc4b52"/>
      <path id="Trazado_170973" data-name="Trazado 170973" d="M10.371,6968.745c0,.92-.007,1.839,0,2.758,0,.324-.069.47-.42.315a1.772,1.772,0,0,0-.581-.156c-.534-.036-.825-.225-.884-.831-.075-.771-.463-1.015-1.284-1.064a9.144,9.144,0,0,1-5.805-2.129c-.6-.539-1.268-.443-1.869.269a8.349,8.349,0,0,1-4.883,2.861,9.33,9.33,0,0,1-3.729,0,1.493,1.493,0,0,0-1.664.548c-.346.45-.986.291-1.482.448-.125.04-.17-.121-.17-.234,0-2.343-.229-4.709,1.066-6.866a8.563,8.563,0,0,1,7.3-4.419,18.258,18.258,0,0,1,3.621.071,4.259,4.259,0,0,1,2.875,1.813.972.972,0,0,0,1.445.394,4.428,4.428,0,0,1,6.456,4.073C10.375,6967.31,10.371,6968.028,10.371,6968.745Z" transform="translate(-43.213 -74.266)" fill="#754e34"/>
      <path id="Trazado_170974" data-name="Trazado 170974" d="M79.743,7056.544a1.752,1.752,0,0,0,2.327,1.934c.49-.11.545.107.559.467a1.172,1.172,0,0,1-.524,1.032c-.235.172-.483.325-.727.483a2.426,2.426,0,0,0-.939,3.656c1.481,2.758,3,5.494,4.5,8.244,1.413,2.592,2.846,5.173,4.217,7.788a3.074,3.074,0,1,1-5.611,2.453q-2-5.122-3.968-10.254c-1.788-4.628-3.632-9.234-5.129-13.969-.478-1.511-.276-2,1.177-2.587.642-.26,1.283-.522,1.927-.779C78.935,7054.461,79.774,7055.048,79.743,7056.544Z" transform="translate(-115.468 -153.184)" fill="#f8cfb3"/>
      <path id="Trazado_170975" data-name="Trazado 170975" d="M-46.286,7056.467c-.019-1.458.8-2.018,2.167-1.476.727.289,1.455.576,2.179.873a1.53,1.53,0,0,1,1.019,2.233c-1.882,5.952-4.275,11.713-6.5,17.538-.9,2.36-1.808,4.717-2.739,7.065a3.041,3.041,0,0,1-3.053,1.978,3.076,3.076,0,0,1-2.813-2.4,3.246,3.246,0,0,1,.419-2.386q3.983-7.266,7.945-14.545a7.26,7.26,0,0,0,1.052-2.378,2.093,2.093,0,0,0-.98-2.308c-.362-.223-.715-.461-1.065-.7a1.182,1.182,0,0,1-.549-1.023c.007-.335.067-.587.565-.481C-47.159,7058.777-46.266,7057.993-46.286,7056.467Z" transform="translate(-6.774 -153.167)" fill="#f8cfb3"/>
      <path id="Trazado_170976" data-name="Trazado 170976" d="M9.2,7018.471a1.022,1.022,0,0,1-.954.114c-.945-.366-1.854-.954-2.954-.593-.242.08-.232-.136-.233-.29,0-.6.017-1.211-.008-1.815-.017-.415.165-.394.491-.351a10.976,10.976,0,0,0,6.663-1.016,9.2,9.2,0,0,0,2.688-2.093c.158-.179.257-.321.525-.1a10.124,10.124,0,0,0,5.826,2.144c.39.033.548.11.531.539-.036.873-.007,1.749-.014,2.623,0,.18.067.482-.28.366a3.718,3.718,0,0,0-2.705.48c-.389.161-.772.347-1.186-.028.207-.149.4-.3.6-.431.422-.266.622-.628.322-1.065-.286-.417-.675-.336-1.056-.065-.529.377-1.077.726-1.607,1.1-.714.5-.662,1.02.127,1.378.1.045.2.1.324.166a2.82,2.82,0,0,0-1.044,3.007c.069.282-.025.354-.255.4a9.133,9.133,0,0,1-3.21.012c-.268-.046-.377-.146-.3-.45a2.788,2.788,0,0,0-1-2.939c.1-.181.3-.169.447-.249a.665.665,0,0,0,.138-1.187c-.625-.472-1.284-.9-1.939-1.328a.662.662,0,0,0-.761,1.084C8.619,7018.074,8.881,7018.244,9.2,7018.471Z" transform="translate(-57.776 -117.658)" fill="#f8cfb3"/>
      <path id="Trazado_170977" data-name="Trazado 170977" d="M30.616,7103.59a4.674,4.674,0,0,0,6.919.013c.264.706.512,1.386.774,2.061.1.264-.106.309-.252.383a8.26,8.26,0,0,1-7.916-.01.389.389,0,0,1-.211-.587C30.17,7104.854,30.378,7104.243,30.616,7103.59Z" transform="translate(-78.481 -193.87)" fill="#f8cfb3"/>
      <path id="Trazado_170978" data-name="Trazado 170978" d="M41.077,7087.8a2.982,2.982,0,0,1-2.125-.828,1.708,1.708,0,0,1-.346-2.349c.139-.263.312-.214.5-.175a9.6,9.6,0,0,0,4-.007c.294-.063.428.03.541.323.565,1.464-.346,2.8-2.088,3.01C41.4,7087.792,41.247,7087.79,41.077,7087.8Z" transform="translate(-85.503 -177.876)" fill="#fb657d"/>
      <path id="Trazado_170979" data-name="Trazado 170979" d="M114.093,7041.245a12.645,12.645,0,0,1-.315-3.626c-.019-.632.195-.7.728-.556a3.112,3.112,0,0,1,1.653,4.861c-.192.252-.377.426-.725.3a.839.839,0,0,0-.4.016C114.087,7042.409,114.087,7042.411,114.093,7041.245Z" transform="translate(-148.461 -138.33)" fill="#f8cfb3"/>
      <path id="Trazado_170980" data-name="Trazado 170980" d="M-18.1,7038.607c.246,1.027-.522,2.11-.349,3.291a.35.35,0,0,1-.208.322,3.615,3.615,0,0,1-1.748-.325,2.974,2.974,0,0,1-.471-3.036,3.043,3.043,0,0,1,2.382-1.951c.314-.063.4.039.4.332C-18.111,7037.643-18.1,7038.047-18.1,7038.607Z" transform="translate(-35.964 -138.239)" fill="#f8cfb3"/>
      <path id="Trazado_170981" data-name="Trazado 170981" d="M20.952,7130.168c1.112,1.1,2.188,2.171,3.278,3.229.22.214.191.345-.019.535-.462.421-.869,1.147-1.368,1.212-.458.06-.874-.728-1.3-1.15C19.919,7132.384,19.924,7132.379,20.952,7130.168Z" transform="translate(-70.448 -216.037)" fill="#a7e446"/>
      <path id="Trazado_170982" data-name="Trazado 170982" d="M70.227,7133.037c.035.192-.152.282-.27.4-.712.715-1.438,1.416-2.141,2.139-.229.234-.377.3-.625.015-.394-.456-1.12-.844-1.172-1.319-.055-.5.723-.88,1.136-1.312.6-.633,1.242-1.23,1.847-1.861.253-.264.383-.326.521.093C69.726,7131.806,69.982,7132.4,70.227,7133.037Z" transform="translate(-108.626 -216.639)" fill="#a7e446"/>
      <path id="Trazado_170983" data-name="Trazado 170983" d="M43.377,7129.956c-.849.818-1.678,1.658-2.557,2.443a.834.834,0,0,1-1.107,0c-.837-.773-1.62-1.6-2.419-2.417-.036-.037-.024-.121-.047-.263a10.216,10.216,0,0,0,6.024.009Z" transform="translate(-84.632 -215.66)" fill="#f7cfb3"/>
      <path id="Trazado_170984" data-name="Trazado 170984" d="M148.344,7161l-2.221-4.043C147.754,7157.049,148.561,7158.441,148.344,7161Z" transform="translate(-175.439 -238.38)" fill="#fc4b52"/>
      <path id="Trazado_170985" data-name="Trazado 170985" d="M-49.362,7160.961c-.164-2.518.535-3.775,2.261-4.128Z" transform="translate(-12.377 -238.276)" fill="#fc4b52"/>
      <path id="Trazado_170986" data-name="Trazado 170986" d="M165.912,6911.976a.62.62,0,0,1-.6-.361.681.681,0,0,1,.1-.753q.686-.869,1.37-1.738c.748-.947,1.5-1.89,2.243-2.844.3-.383.643-.61,1.077-.284s.292.735,0,1.108q-1.792,2.26-3.577,4.525A.773.773,0,0,1,165.912,6911.976Z" transform="translate(-191.389 -28.937)" fill="#feca2e"/>
      <path id="Trazado_170987" data-name="Trazado 170987" d="M116.915,6943.993a.621.621,0,0,1-.629-.7.642.642,0,0,1,.7-.659.611.611,0,0,1,.629.706A.641.641,0,0,1,116.915,6943.993Z" transform="translate(-150.552 -59.621)" fill="#feca2e"/>
      <path id="Trazado_170988" data-name="Trazado 170988" d="M146.014,6961.153c-.441-.056-.688-.3-.654-.716a.661.661,0,0,1,.714-.653.61.61,0,0,1,.626.712A.669.669,0,0,1,146.014,6961.153Z" transform="translate(-174.8 -73.927)" fill="#feca2e"/>
    </g>
  </g>
</svg>
