<svg xmlns="http://www.w3.org/2000/svg" width="97" height="97" viewBox="0 0 97 97">
  <g id="Grupo_134239" data-name="Grupo 134239" transform="translate(-1256 -4662)">
    <g id="Elipse_5288" data-name="Elipse 5288" transform="translate(1256 4662)" fill="#dff7f9" stroke="#346d81" stroke-width="2">
      <circle cx="48.5" cy="48.5" r="48.5" stroke="none"/>
      <circle cx="48.5" cy="48.5" r="47.5" fill="none"/>
    </g>
    <g id="Grupo_134217" data-name="Grupo 134217" transform="translate(956.857 -2270.918)">
      <path id="Trazado_170989" data-name="Trazado 170989" d="M466.861,6986.325H450.143c-1.391,0-1.756-.6-1.169-1.878a14.237,14.237,0,0,0,.013-12.455c-.595-1.29-.2-1.907,1.235-1.908h33.372c1.28,0,1.553.275,1.553,1.552q0,6.616,0,13.231c0,1.155-.3,1.458-1.439,1.458Z" transform="translate(-108.039 -15.698)"/>
      <path id="Trazado_170990" data-name="Trazado 170990" d="M422.255,7120.055h-13.43c-.194,0-.388.01-.581-.006a.994.994,0,0,1-.927-1.493,8.956,8.956,0,0,0,.038-8.077,1.015,1.015,0,0,1,.938-1.54c.192-.017.387-.008.581-.008h26.861c1.367,0,1.617.25,1.617,1.617v7.877c0,1.4-.239,1.632-1.665,1.632Z" transform="translate(-73.934 -129.747)"/>
      <path id="Trazado_170991" data-name="Trazado 170991" d="M422.534,7223.235q-6.811,0-13.622,0c-1.342,0-1.716-.608-1.165-1.854a8.742,8.742,0,0,0-.024-7.428c-.531-1.178-.123-1.816,1.179-1.817q13.654,0,27.308,0c1.1,0,1.416.317,1.417,1.419q0,4.163,0,8.327c0,1.028-.322,1.352-1.342,1.353Q429.409,7223.237,422.534,7223.235Z" transform="translate(-74.19 -214.523)"/>
      <path id="Trazado_170992" data-name="Trazado 170992" d="M340.231,6962.495a11.528,11.528,0,1,1-11.791-11.521A11.54,11.54,0,0,1,340.231,6962.495Z" transform="translate(0 0.001)"/>
      <path id="Trazado_170993" data-name="Trazado 170993" d="M325.119,7199.76a7.73,7.73,0,1,1-7.773,7.673A7.757,7.757,0,0,1,325.119,7199.76Z" transform="translate(-0.139 -204.358)"/>
      <path id="Trazado_170994" data-name="Trazado 170994" d="M325.044,7096.837a7.716,7.716,0,1,1-7.7,7.672A7.729,7.729,0,0,1,325.044,7096.837Z" transform="translate(-0.14 -119.816)"/>
      <path id="Trazado_170995" data-name="Trazado 170995" d="M463.5,6993.558a16.761,16.761,0,0,0,1.1-5.013,15.979,15.979,0,0,0-.924-6.468c-.176-.483-.071-.588.416-.588q15.305.013,30.61,0c.43,0,.539.133.537.551q-.023,5.521,0,11.042c0,.359-.046.532-.479.531q-15.5-.018-31-.012A2.214,2.214,0,0,1,463.5,6993.558Z" transform="translate(-120.192 -25.064)" fill="#fc4b52"/>
      <path id="Trazado_170996" data-name="Trazado 170996" d="M434.926,7120.43c4.022,0,8.045.017,12.067-.018.647-.005.77.184.757.786-.041,1.87-.027,3.742-.006,5.613,0,.418-.056.593-.543.592q-12.2-.025-24.392,0c-.467,0-.576-.073-.433-.562a10.07,10.07,0,0,0,.012-5.782c-.154-.521-.083-.641.47-.638C426.882,7120.439,430.9,7120.43,434.926,7120.43Z" transform="translate(-86.365 -139.18)" fill="#feca2e"/>
      <path id="Trazado_170997" data-name="Trazado 170997" d="M421.929,7230.587a12,12,0,0,0,.546-3.514,9.2,9.2,0,0,0-.407-2.8c-.174-.525-.074-.635.47-.632,4.262.02,8.524.011,12.786.011,3.832,0,7.663.008,11.495-.012.476,0,.617.1.609.6-.031,1.958-.021,3.917,0,5.876,0,.37-.056.517-.481.516q-12.334-.021-24.668-.012C422.171,7230.622,422.069,7230.6,421.929,7230.587Z" transform="translate(-86.045 -223.977)" fill="#feca2e"/>
      <path id="Trazado_170998" data-name="Trazado 170998" d="M347.618,6972.369a9.458,9.458,0,1,1-18.888-1.02,9.458,9.458,0,0,1,18.888,1.02Z" transform="translate(-9.476 -9.487)" fill="#fc4b52"/>
      <path id="Trazado_170999" data-name="Trazado 170999" d="M340.247,7217.169a5.667,5.667,0,1,1-5.662-5.669A5.682,5.682,0,0,1,340.247,7217.169Z" transform="translate(-9.641 -214.002)" fill="#a7e446"/>
      <path id="Trazado_171000" data-name="Trazado 171000" d="M334.559,7108.6a5.655,5.655,0,0,1,5.689,5.567,5.667,5.667,0,1,1-11.332.121A5.678,5.678,0,0,1,334.559,7108.6Z" transform="translate(-9.642 -129.482)" fill="#a7e446"/>
      <path id="Trazado_171001" data-name="Trazado 171001" d="M542.23,7026.179q3.034,0,6.068,0c.83,0,1.27.367,1.268,1.036s-.44,1.027-1.276,1.028q-6.1,0-12.2,0c-.846,0-1.286-.346-1.3-1-.017-.689.435-1.059,1.31-1.061Q539.164,7026.175,542.23,7026.179Z" transform="translate(-178.748 -61.775)"/>
      <path id="Trazado_171002" data-name="Trazado 171002" d="M486.69,6996.438q2.84,0,5.68,0c.824,0,1.288.378,1.282,1.023s-.481,1.04-1.285,1.04q-5.68.006-11.361,0c-1,0-1.556-.812-1.107-1.561a1.09,1.09,0,0,1,1.045-.5C482.86,6996.443,484.775,6996.438,486.69,6996.438Z" transform="translate(-133.535 -37.344)"/>
      <path id="Trazado_171003" data-name="Trazado 171003" d="M573.431,6996.444c1.032,0,2.063-.006,3.1,0,.771,0,1.2.383,1.2,1.031a1.017,1.017,0,0,1-1.149,1.029q-3.159.017-6.319,0a1.089,1.089,0,0,1-1.19-1.082c.023-.593.481-.974,1.207-.979C571.325,6996.438,572.378,6996.444,573.431,6996.444Z" transform="translate(-206.904 -37.349)"/>
      <path id="Trazado_171004" data-name="Trazado 171004" d="M483.8,7026.169c.882,0,1.764-.009,2.645,0a1.037,1.037,0,1,1,.006,2.06q-2.742.015-5.483,0a1.032,1.032,0,1,1-.006-2.057C481.909,7026.159,482.855,7026.169,483.8,7026.169Z" transform="translate(-133.624 -61.765)"/>
      <path id="Trazado_171005" data-name="Trazado 171005" d="M437.34,7136.854c-1.439,0-2.878,0-4.317,0-.812,0-1.282-.391-1.278-1.031s.488-1.03,1.291-1.032c2.9,0,5.8,0,8.7,0a1.064,1.064,0,0,1,1.193.763.979.979,0,0,1-.517,1.2,1.454,1.454,0,0,1-.755.108C440.217,7136.856,438.778,7136.854,437.34,7136.854Z" transform="translate(-94.108 -150.986)"/>
      <path id="Trazado_171006" data-name="Trazado 171006" d="M504.513,7136.833c-.837,0-1.674.012-2.51,0a1.023,1.023,0,0,1-1.108-1,1.042,1.042,0,0,1,1.13-1.056q2.478-.023,4.956,0a1.035,1.035,0,1,1-.022,2.058C506.144,7136.843,505.329,7136.834,504.513,7136.833Z" transform="translate(-150.909 -150.967)"/>
      <path id="Trazado_171007" data-name="Trazado 171007" d="M437.336,7241c-1.439,0-2.878,0-4.317,0-.81,0-1.281-.4-1.273-1.037s.49-1.026,1.3-1.027c2.9,0,5.8,0,8.7,0a1.059,1.059,0,0,1,1.19.766.978.978,0,0,1-.521,1.193,1.47,1.47,0,0,1-.755.108C440.214,7241,438.775,7241,437.336,7241Z" transform="translate(-94.108 -236.531)"/>
      <path id="Trazado_171008" data-name="Trazado 171008" d="M504.485,7240.978c-.815,0-1.631.011-2.446,0a1.027,1.027,0,0,1-1.139-1.034,1.047,1.047,0,0,1,1.162-1.024q2.446-.018,4.892,0a1.051,1.051,0,0,1,1.172,1.015c.013.628-.44,1.036-1.195,1.045C506.115,7240.986,505.3,7240.978,504.485,7240.978Z" transform="translate(-150.913 -236.513)"/>
      <path id="Trazado_171009" data-name="Trazado 171009" d="M352.354,6977.909a8.138,8.138,0,1,1-8.086-8.156A8.114,8.114,0,0,1,352.354,6977.909Z" transform="translate(-15.525 -15.426)"/>
      <path id="Trazado_171010" data-name="Trazado 171010" d="M359.816,6987.447a6.072,6.072,0,0,1-12.144,0,6.158,6.158,0,0,1,6.29-6.078A6.064,6.064,0,0,1,359.816,6987.447Z" transform="translate(-25.049 -24.97)" fill="#a7e446"/>
      <path id="Trazado_171011" data-name="Trazado 171011" d="M370.286,6998.923c0,.882.009,1.765,0,2.647-.011.818-.4,1.266-1.065,1.251-.637-.013-.992-.441-1-1.239-.008-1.313-.018-2.626.007-3.938.008-.418-.1-.548-.534-.541-1.078.018-1.532-.312-1.532-1.023s.47-1.031,1.533-1.032c.452,0,.9-.005,1.356,0,.844.012,1.216.372,1.231,1.226C370.3,6997.158,370.286,6998.04,370.286,6998.923Z" transform="translate(-40.238 -36.203)"/>
    </g>
  </g>
</svg>
