<svg xmlns="http://www.w3.org/2000/svg" width="86.979" height="86.999" viewBox="0 0 86.979 86.999">
  <g id="Grupo_129087" data-name="Grupo 129087" transform="translate(-5817.185 -4378.879)">
    <path id="Trazado_165581" data-name="Trazado 165581" d="M5859.189,4378.879h2.885a10.742,10.742,0,0,1,6.053,2.335,2.009,2.009,0,0,0,1.29.326c1.386,0,2.771-.024,4.156,0a14.352,14.352,0,0,1,13.636,17.51c-.066.3-.108.613-.186.914a5.609,5.609,0,0,0,.141,3.368,7.131,7.131,0,0,1-6.835,9.374c-1.215.007-1.225,0-1.5,1.2a12.709,12.709,0,0,1-5.533,7.938c-.605.409-.544.631-.077,1.049a17.891,17.891,0,0,1,4.729,6.945,13.6,13.6,0,0,1,.65,2.193c.135.648.473.749,1.042.518a3.174,3.174,0,0,0,1.917-2.224c.35-1.226.411-1.267,1.706-1.269,1.894,0,3.789-.008,5.684,0,.984.005,1.1.111,1.335,1.047a3.084,3.084,0,0,0,4.826,2.1c.889-.493,1.024-.484,1.76.244q2.111,2.088,4.2,4.2c.724.731.727.811.227,1.668a3.107,3.107,0,0,0,1.925,4.863,2.093,2.093,0,0,1,.94.354v7.977a2.2,2.2,0,0,1-1.065.487,3.012,3.012,0,0,0-1.88,4.564c.64,1.179.634,1.248-.3,2.184q-1.945,1.955-3.9,3.9c-.8.79-.951.8-1.909.269-2.128-1.188-4.06-.419-4.748,1.949a1.169,1.169,0,0,1-1.362,1.009c-2.034-.06-4.072-.057-6.107,0-.779.021-1.229-.148-1.343-.983a2.71,2.71,0,0,0-.58-1.305,3.039,3.039,0,0,0-4.025-.8c-1.181.638-1.183.64-2.147-.322-1.3-1.3-2.606-2.593-3.9-3.9-.782-.794-.8-.946-.283-1.914,1.281-2.421-.1-4.713-2.849-4.719q-6.277-.011-12.555,0c-1.2,0-1.214.019-1.215,1.249q0,4.454,0,8.908a6.493,6.493,0,0,1-.091,1.351,2.82,2.82,0,0,1-2.927,2.413q-15.482.01-30.964,0a2.535,2.535,0,0,1-2.828-2.842q-.015-14.125,0-28.25a2.7,2.7,0,0,1,2.668-2.817c.367-.028.735-.016,1.1-.016q10.35,0,20.7,0c1.324,0,1.308-.007,1.728-1.218a18.7,18.7,0,0,1,4.641-7.5c.832-.8.8-.8-.131-1.47a12.869,12.869,0,0,1-5.334-7.893c-.24-1.105-.264-1.106-1.411-1.117a7.3,7.3,0,0,1-7.312-6.916,6.314,6.314,0,0,1,.567-2.972,2.95,2.95,0,0,0,.186-1.893c-.224-1.05-.461-2.1-.6-3.165a14.349,14.349,0,0,1,12.257-16.185,39.025,39.025,0,0,1,5.339-.062,3.562,3.562,0,0,0,2.28-.7A9.845,9.845,0,0,1,5859.189,4378.879Z"/>
    <path id="Trazado_165582" data-name="Trazado 165582" d="M5845.307,4653.945c-4.835,0-9.671-.013-14.506.015-.679,0-.915-.139-.912-.873q.039-13.149,0-26.3c0-.711.2-.92.9-.89,1.3.056,2.6.059,3.9,0,.705-.033.854.226.836.868-.041,1.5-.023,3-.01,4.5a2.818,2.818,0,0,0,3.121,3.084q6.659.007,13.319,0a2.835,2.835,0,0,0,3.153-3.137c0-1.556.016-3.111-.008-4.666-.007-.469.118-.648.614-.639,1.47.028,2.941.031,4.411,0,.521-.011.6.21.6.654q-.013,13.361.011,26.722c0,.71-.353.67-.835.669Q5852.6,4653.938,5845.307,4653.945Z" transform="translate(-9.822 -190.988)" fill="#c21d23"/>
    <path id="Trazado_165583" data-name="Trazado 165583" d="M5941.048,4462.339c0-2.149-.006-4.3,0-6.448.008-2.053,1.278-3.043,3.282-2.566,3.156.751,6.272,1.671,9.461,2.28a18.537,18.537,0,0,0,4.556.326,5.117,5.117,0,0,0,3.144-1.319.957.957,0,0,1,.979-.267,36.6,36.6,0,0,0,8.979,1.616c.3,0,.465.082.458.433-.084,4.521.294,9.06-.172,13.562a9.605,9.605,0,0,1-9.53,8.439q-5.726.081-11.453,0a9.806,9.806,0,0,1-9.687-9.608c-.062-2.147-.01-4.3-.01-6.448Z" transform="translate(-95.76 -57.469)" fill="#efcfb3"/>
    <path id="Trazado_165584" data-name="Trazado 165584" d="M5917.786,4394.17c-.3.624-.532,1.164-.813,1.676-.261.474-.132.706.363.864.616.2,1.248.691,1.813.614.651-.089.638-1.023.976-1.557a8.642,8.642,0,0,1,8.68-4.3,8.388,8.388,0,0,1,7.208,5.288c.274.621.535.7,1.14.437,1.835-.791,1.846-.765.953-2.544-.06-.12-.105-.248-.164-.385,7.245-.913,12.562,3.448,13.576,9.478a12.854,12.854,0,0,1-.267,5.046c-.086.372-.273.372-.549.218a7.305,7.305,0,0,0-3.937-.789c-.263.01-.6.1-.708-.284-.1-.353.093-.553.366-.769,2.212-1.751,2.991-4.046,2.11-6.429a5.469,5.469,0,0,0-4.476-3.687c-.562-.1-.878.053-.788.692a1.683,1.683,0,0,1,0,.423c-.106.943-.015,1.6,1.165,1.94a2.572,2.572,0,0,1,1.548,3.133,2.842,2.842,0,0,1-2.719,2.14,31.436,31.436,0,0,1-8.156-1.356c-.484-.116-.348-.406-.318-.707a5.51,5.51,0,0,0-2.475-5.407,5.016,5.016,0,0,0-2.445-.874c-.463-.042-.7.087-.653.593a3.459,3.459,0,0,1,0,.762c-.109.864.056,1.4,1.081,1.647a2.644,2.644,0,0,1,1.73,2.888,2.8,2.8,0,0,1-2.713,2.45c-2.951.082-5.748-.751-8.567-1.449-1.562-.386-3.119-.786-4.683-1.158a5.057,5.057,0,0,0-6.391,4.739c-.032.553-.209.753-.754.721a7.009,7.009,0,0,0-3.936.777c-.357.2-.467.067-.565-.3a11.422,11.422,0,0,1,11.1-14.533C5916.236,4394.166,5916.962,4394.17,5917.786,4394.17Z" transform="translate(-67.122 -9.69)" fill="#12263f"/>
    <path id="Trazado_165585" data-name="Trazado 165585" d="M6079.76,4619.555c-.032.089-.09.218-.126.354a6.045,6.045,0,0,0,2.864,6.97c.426.247.648.492.579.982a2.235,2.235,0,0,0,0,.508,3.241,3.241,0,0,1-1.471,3.434c-2.087,1.434-2.587,3.752-1.958,6.211a.9.9,0,0,1-.3,1.09,2.784,2.784,0,0,0-.36.36,3.187,3.187,0,0,1-3.379,1.375c-2.522-.467-4.539.791-5.859,3.013-.23.387-.451.614-.916.545a2.251,2.251,0,0,0-.593,0,3.212,3.212,0,0,1-3.417-1.5c-1.469-2.068-3.775-2.549-6.23-1.917a.833.833,0,0,1-1.021-.272,2.136,2.136,0,0,0-.358-.36,3.253,3.253,0,0,1-1.407-3.524c.425-2.5-.833-4.478-3.035-5.76a.833.833,0,0,1-.518-.926,2.079,2.079,0,0,0,0-.508,3.276,3.276,0,0,1,1.512-3.491c2.006-1.417,2.523-3.672,1.92-6.07a1.057,1.057,0,0,1,.382-1.3,1.267,1.267,0,0,0,.24-.239,3.261,3.261,0,0,1,3.526-1.4c2.464.416,4.432-.809,5.708-2.975a.95.95,0,0,1,1.063-.58,2.252,2.252,0,0,0,.593,0,3.059,3.059,0,0,1,3.259,1.455,5.415,5.415,0,0,0,6.129,1.973,1.129,1.129,0,0,1,1.3.385c.491.545,1.033,1.045,1.548,1.57C6079.586,4619.114,6079.809,4619.232,6079.76,4619.555Z" transform="translate(-181.716 -181.431)" fill="#feca2e"/>
    <path id="Trazado_165586" data-name="Trazado 165586" d="M5945.061,4585.725c.516-2.881,3.489-7.072,5.807-8.217.849,2.115,1.7,4.229,2.641,6.577.742-.789,1.375-1.488,2.044-2.152.182-.18.3-.615.723-.348.344.22.346.529.264.892q-.9,4-1.786,8.016c-.257,1.157-.5,2.318-.778,3.469a.949.949,0,0,0,.292,1.04q2.46,2.4,4.86,4.857c.377.388.58.353.937-.014q2.339-2.4,4.739-4.737a1.164,1.164,0,0,0,.384-1.252c-.837-3.659-1.643-7.325-2.458-10.989a6.92,6.92,0,0,1-.15-.747c-.033-.3.2-.462.41-.593.234-.148.35.107.475.232.717.714,1.421,1.439,2.228,2.262l1.928-4.815c.084-.209.175-.416.259-.625.538-1.346.545-1.355,1.624-.432a15.716,15.716,0,0,1,4.7,6.926.972.972,0,0,1-.267,1.184c-1.441,1.4-2.836,2.843-4.276,4.241a.74.74,0,0,0-.143,1.127c1.555,2.449.62,4.74-2.2,5.4-.579.136-.778.34-.754.944.051,1.3,0,2.6.026,3.9.011.491-.089.686-.643.683-4.241-.024-8.483-.031-12.726,0-.677.006-.63-.331-.63-.777q.009-6.363,0-12.726c0-2.278-1.045-3.328-3.306-3.331C5947.884,4585.723,5946.478,4585.725,5945.061,4585.725Z" transform="translate(-98.872 -153.575)" fill="#a7e446"/>
    <path id="Trazado_165587" data-name="Trazado 165587" d="M5873.908,4625.921c2.092,0,4.184.017,6.275-.011.572-.007.8.139.787.754-.041,1.384-.036,2.771,0,4.155.014.563-.175.712-.727.716-2.1.016-2.115.036-2.107-2.015,0-.567-.115-.779-.736-.776-2.018.009-2.037-.018-2.035,2,0,.562-.117.789-.741.79-2.078,0-2.1.029-2.091-2.03,0-.585-.144-.767-.749-.763-2,.012-2.024-.014-2.024,2.015,0,.576-.145.777-.753.778-2.091,0-2.091.026-2.091-2.043,0-.961.034-1.924-.013-2.883-.029-.583.2-.707.729-.7C5869.725,4625.936,5871.816,4625.921,5873.908,4625.921Z" transform="translate(-38.44 -191)" fill="#c21d23"/>
    <path id="Trazado_165588" data-name="Trazado 165588" d="M5997.517,4611.783c.561-2.534,1.106-5.011,1.655-7.486.189-.853.39-1.7.581-2.555.049-.218.045-.466.371-.465s.319.249.368.467q1.1,4.951,2.206,9.9a.7.7,0,0,1-.23.743q-1,.972-1.977,1.976c-.223.229-.391.365-.68.061-.681-.716-1.389-1.406-2.091-2.1C5997.547,4612.152,5997.425,4611.979,5997.517,4611.783Z" transform="translate(-139.406 -171.955)" fill="#fc4b52"/>
    <path id="Trazado_165589" data-name="Trazado 165589" d="M5909.469,4481.2c-.413-.449-.835-.891-1.235-1.351-.246-.284-.437-.376-.734-.038-.485.549-1.347,1.01-1.435,1.6-.094.626.865,1.06,1.354,1.586.614.664,1.261,1.3,1.917,1.921a.858.858,0,0,1,.3.981c-.138.346-.5.178-.757.181-2.308.028-3.915-.959-4.571-2.787a4.219,4.219,0,0,1,3.872-5.633c1.5-.059,1.5-.059,1.5,1.419v1.951Z" transform="translate(-67.166 -76.363)" fill="#efcfb3"/>
    <path id="Trazado_165590" data-name="Trazado 165590" d="M6089.335,4480.881c0-1.131,0-2.135,0-3.138,0-.216.044-.349.3-.413a4.523,4.523,0,0,1,5.109,2.957,4.19,4.19,0,0,1-2.495,5.181,5.222,5.222,0,0,1-2.163.292c-.255-.013-.616.16-.73-.218a.867.867,0,0,1,.286-.912c1.011-.983,1.978-2.013,3.007-2.976.443-.414.444-.676-.019-1.043-.524-.416-.9-1.289-1.471-1.28-.477.008-.939.792-1.412,1.229C6089.654,4480.649,6089.545,4480.72,6089.335,4480.881Z" transform="translate(-210.411 -76.041)" fill="#efcfb3"/>
    <path id="Trazado_165591" data-name="Trazado 165591" d="M6004.27,4582.207c-.2,0-.394.013-.589,0a1.051,1.051,0,0,1-.812-.655c-.134-.255.218-.4.376-.562,1.012-1.046,1.02-1.046,2.025-.012.161.166.512.313.39.562a1.055,1.055,0,0,1-.8.666A5.637,5.637,0,0,1,6004.27,4582.207Z" transform="translate(-143.545 -155.66)" fill="#fc4b52"/>
    <path id="Trazado_165592" data-name="Trazado 165592" d="M5985.916,4576.759l-1.562,1.666c-.229-.575-.433-1.084-.665-1.666Z" transform="translate(-128.739 -152.998)" fill="#85b538"/>
    <path id="Trazado_165593" data-name="Trazado 165593" d="M6026.655,4577.922l-1.471-1.586c.121-.092.351-.015.559-.007.493.018,1.271-.218,1.412.1C6027.35,4576.879,6026.877,4577.447,6026.655,4577.922Z" transform="translate(-160.822 -152.614)" fill="#85b538"/>
    <path id="Trazado_165594" data-name="Trazado 165594" d="M5868.339,4715.361c-1.375,0-1.375,0-1.375-1.367,0-1.42,0-1.42,1.391-1.42,1.435,0,1.435,0,1.435,1.476a2.153,2.153,0,0,0,0,.337c.119.75-.145,1.117-.947.979A3.013,3.013,0,0,0,5868.339,4715.361Z" transform="translate(-38.489 -258.008)" fill="#010101"/>
    <path id="Trazado_165595" data-name="Trazado 165595" d="M5894.5,4713.991c0,1.37,0,1.37-1.645,1.37-1.185,0-1.185,0-1.183-1.815,0-.974,0-.974,1.842-.972C5894.5,4712.575,5894.5,4712.575,5894.5,4713.991Z" transform="translate(-57.591 -258.008)" fill="#010101"/>
    <path id="Trazado_165596" data-name="Trazado 165596" d="M5919.208,4713.937c0,1.425,0,1.425-1.421,1.425s-1.41,0-1.41-1.423c0-1.364,0-1.364,1.367-1.364h.085C5919.208,4712.574,5919.208,4712.574,5919.208,4713.937Z" transform="translate(-76.694 -258.008)" fill="#010101"/>
    <path id="Trazado_165597" data-name="Trazado 165597" d="M5985.294,4514.829c2.091,0,4.182.021,6.272-.014.57-.009.688.175.693.713.035,3.923-2.057,6.772-5.574,7.534a6.978,6.978,0,0,1-8.41-6.512c-.066-1.721-.066-1.721,1.678-1.721Z" transform="translate(-124.538 -105.103)"/>
    <path id="Trazado_165598" data-name="Trazado 165598" d="M6033.332,4471.118a3.758,3.758,0,1,1-3.749-3.768A3.736,3.736,0,0,1,6033.332,4471.118Z" transform="translate(-161.311 -68.405)"/>
    <path id="Trazado_165599" data-name="Trazado 165599" d="M5966.783,4471.1a3.758,3.758,0,1,1-3.767-3.752A3.741,3.741,0,0,1,5966.783,4471.1Z" transform="translate(-109.856 -68.405)"/>
    <path id="Trazado_165600" data-name="Trazado 165600" d="M6096.739,4648.272a9.8,9.8,0,1,1-9.812-9.8A9.809,9.809,0,0,1,6096.739,4648.272Z" transform="translate(-200.997 -200.712)"/>
    <path id="Trazado_165601" data-name="Trazado 165601" d="M5999.92,4527.263a4.154,4.154,0,0,1-4.093,2.791,3.972,3.972,0,0,1-3.635-2.791Z" transform="translate(-135.313 -114.728)" fill="#c21d23"/>
    <path id="Trazado_165602" data-name="Trazado 165602" d="M6038.991,4479.116a1.409,1.409,0,1,1-1.421-1.393A1.461,1.461,0,0,1,6038.991,4479.116Z" transform="translate(-169.319 -76.425)" fill="#965422"/>
    <path id="Trazado_165603" data-name="Trazado 165603" d="M5972.44,4479.147a1.41,1.41,0,1,1-1.394-1.425A1.465,1.465,0,0,1,5972.44,4479.147Z" transform="translate(-117.862 -76.424)" fill="#965422"/>
    <path id="Trazado_165604" data-name="Trazado 165604" d="M6103.431,4657.718a7.013,7.013,0,1,1-7.034-6.993A7.047,7.047,0,0,1,6103.431,4657.718Z" transform="translate(-210.477 -210.187)" fill="#feca2e"/>
    <path id="Trazado_165605" data-name="Trazado 165605" d="M6106.036,4671.551a4.19,4.19,0,1,1,4.195-4.183A4.173,4.173,0,0,1,6106.036,4671.551Z" transform="translate(-220.099 -219.809)"/>
    <path id="Trazado_165606" data-name="Trazado 165606" d="M6116.951,4676.906a1.4,1.4,0,1,1-2.807-.049,1.4,1.4,0,0,1,2.807.049Z" transform="translate(-229.604 -229.328)" fill="#feca2e"/>
  </g>
</svg>
