<svg xmlns="http://www.w3.org/2000/svg" width="81.971" height="81.601" viewBox="0 0 81.971 81.601">
  <g id="Grupo_129088" data-name="Grupo 129088" transform="translate(-5347.455 -4407.89)">
    <path id="Trazado_165562" data-name="Trazado 165562" d="M5533.889,4467.792c-.177.252-.348.508-.53.775.645.254,1.249.489,1.849.731a9.28,9.28,0,0,1,2.2,1.267c3.021,2.328,3.069,5.635.087,8.014a13.347,13.347,0,0,1-6.564,2.561,20.83,20.83,0,0,1-11.027-1.1,8.787,8.787,0,0,1-3.589-2.5,4.351,4.351,0,0,1,.04-5.888,10.16,10.16,0,0,1,4.479-2.808c.156-.057.313-.109.468-.163.069-.3-.156-.429-.278-.6a162.664,162.664,0,0,1-9.857-14.45,49.673,49.673,0,0,1-6.271-16.035c-1.142-6.276-.815-12.348,2.451-18.033a23.123,23.123,0,0,1,42.928,7.788c.855,5.316-.086,10.442-1.8,15.456" transform="translate(-121.167 0.001)"/>
    <path id="Trazado_165563" data-name="Trazado 165563" d="M5389.324,4605.123a17.673,17.673,0,0,1-23.682,16.672,1.025,1.025,0,0,0-1.309.279c-.8.876-1.668,1.7-2.514,2.536-.95.94-1.645.987-2.509,0-.575-.653-.9-.547-1.419.035-.909,1.011-1.9,1.947-2.864,2.906a1.46,1.46,0,0,1-2.409.031q-1.725-1.7-3.428-3.427a1.407,1.407,0,0,1,.015-2.339c1.055-1.069,2.108-2.141,3.194-3.18.355-.341.407-.522.021-.9-1.306-1.289-1.285-1.7.005-2.99.782-.782,1.534-1.6,2.357-2.332a.965.965,0,0,0,.257-1.248,17.674,17.674,0,1,1,34.285-6.045Z" transform="translate(-0.863 -138.715)"/>
    <path id="Trazado_165564" data-name="Trazado 165564" d="M5364.925,4493.292c-5.189,0-10.379-.012-15.567.017-.628,0-.8-.135-.789-.78.041-1.949.01-1.98,1.974-1.942.635.013.8-.143.785-.783-.049-1.813,0-3.629-.028-5.444-.008-.479.126-.6.606-.61,2.128-.023,2.127-.041,2.127,2.057,0,1.389.021,2.78-.011,4.168-.011.483.129.619.61.607,1.388-.031,2.779-.04,4.167,0,.559.017.7-.144.694-.7-.028-3.175,0-6.352-.027-9.527-.005-.554.14-.7.695-.7,2.042.013,2.042-.009,2.042,2.058,0,2.723.016,5.445-.014,8.167-.006.556.14.712.7.7,1.388-.042,2.779-.035,4.168,0,.482.011.614-.129.607-.609-.027-1.871.005-3.744-.021-5.614-.008-.482.13-.6.607-.609,2.126-.023,2.126-.04,2.126,2.058,0,1.39.021,2.781-.012,4.169-.012.485.132.616.611.605,1.388-.031,2.779-.04,4.167,0,.562.018.7-.148.692-.7-.027-3.177,0-6.352-.027-9.528,0-.558.146-.7.7-.694,2.04.013,2.04-.009,2.04,2.06,0,2.722.017,5.445-.014,8.167-.006.559.145.71.7.7.665-.015,1.555-.319,1.94.136.324.384.051,1.246.11,1.89.052.568-.151.693-.7.691C5375.361,4493.285,5370.144,4493.292,5364.925,4493.292Z" transform="translate(-0.86 -55.448)"/>
    <path id="Trazado_165565" data-name="Trazado 165565" d="M5383,4419.91c1.009-.019,1.67.6,1.561,1.486-.281,2.276-.592,4.55-.956,6.814a1.337,1.337,0,0,1-2.288.744,12.969,12.969,0,0,1-1.44-1.444c-.43-.519-.747-.542-1.3-.118-3.014,2.306-6.064,4.564-9.1,6.839-1.156.865-1.394.873-2.565.091-2.166-1.445-4.336-2.885-6.493-4.346a1.017,1.017,0,0,0-1.141-.1c-3.422,1.549-6.87,3.041-10.287,4.6-.6.273-.793.152-1.031-.4-.771-1.795-.793-1.788,1-2.583,3.355-1.491,6.722-2.959,10.063-4.485a1.946,1.946,0,0,1,2.127.19c2.125,1.454,4.284,2.858,6.419,4.3.355.239.6.348,1.019.027q4.083-3.122,8.229-6.162c.481-.354.394-.546.023-.876a14.7,14.7,0,0,1-1.323-1.323,1.305,1.305,0,0,1,.708-2.233C5378.5,4420.531,5380.808,4420.23,5383,4419.91Z" transform="translate(0 -9.285)"/>
    <path id="Trazado_165566" data-name="Trazado 165566" d="M5530.137,4472.546c-5.06-6.89-9.865-13.925-12.342-22.244a31.841,31.841,0,0,1-1.346-12.335,20.41,20.41,0,0,1,40.25-1.744,24.694,24.694,0,0,1-.746,12.334,47.425,47.425,0,0,1-7.6,10.892,55.364,55.364,0,0,1-13.522,10.983c-1.17.689-2.356,1.356-3.59,1.93C5530.9,4472.52,5530.558,4472.808,5530.137,4472.546Z" transform="translate(-130.45 -9.35)" fill="#fc4b52"/>
    <path id="Trazado_165567" data-name="Trazado 165567" d="M5577.09,4569.564a33.384,33.384,0,0,0,6.7-3.6,55.879,55.879,0,0,0,7.565-5.82,54.421,54.421,0,0,0,11.133-14.064c.109-.2.187-.417.421-.509a37.723,37.723,0,0,1-3.086,8.247,117.565,117.565,0,0,1-10.59,16.91q-2.594,3.634-5.169,7.28c-.255.362-.412.58-.773.078C5581.235,4575.239,5579.158,4572.4,5577.09,4569.564Z" transform="translate(-177.404 -106.368)" fill="#c21d23"/>
    <path id="Trazado_165568" data-name="Trazado 165568" d="M5574.091,4693.213a17.755,17.755,0,0,1-7.223-1.338,6.034,6.034,0,0,1-2.154-1.475,1.694,1.694,0,0,1,.008-2.572,8.844,8.844,0,0,1,4.4-2.251c.383-.107.485.22.641.433q1.178,1.61,2.334,3.238c1.188,1.668,1.98,1.669,3.12,0,.752-1.1,1.518-2.187,2.275-3.281.179-.26.323-.507.734-.392a10.22,10.22,0,0,1,3.966,1.851c1.33,1.123,1.332,2.295-.022,3.4a11.558,11.558,0,0,1-5.806,2.18A13.65,13.65,0,0,1,5574.091,4693.213Z" transform="translate(-167.389 -214.506)" fill="#bebebc"/>
    <path id="Trazado_165569" data-name="Trazado 165569" d="M5384.283,4614.425a14.958,14.958,0,1,1,14.956,14.978A14.939,14.939,0,0,1,5384.283,4614.425Z" transform="translate(-28.451 -147.989)" fill="#a7e446"/>
    <path id="Trazado_165570" data-name="Trazado 165570" d="M5383.878,4712.514a.534.534,0,0,1-.044.116c-1.568,1.882-1.569,1.883-3.275.181-1.26-1.257-2.507-2.529-3.785-3.77-.347-.336-.368-.558,0-.874.469-.4.875-1.136,1.361-1.182.456-.043.7.837,1.061,1.3A17.939,17.939,0,0,0,5383.878,4712.514Z" transform="translate(-22.443 -231.064)" fill="#a7e446"/>
    <path id="Trazado_165571" data-name="Trazado 165571" d="M5366.5,4731.1c.231.264.459.554.717.814,1.081,1.092,1.084,1.089,0,2.174-.14.141-.273.287-.419.418-.479.431-.965,1.361-1.38,1.235-.647-.2-1.114-.978-1.663-1.506-.174-.167-.2-.312-.015-.5.823-.814,1.638-1.636,2.46-2.453A2.079,2.079,0,0,1,5366.5,4731.1Z" transform="translate(-12.485 -249.694)" fill="#a7e446"/>
    <path id="Trazado_165572" data-name="Trazado 165572" d="M5490.1,4435.374l-1.77-1.738c.137-.023.236-.042.336-.056C5490.673,4433.289,5490.673,4433.289,5490.1,4435.374Z" transform="translate(-108.832 -19.741)" fill="#feca2e"/>
    <path id="Trazado_165573" data-name="Trazado 165573" d="M5563.638,4449.507a17.7,17.7,0,1,1-17.71-17.667A17.736,17.736,0,0,1,5563.638,4449.507Z" transform="translate(-139.665 -18.503)"/>
    <path id="Trazado_165574" data-name="Trazado 165574" d="M5396.234,4623.646a12.232,12.232,0,1,1,12.146,12.293A12.212,12.212,0,0,1,5396.234,4623.646Z" transform="translate(-37.684 -157.253)"/>
    <path id="Trazado_165575" data-name="Trazado 165575" d="M5540.213,4458.771a14.976,14.976,0,1,1,14.958,15A15,15,0,0,1,5540.213,4458.771Z" transform="translate(-148.915 -27.751)" fill="#d8d8d6"/>
    <path id="Trazado_165576" data-name="Trazado 165576" d="M5408.2,4632.954a9.511,9.511,0,1,1,9.507,9.512A9.519,9.519,0,0,1,5408.2,4632.954Z" transform="translate(-46.926 -166.501)" fill="#d8d8d6"/>
    <path id="Trazado_165577" data-name="Trazado 165577" d="M5583.457,4475.951c0-.454-.013-.908,0-1.361.038-1.1.135-2.2-1-2.937-.367-.237-.374-.729-.372-1.17.01-1.7,0-3.4,0-5.1a3.909,3.909,0,0,1,1.438-3.135.652.652,0,0,0,.246-.9,3.97,3.97,0,0,1,1.347-4.766,4.051,4.051,0,0,1,4.834.005,3.972,3.972,0,0,1,1.34,4.769.6.6,0,0,0,.192.84,4.053,4.053,0,0,1,1.5,3.366c-.017,1.559-.034,3.12.01,4.678a2.091,2.091,0,0,1-.793,1.864,1.537,1.537,0,0,0-.6,1.394c.042,1.7.02,3.4.012,5.1,0,1.212-.483,1.685-1.707,1.689-1.617.005-3.233.009-4.849,0-1.108-.007-1.6-.5-1.609-1.615C5583.448,4477.767,5583.457,4476.858,5583.457,4475.951Z" transform="translate(-181.267 -36.999)"/>
    <path id="Trazado_165578" data-name="Trazado 165578" d="M5431.943,4636.719c0,.254-.013.509,0,.762.024.369-.02.568-.495.657a2.583,2.583,0,0,0-2.179,2.192c-.078.41-.213.5-.586.479a8.916,8.916,0,0,0-1.523,0c-.693.08-.708-.264-.621-.787a5.467,5.467,0,0,1,4.4-4.567c1-.206,1-.206,1,.836Z" transform="translate(-61.07 -175.725)"/>
    <path id="Trazado_165579" data-name="Trazado 165579" d="M5595.423,4502.281a13.465,13.465,0,0,1,.008-1.446,2.623,2.623,0,0,0-1.044-2.614.892.892,0,0,1-.332-.818c.014-1.418-.009-2.836.011-4.254a1.354,1.354,0,0,1,1.48-1.484c.851-.02,1.7-.024,2.553,0a1.321,1.321,0,0,1,1.4,1.39c.029,1.474-.013,2.95.022,4.423a1.182,1.182,0,0,1-.577.972,2.246,2.246,0,0,0-.811,1.949c.048,1.416,0,2.836.023,4.253.008.463-.1.624-.6.633-2.131.042-2.131.06-2.131-2.072Z" transform="translate(-190.511 -64.708)" fill="#feca2e"/>
    <path id="Trazado_165580" data-name="Trazado 165580" d="M5601.433,4467.774a1.357,1.357,0,1,1-1.344,1.348A1.367,1.367,0,0,1,5601.433,4467.774Z" transform="translate(-195.172 -46.263)" fill="#feca2e"/>
  </g>
</svg>
