<svg xmlns="http://www.w3.org/2000/svg" width="97" height="97" viewBox="0 0 97 97">
  <g id="Grupo_134235" data-name="Grupo 134235" transform="translate(-248 -4662)">
    <g id="Elipse_5284" data-name="Elipse 5284" transform="translate(248 4662)" fill="#dff7f9" stroke="#346d81" stroke-width="2">
      <circle cx="48.5" cy="48.5" r="48.5" stroke="none"/>
      <circle cx="48.5" cy="48.5" r="47.5" fill="none"/>
    </g>
    <g id="Grupo_134213" data-name="Grupo 134213" transform="translate(1591.327 -2270.951)">
      <path id="Trazado_170892" data-name="Trazado 170892" d="M-1324.648,7118.26c.307-.349.6-.71.924-1.045q3.69-3.842,7.39-7.676c.806-.836,1.361-.841,2.2-.029.369.356.756.7,1.1,1.075.257.282.387.257.613-.049a15.609,15.609,0,0,1,4.245-3.986,12.457,12.457,0,0,1,10.211-1.514,23.031,23.031,0,0,0,5.966.739c2.861,0,5.723.011,8.584-.006a4.379,4.379,0,0,1,3.917,1.892c.29.423.419.048.561-.092,2.111-2.075,4.2-4.167,6.321-6.236a5.182,5.182,0,0,1,7.495.272,4.1,4.1,0,0,1,.05,5.553c-1.015,1.259-2.082,2.476-3.129,3.708-2.12,2.5-4.281,4.958-6.352,7.494a8.694,8.694,0,0,1-6.593,3.2c-3.153.172-6.313.037-9.47.065-2.506.023-5.012-.069-7.517.06-1,.051-2,.173-3.036.267.067.282.286.4.441.555a1.269,1.269,0,0,1,0,2.051q-3.9,4.009-7.812,8.009a1.218,1.218,0,0,1-2,.033q-5.02-4.771-10.034-9.549c-1.129-1.074-2.256-2.152-3.391-3.22a3.5,3.5,0,0,1-.7-.863Z" transform="translate(0 -122.157)"/>
      <path id="Trazado_170893" data-name="Trazado 170893" d="M-1264.306,6964.1a5.559,5.559,0,0,1,1.821-1.649c.436-.23.251-.39.065-.654a6.9,6.9,0,0,1,4.19-10.7,6.905,6.905,0,0,1,7.157,2.943,6.778,6.778,0,0,1-.107,7.718c-.289.4-.2.523.17.764a6.007,6.007,0,0,1,2.886,5.135c.043,1.854.022,3.71.008,5.564a2.791,2.791,0,0,1-2.652,2.865c-1.2.076-2.406.039-3.609.041q-3.907.006-7.815,0a3.274,3.274,0,0,1-1.875-.418.378.378,0,0,0-.478,0,3.078,3.078,0,0,1-1.755.421h-11.012a3.147,3.147,0,0,1-1.759-.409.376.376,0,0,0-.477-.02,3.031,3.031,0,0,1-1.753.429c-3.69,0-7.381.01-11.071,0a2.89,2.89,0,0,1-3.148-3.175c0-1.618.014-3.237,0-4.854a6.159,6.159,0,0,1,3.081-5.683c.392-.24.164-.375.026-.573a6.869,6.869,0,0,1,2.874-10.32,6.844,6.844,0,0,1,8.059,2,6.826,6.826,0,0,1,.274,8.246c-.3.415-.2.539.173.753a5.831,5.831,0,0,1,1.713,1.587,5.933,5.933,0,0,1,1.93-1.723c.33-.18.166-.3.036-.483a6.86,6.86,0,0,1-1.331-4.321,6.927,6.927,0,0,1,6.371-6.612,6.917,6.917,0,0,1,7.277,5.738,6.8,6.8,0,0,1-1.244,5.2c-.183.255-.194.36.1.518A6.236,6.236,0,0,1-1264.306,6964.1Z" transform="translate(-23.941 0)"/>
      <path id="Trazado_170894" data-name="Trazado 170894" d="M-1225.654,7130.227c-3.551.078-6.395-.084-9.232.12-1.356.1-2.708.263-4.057.434a1.34,1.34,0,0,1-1.256-.394c-2.188-2.166-4.4-4.3-6.626-6.432-.284-.272-.317-.446-.073-.769a12.334,12.334,0,0,1,7.042-4.978,10.6,10.6,0,0,1,5.321.205,22.967,22.967,0,0,0,6.083.765c2.94.006,5.881.014,8.821,0a2.032,2.032,0,0,1,2.078,1.059,2.667,2.667,0,0,1-.1,2.71,1.966,1.966,0,0,1-1.82.9c-2.644,0-5.288,0-7.933,0a1.287,1.287,0,0,0-1.288.657,1.162,1.162,0,0,0,1.048,1.716c1.282.03,2.565.013,3.848.012,1.519,0,3.039.021,4.558-.016a4.374,4.374,0,0,0,4.329-4.046,1.151,1.151,0,0,1,.338-.78c2.462-2.422,4.907-4.86,7.367-7.284a2.774,2.774,0,0,1,3.846-.113,1.72,1.72,0,0,1,.318,2.562c-.395.54-.849,1.037-1.282,1.549-2.771,3.264-5.569,6.5-8.3,9.8a6.416,6.416,0,0,1-5.038,2.321C-1220.562,7130.28-1223.464,7130.227-1225.654,7130.227Z" transform="translate(-63.784 -133.256)" fill="#feccab"/>
      <path id="Trazado_170895" data-name="Trazado 170895" d="M-1301.363,7167.107c.121.11.209.187.293.268q5.754,5.582,11.515,11.157c.28.27.229.4-.008.638q-2.964,3.018-5.9,6.061c-.2.209-.321.246-.551.026q-5.819-5.558-11.657-11.095c-.246-.233-.183-.354.017-.561q3.006-3.1,6-6.217C-1301.569,7167.29-1301.468,7167.2-1301.363,7167.107Z" transform="translate(-13.823 -177.44)" fill="#fc4b52"/>
      <path id="Trazado_170896" data-name="Trazado 170896" d="M-1107.136,7034.136q-2.754,0-5.507,0c-.678,0-.792-.112-.794-.791,0-1.678-.017-3.356,0-5.033a3.882,3.882,0,0,1,2.793-3.82,1,1,0,0,1,.735.033,6.7,6.7,0,0,0,5.561.008,1,1,0,0,1,.734-.047,3.814,3.814,0,0,1,2.793,3.509c.044,1.834.01,3.671.019,5.506,0,.5-.26.642-.711.639C-1103.386,7034.13-1105.261,7034.136-1107.136,7034.136Z" transform="translate(-173.631 -60.344)" fill="#feca2e"/>
      <path id="Trazado_170897" data-name="Trazado 170897" d="M-1275.837,7034.12q-2.752,0-5.505,0c-.7,0-.785-.085-.786-.787,0-1.756-.017-3.513.009-5.269a3.823,3.823,0,0,1,2.822-3.6.933.933,0,0,1,.678.048,6.7,6.7,0,0,0,5.56.011,1.059,1.059,0,0,1,.792-.036,3.749,3.749,0,0,1,2.721,3.43c.062,1.853.022,3.709.034,5.564,0,.485-.235.651-.7.648C-1272.087,7034.113-1273.962,7034.12-1275.837,7034.12Z" transform="translate(-34.951 -60.329)" fill="#fc4b52"/>
      <path id="Trazado_170898" data-name="Trazado 170898" d="M-1191.412,7034.121q-2.752,0-5.5,0c-.731,0-.809-.079-.809-.823,0-1.775-.026-3.552.02-5.326a3.778,3.778,0,0,1,2.729-3.488,1.061,1.061,0,0,1,.792.038,6.706,6.706,0,0,0,5.56-.013.935.935,0,0,1,.678-.046,3.8,3.8,0,0,1,2.813,3.548c.033,1.814,0,3.629.019,5.444,0,.53-.256.675-.736.672C-1187.7,7034.113-1189.558,7034.121-1191.412,7034.121Z" transform="translate(-104.338 -60.33)" fill="#a7e446"/>
      <path id="Trazado_170899" data-name="Trazado 170899" d="M-1183.052,6973.351a4.5,4.5,0,0,1-4.453-4.5,4.512,4.512,0,0,1,4.53-4.489,4.529,4.529,0,0,1,4.46,4.506A4.513,4.513,0,0,1-1183.052,6973.351Z" transform="translate(-112.745 -11.025)" fill="#feccab"/>
      <path id="Trazado_170900" data-name="Trazado 170900" d="M-1262.97,6968.838a4.493,4.493,0,0,1-4.44,4.511,4.518,4.518,0,0,1-4.548-4.473,4.532,4.532,0,0,1,4.51-4.517A4.508,4.508,0,0,1-1262.97,6968.838Z" transform="translate(-43.316 -11.024)" fill="#feccab"/>
      <path id="Trazado_170901" data-name="Trazado 170901" d="M-1103.058,6968.866a4.5,4.5,0,0,1,4.5-4.508,4.529,4.529,0,0,1,4.478,4.49,4.516,4.516,0,0,1-4.519,4.5A4.483,4.483,0,0,1-1103.058,6968.866Z" transform="translate(-182.17 -11.023)" fill="#feccab"/>
      <path id="Trazado_170902" data-name="Trazado 170902" d="M-1169.669,7173.8a1.159,1.159,0,0,1-1.209,1.175,1.214,1.214,0,0,1-1.177-1.229,1.191,1.191,0,0,1,1.224-1.175A1.181,1.181,0,0,1-1169.669,7173.8Z" transform="translate(-125.447 -182.012)" fill="#010101"/>
    </g>
  </g>
</svg>
