<svg xmlns="http://www.w3.org/2000/svg" width="97" height="97" viewBox="0 0 97 97">
  <g id="Grupo_134236" data-name="Grupo 134236" transform="translate(-500 -4662)">
    <g id="Elipse_5285" data-name="Elipse 5285" transform="translate(500 4662)" fill="#dff7f9" stroke="#346d81" stroke-width="2">
      <circle cx="48.5" cy="48.5" r="48.5" stroke="none"/>
      <circle cx="48.5" cy="48.5" r="47.5" fill="none"/>
    </g>
    <g id="Grupo_134215" data-name="Grupo 134215" transform="translate(989.038 -2247.777)">
      <path id="Trazado_170929" data-name="Trazado 170929" d="M-454.685,7012.125a1.959,1.959,0,0,1-1.257-2.153c.238-5.907.438-11.815.659-17.723a8.54,8.54,0,0,1,.16-1.7,4.152,4.152,0,0,1,3.483-3.248c.682-.137,1.016-.354,1.046-1.149a7.032,7.032,0,0,1,1.145-3.115c.5-.88,1.07-1.715,1.506-2.631a2.9,2.9,0,0,0,.106-2.438,10.659,10.659,0,0,1-.778-5.264.725.725,0,0,0-.223-.613,4.214,4.214,0,0,1-.307-5.508,1.386,1.386,0,0,0,.188-.9,14.467,14.467,0,0,1,1.107-6.425,12.653,12.653,0,0,1,13.38-7.335,12.7,12.7,0,0,1,10.565,10.365,20.1,20.1,0,0,1,.155,3.475,1.412,1.412,0,0,0,.265.875,4.23,4.23,0,0,1-.32,5.412.784.784,0,0,0-.244.666,10.66,10.66,0,0,1-.752,5.146,3,3,0,0,0,.154,2.729c.458.83.945,1.644,1.418,2.464a8.008,8.008,0,0,1,1.168,3.179c.046.463.2.567.647.564,3.737-.02,7.475-.012,11.212-.012,1.678,0,2.428.751,2.428,2.436q0,8.744,0,17.487a1.249,1.249,0,0,1,0,.189c-.1.642-.095,1.075.821,1.066.808-.009,1.3.907,1.149,1.8a2.894,2.894,0,0,1-2.243,2.363Z" transform="translate(-8.717 -21.786)"/>
      <path id="Trazado_170930" data-name="Trazado 170930" d="M-450.8,7092.871a.8.8,0,0,1-.827-.9c.014-.392-.124-.517-.507-.5a.742.742,0,0,1-.872-.78.726.726,0,0,1,.878-.761c.394.033.5-.129.5-.509,0-.528.234-.9.831-.884a.746.746,0,0,1,.776.874c-.014.445.17.542.56.52a.7.7,0,0,1,.816.754.722.722,0,0,1-.8.782c-.444-.022-.583.132-.572.571A.783.783,0,0,1-450.8,7092.871Z" transform="translate(-11.13 -133.836)" fill="#a7e446"/>
      <path id="Trazado_170931" data-name="Trazado 170931" d="M-272.671,6956.806a3.151,3.151,0,0,0-2.229-2.367,3.183,3.183,0,0,0,2.223-2.387,3.126,3.126,0,0,0,2.386,2.382A3.117,3.117,0,0,0-272.671,6956.806Z" transform="translate(-157.081 -21.991)" fill="#feca2e"/>
      <path id="Trazado_170932" data-name="Trazado 170932" d="M-267.792,7078.6a2.1,2.1,0,0,0-1.466-1.455,2.047,2.047,0,0,0,1.445-1.529,2.136,2.136,0,0,0,1.467,1.527A2.028,2.028,0,0,0-267.792,7078.6Z" transform="translate(-161.705 -123.246)" fill="#fc4b52"/>
      <path id="Trazado_170933" data-name="Trazado 170933" d="M-465.742,7138.057a.807.807,0,0,1-.841-.831.824.824,0,0,1,.833-.848.825.825,0,0,1,.842.84A.809.809,0,0,1-465.742,7138.057Z" transform="translate(0 -173.043)" fill="#feca2e"/>
      <path id="Trazado_170934" data-name="Trazado 170934" d="M-290.23,6926.895a.8.8,0,0,1-.809-.857.83.83,0,0,1,.862-.82.83.83,0,0,1,.809.873A.8.8,0,0,1-290.23,6926.895Z" transform="translate(-143.855)" fill="#fc4b52"/>
      <path id="Trazado_170935" data-name="Trazado 170935" d="M-330.929,7152.632h12.223c.942,0,1.153.21,1.153,1.146q0,8.773,0,17.547c0,.9-.159,1.066-1.043,1.13-.189.014-.38.008-.57.008h-23.687c-1.316-.006-1.452-.142-1.452-1.439q0-8.584,0-17.167c0-1.013.209-1.225,1.215-1.225Z" transform="translate(-100.206 -186.363)" fill="#a7e446"/>
      <path id="Trazado_170936" data-name="Trazado 170936" d="M-429.709,7157.435c0,1.962-.01,3.925.008,5.889,0,.4-.083.573-.518.537a3.991,3.991,0,0,0-3.139,1.064,1.8,1.8,0,0,1-1.225.442c-1.076.011-2.153-.01-3.229.017-.375.009-.469-.164-.5-.478a35.806,35.806,0,0,0-1.724-6.722c-.113-.377-.329-.669-.762-.6s-.549.409-.549.8c0,1.288-.008,2.575,0,3.863,0,.348-.04.484-.453.371-1.627-.45-3.221-.989-4.8-1.584a.526.526,0,0,1-.379-.615c.131-3.248.231-6.5.376-9.741a2.793,2.793,0,0,1,2.189-2.7c2.217-.593,4.446-1.145,6.668-1.722a.445.445,0,0,1,.569.23,9.563,9.563,0,0,0,7.052,4.521c.384.053.417.218.415.529C-429.714,7153.508-429.709,7155.471-429.709,7157.435Z" transform="translate(-16.069 -181.122)" fill="#fc4b52"/>
      <path id="Trazado_170937" data-name="Trazado 170937" d="M-398.877,6958.75a11.374,11.374,0,0,1,11.168,9.638,19.389,19.389,0,0,1,.118,2.144c.011.315-.074.42-.4.289a3.4,3.4,0,0,0-1.227-.278.368.368,0,0,1-.365-.282,1.458,1.458,0,0,0-1.054-.833,6.254,6.254,0,0,1-2.413-1.335c-1.048-.9-1.492-.872-2.456.138a12.752,12.752,0,0,1-7.559,4.136,11.277,11.277,0,0,1-5.64-.741c-.2-.075-.39-.16-.589-.23-1-.351-1.006-.35-.976-1.45a11.357,11.357,0,0,1,10.007-11.1A12.428,12.428,0,0,1-398.877,6958.75Z" transform="translate(-46.143 -27.48)" fill="#5b5d60"/>
      <path id="Trazado_170938" data-name="Trazado 170938" d="M-432.91,7242.983h-9.357c-1.984,0-3.968-.012-5.952.008-.51,0-.729-.146-.7-.688.108-2.4.192-4.808.285-7.242l3.771,1.236a1.059,1.059,0,0,0,.178.065c1.218.152,2.067.553,1.788,2.073-.109.595.418.99,1.06.993,1.921.011,3.841.015,5.762-.006a2.927,2.927,0,0,0,2.016-.8,3.128,3.128,0,0,1,2.471-.718c.22.009.285.08.291.295a5.681,5.681,0,0,0,.085,1.573c.07.224-.1.217-.252.24-1.728.249-2.2,1.091-1.523,2.708C-432.968,7242.78-432.954,7242.842-432.91,7242.983Z" transform="translate(-14.47 -253.913)" fill="#f8cfb3"/>
      <path id="Trazado_170939" data-name="Trazado 170939" d="M-375.755,7057.456a8.035,8.035,0,0,1-7.611,6.864,8.1,8.1,0,0,1-8.415-6.832c1.554.983,3.273.706,4.919.52a3.025,3.025,0,0,0,2.494-3.08c.007-.408.012-.672.555-.633.433.031.658.043.678.6a3.169,3.169,0,0,0,3.393,3.221c.549,0,1.1-.017,1.646,0A3.536,3.536,0,0,0-375.755,7057.456Z" transform="translate(-61.299 -105.774)" fill="#f8cfb3"/>
      <path id="Trazado_170940" data-name="Trazado 170940" d="M-383.122,7113.213a9.773,9.773,0,0,0,7.108,0c0,.569,0,1.085,0,1.6a3.014,3.014,0,0,0,1.71,2.812c.481.259.982.481,1.468.732.151.078.429.083.36.344a.47.47,0,0,1-.517.365c-.653-.02-1.307-.006-1.961-.006-1.055,0-2.109-.008-3.164,0a2.063,2.063,0,0,0-2.182,2.182c0,.042,0,.084,0,.126-.007,1.481-.012,1.5-1.477,1.084a8.412,8.412,0,0,1-4.763-3.443c-.26-.377-.148-.5.2-.651.481-.21.943-.465,1.413-.7a3.1,3.1,0,0,0,1.8-2.893C-383.111,7114.282-383.122,7113.8-383.122,7113.213Z" transform="translate(-65.477 -154.057)" fill="#f8cfb3"/>
      <path id="Trazado_170941" data-name="Trazado 170941" d="M-411.3,7078.951c0,.253,0,.506,0,.76a2.077,2.077,0,0,1-1.176,1.927,23.9,23.9,0,0,1-6.586,2.312c-.563.132-.49-.189-.424-.521a11.65,11.65,0,0,1,1.707-3.642,14.533,14.533,0,0,0,.894-1.67,3.919,3.919,0,0,0,.067-3.242,11.122,11.122,0,0,1-.783-3.816c-.02-.387.038-.512.527-.464.96.094,1.3.527,1.522,1.467a8.667,8.667,0,0,0,3.312,4.943C-411.295,7077.732-411.3,7077.733-411.3,7078.951Z" transform="translate(-38.561 -119.127)" fill="#5b5d60"/>
      <path id="Trazado_170942" data-name="Trazado 170942" d="M-320.7,7078.91a1.943,1.943,0,0,1,.968-2.074,8.768,8.768,0,0,0,3.458-5.638c.068-.373.186-.528.55-.492a.278.278,0,0,0,.063-.008l1.149-.21a12.113,12.113,0,0,1,.017,1.322,9.038,9.038,0,0,1-.651,2.76,4.6,4.6,0,0,0,.423,4.35,23.422,23.422,0,0,1,1.854,3.382c.14.373.207.772.333,1.152.157.477-.081.513-.442.419a26.839,26.839,0,0,1-6.208-2.1,2.312,2.312,0,0,1-1.515-2.479A3.259,3.259,0,0,0-320.7,7078.91Z" transform="translate(-119.517 -119.047)" fill="#5b5d60"/>
      <path id="Trazado_170943" data-name="Trazado 170943" d="M-339.818,7271.175q-6.807,0-13.614,0a1.543,1.543,0,0,1-1.679-1.05c-.122-.429-.066-.676.481-.66,1.053.031,2.109.009,3.163.009h23.3c1.054,0,2.109.014,3.163-.006.512-.01.635.177.473.65a1.518,1.518,0,0,1-1.611,1.057Q-332.979,7271.178-339.818,7271.175Z" transform="translate(-91.306 -282.104)" fill="#a7e446"/>
      <path id="Trazado_170944" data-name="Trazado 170944" d="M-346.292,7018.833a19.356,19.356,0,0,0-5.557-.2,2,2,0,0,0-1.847,1.59c-.143.525-.456.43-.8.444s-.606.026-.694-.421a2.219,2.219,0,0,0-.832-1.2,2.362,2.362,0,0,1,.83-.394,15.019,15.019,0,0,0,5.041-3.624c.26-.284.418-.344.733-.062a7.226,7.226,0,0,0,2.778,1.574c.237.07.358.147.351.415C-346.3,7017.586-346.292,7018.216-346.292,7018.833Z" transform="translate(-90.605 -73.398)" fill="#f8cfb3"/>
      <path id="Trazado_170945" data-name="Trazado 170945" d="M-334.025,7047.439c-2.517.179-3.213-.776-3.09-3.067.066-1.218.364-1.563,1.6-1.565,1.075,0,2.15-.009,3.224,0a1.184,1.184,0,0,1,1.324,1.328c.008.4.007.8,0,1.2a1.982,1.982,0,0,1-2.037,2.1C-333.361,7047.451-333.72,7047.439-334.025,7047.439Z" transform="translate(-106.086 -96.36)" fill="#f8cfb3"/>
      <path id="Trazado_170946" data-name="Trazado 170946" d="M-388.534,7042.809c.611,0,1.222-.015,1.833,0a1.136,1.136,0,0,1,1.211,1.237c.012.506.019,1.013,0,1.518a1.912,1.912,0,0,1-1.808,1.851,24.92,24.92,0,0,1-2.527,0,1.868,1.868,0,0,1-1.758-1.754,16.122,16.122,0,0,1,0-1.77,1.066,1.066,0,0,1,1.1-1.072c.652-.027,1.306-.006,1.959-.006Z" transform="translate(-61.437 -96.36)" fill="#f8cfb3"/>
      <path id="Trazado_170947" data-name="Trazado 170947" d="M-295.146,7034.1c0-.865.018-1.73-.008-2.594-.011-.367.122-.423.442-.373a3.1,3.1,0,0,1,2.555,3.025,3.1,3.1,0,0,1-2.584,3c-.3.043-.418-.011-.412-.34C-295.134,7035.917-295.146,7035.011-295.146,7034.1Z" transform="translate(-140.483 -86.787)" fill="#f7cfb3"/>
      <path id="Trazado_170948" data-name="Trazado 170948" d="M-413.1,7038.132c0,.633-.015,1.267.006,1.9.012.358-.07.478-.462.4a3.061,3.061,0,0,1-1.818-4.927.8.8,0,0,1,1.037-.3c1.229.491,1.237.472,1.237,1.782Z" transform="translate(-41.407 -90.07)" fill="#f8cfb3"/>
      <path id="Trazado_170949" data-name="Trazado 170949" d="M-408.451,7240.35c.1.579.174,1.164.308,1.735.1.433-.089.468-.419.4a10.622,10.622,0,0,1-.059-2C-408.624,7240.387-408.55,7240.339-408.451,7240.35Z" transform="translate(-47.483 -258.245)" fill="#e3e3e3"/>
      <path id="Trazado_170950" data-name="Trazado 170950" d="M-408.861,7237.624a6.376,6.376,0,0,0-.111,2.136c-.293-.227-.111-.54-.126-.808-.032-.609-.01-1.22-.01-1.931A.769.769,0,0,1-408.861,7237.624Z" transform="translate(-47.073 -255.519)" fill="#9c9c9c"/>
      <path id="Trazado_170951" data-name="Trazado 170951" d="M-306.526,7178.828a6.583,6.583,0,0,1,6.563-6.566,6.608,6.608,0,0,1,6.581,6.564,6.613,6.613,0,0,1-6.61,6.6A6.585,6.585,0,0,1-306.526,7178.828Z" transform="translate(-131.164 -202.45)"/>
      <path id="Trazado_170952" data-name="Trazado 170952" d="M-361.807,7081.068a4.009,4.009,0,0,1-2.863-1.129c-.326-.319-.475-.68-.112-1.04.344-.339.669-.171.988.119a2.863,2.863,0,0,0,3.99-.018c.326-.294.653-.424.993-.088s.206.685-.1.991A3.974,3.974,0,0,1-361.807,7081.068Z" transform="translate(-83.251 -125.786)" fill="#010100"/>
      <path id="Trazado_170953" data-name="Trazado 170953" d="M-326.672,7049.458a1,1,0,0,1-1.007,1,1.043,1.043,0,0,1-1.007-1.023,1,1,0,0,1,1.025-.987A.973.973,0,0,1-326.672,7049.458Z" transform="translate(-113.004 -100.989)" fill="#020101"/>
      <path id="Trazado_170954" data-name="Trazado 170954" d="M-375.846,7049.436a1.012,1.012,0,0,1,1.033-.98.976.976,0,0,1,.986,1.012,1.009,1.009,0,0,1-1.017,1A1.046,1.046,0,0,1-375.846,7049.436Z" transform="translate(-74.358 -100.992)" fill="#020101"/>
      <path id="Trazado_170955" data-name="Trazado 170955" d="M-299.5,7184.6a5.309,5.309,0,0,1,5.309-5.317,5.341,5.341,0,0,1,5.3,5.342,5.343,5.343,0,0,1-5.292,5.287A5.312,5.312,0,0,1-299.5,7184.6Z" transform="translate(-136.919 -208.204)" fill="#feca2e"/>
      <path id="Trazado_170956" data-name="Trazado 170956" d="M-259.548,7200.56a.61.61,0,0,1-.559-.349.6.6,0,0,1,.1-.7c.289-.335.569-.68.885-.988.226-.22.19-.365-.01-.567-.295-.3-.568-.622-.843-.942a.6.6,0,0,1,.035-.942.6.6,0,0,1,.9.1c.5.544.985,1.1,1.469,1.654a.576.576,0,0,1,.029.807c-.506.592-1.033,1.167-1.552,1.749A.66.66,0,0,1-259.548,7200.56Z" transform="translate(-169.141 -221.826)" fill="#000101"/>
      <path id="Trazado_170957" data-name="Trazado 170957" d="M-292.823,7196.745c-.031.311-.4.537-.654.833-.61.708-.617.7-.006,1.377a7.857,7.857,0,0,1,.535.625.588.588,0,0,1-.069.852.569.569,0,0,1-.852-.024c-.536-.566-1.052-1.153-1.555-1.748a.585.585,0,0,1,.026-.81q.747-.858,1.518-1.7a.59.59,0,0,1,.752-.118C-292.9,7196.147-292.8,7196.353-292.823,7196.745Z" transform="translate(-140.139 -221.861)" fill="#000101"/>
      <path id="Trazado_170958" data-name="Trazado 170958" d="M-274.987,7196.459a3.452,3.452,0,0,1-.121.38c-.436,1-.881,2-1.315,3-.179.414-.443.716-.917.5s-.426-.606-.241-1.02c.464-1.036.915-2.077,1.373-3.116a.607.607,0,0,1,.76-.4C-275.134,7195.888-275.01,7196.114-274.987,7196.459Z" transform="translate(-154.777 -221.73)" fill="#000101"/>
    </g>
  </g>
</svg>
