<svg xmlns="http://www.w3.org/2000/svg" width="97" height="97" viewBox="0 0 97 97">
  <g id="Grupo_134238" data-name="Grupo 134238" transform="translate(-1001 -4662)">
    <g id="Elipse_5287" data-name="Elipse 5287" transform="translate(1001 4662)" fill="#dff7f9" stroke="#346d81" stroke-width="2">
      <circle cx="48.5" cy="48.5" r="48.5" stroke="none"/>
      <circle cx="48.5" cy="48.5" r="47.5" fill="none"/>
    </g>
    <g id="Grupo_134214" data-name="Grupo 134214" transform="translate(1949.331 -2271.043)">
      <path id="Trazado_170903" data-name="Trazado 170903" d="M-882.147,6997.2a7.1,7.1,0,0,1-7.541-2.206c-.239,1.426-.409,2.756-.7,4.061a1.5,1.5,0,0,0,.575,1.644,21.607,21.607,0,0,1,6.321,10.343H-915.15a23.644,23.644,0,0,1,1.983-4.868,21.845,21.845,0,0,1,4.672-5.812c.174-.155.4-.261.347-.576-.27-1.559-.525-3.119-.809-4.816a7.479,7.479,0,0,1-3.459,2.276,6.852,6.852,0,0,1-4.111-.077c.155,1.249.306,2.444.451,3.639a15.872,15.872,0,0,1,.173,1.681,2.72,2.72,0,0,1-2.635,2.766q-4.052.053-8.1,0a2.759,2.759,0,0,1-2.661-3.155c.184-1.662.408-3.318.617-4.976.39-3.1.786-6.195,1.171-9.292a1.927,1.927,0,0,1,1.768-1.9c.551-.091.217-.458.285-.69.086-.295-.13-.306-.353-.305a4.867,4.867,0,0,1-1.38-.1,2.929,2.929,0,0,1-2.115-3.128,2.937,2.937,0,0,1,2.71-2.565.416.416,0,0,1,.06,0c.653.086,1.1.018,1.307-.8a1.637,1.637,0,0,1,1.691-1.13c.6-.019,1.21-.008,1.815,0a1.917,1.917,0,0,1,2.043,1.6c.062.283.146.332.411.352a4.763,4.763,0,0,1,4.385,3.238c.247.634.474,1.275.759,2.044,1.112-2.784,2.65-5.029,5.646-5.907-.342-.427-.664-.8-.956-1.2a12.211,12.211,0,0,1-2.458-7.311q-.029-4.2,0-8.407a10.626,10.626,0,0,1,10.512-10.528,43.625,43.625,0,0,1,5.558.106,10.7,10.7,0,0,1,8.978,9.02,47.646,47.646,0,0,1,.1,5.558,51.58,51.58,0,0,1-.082,5.559,12.16,12.16,0,0,1-3,6.794c-.1.118-.2.242-.336.407,2.986.871,4.529,3.112,5.649,5.907.293-.785.524-1.437.779-2.081a4.737,4.737,0,0,1,4.35-3.195c.306-.023.371-.117.435-.4a1.905,1.905,0,0,1,1.957-1.55c.645-.009,1.291-.017,1.935,0a1.774,1.774,0,0,1,1.741,1.333c.123.593.423.611.9.605a2.885,2.885,0,0,1,2.993,2.134,2.9,2.9,0,0,1-2.658,3.66,3.854,3.854,0,0,0-.543.011c-.2.044-.58-.209-.559.283.014.324-.148.67.457.733a1.844,1.844,0,0,1,1.59,1.733c.6,4.795,1.214,9.591,1.8,14.389a2.776,2.776,0,0,1-2.825,3.179q-3.84.02-7.681,0a2.8,2.8,0,0,1-2.872-3.305c.179-1.418.368-2.836.548-4.254C-882.151,6997.551-882.155,6997.392-882.147,6997.2Z" transform="translate(0)"/>
      <path id="Trazado_170904" data-name="Trazado 170904" d="M-833.036,7110.737a6.111,6.111,0,0,0,2.5,4.87c.346.255.134.472.023.7a4.124,4.124,0,0,0-.092,3.653,3.948,3.948,0,0,0,1.828,1.935c.3.152.376.262.232.612a4.15,4.15,0,0,0,2.726,5.854c1.409.472,1.4.469,2.071-.846a6.069,6.069,0,0,0,.829-2.3,3.988,3.988,0,0,0-1.952-3.9c-.478-.3-.609-.465-.365-1.031a4.077,4.077,0,0,0-1.058-4.614c-.164-.151-.6-.281-.43-.493.232-.3.42-.739.948-.73,1.178.022,2.357.009,3.536.007a3.071,3.071,0,0,0,3.384-3.411,6.113,6.113,0,0,0-.005-.758c-.059-.474.064-.624.567-.479,1.09.313,2.2.552,3.292.857a5.777,5.777,0,0,1,3.648,2.9c.57,1.053,1.084,2.136,1.621,3.205.091.182.254.362-.073.5-.982.412-1.96.837-2.988,1.278,0-.622-.01-1.164,0-1.7.007-.254-.043-.414-.339-.371a.454.454,0,0,1-.063,0c-.5,0-1.132-.173-1.482.062-.387.261-.129.935-.153,1.424a79.546,79.546,0,0,1-1.175,8.62c-.19,1.184-.406,2.362-.581,3.547-.057.386-.2.511-.6.509q-6.725-.022-13.451,0c-.4,0-.545-.114-.6-.506-.5-3.368-1.206-6.7-1.578-10.091-.113-1.022-.152-2.056-.176-3.086-.009-.389-.11-.487-.5-.489-1.565-.006-1.564-.021-1.515,1.514.005.163,0,.326,0,.579-1.049-.448-2.025-.873-3.009-1.282-.267-.111-.206-.26-.111-.444.614-1.2,1.173-2.424,1.85-3.583A5.652,5.652,0,0,1-833.036,7110.737Z" transform="translate(-75.41 -130.912)" fill="#a7e446"/>
      <path id="Trazado_170905" data-name="Trazado 170905" d="M-821.326,6974.84c.076-1.547-.147-3.447.109-5.334a9.012,9.012,0,0,1,8.322-7.745,32.926,32.926,0,0,1,6.055.078,9.029,9.029,0,0,1,7.735,8.6c.058,3.137.076,6.277-.009,9.412a10.565,10.565,0,0,1-3.544,7.631c-.223.21-.426.324-.722.173a1.163,1.163,0,0,0-.247-.05c-1.885-.468-1.882-.479-2.21-2.429-.05-.3.086-.358.266-.473a8.714,8.714,0,0,0,4.372-6.8,39.842,39.842,0,0,0-.013-7,4.428,4.428,0,0,0-.781-2.109c-.236-.349-.243-.58.1-.818.436-.3.511-.593.029-.952-.35-.262-.626-.809-.971-.841-.368-.034-.64.538-.963.836a2.467,2.467,0,0,1-2.792.566,2.478,2.478,0,0,1-1.6-2.422c-.026-1.425-.025-1.4-1.433-1.434-.528-.015-.6.171-.6.634a5.62,5.62,0,0,0,.518,2.882c.17.295-.008.343-.225.42a2.564,2.564,0,0,1-3.3-2.2c-.012-.125,0-.253-.011-.378-.037-.434.19-1.131-.089-1.248a4.772,4.772,0,0,0-1.733-.09c-.275,0-.194.225-.195.373a11.185,11.185,0,0,0,.032,1.576c.051.366-.076.459-.38.552a4.915,4.915,0,0,0-3.641,4.164,9.467,9.467,0,0,0-.054,1.764,53.544,53.544,0,0,0,.1,5.932,8.749,8.749,0,0,0,4.218,6.491c.363.23.522.438.337.84-.017.037-.019.082-.035.121a2.52,2.52,0,0,0,.646,3.189c1.5,1.427.845,4.021-1.01,4.978-.259.134-.387.024-.553-.1a3.949,3.949,0,0,1-1.676-3.109c-.034-.714-.03-1.433-.005-2.147a.887.887,0,0,0-.338-.756,10.958,10.958,0,0,1-3.714-8.578C-821.316,6977.755-821.326,6976.47-821.326,6974.84Z" transform="translate(-89.116 -8.631)" fill="#12263f"/>
      <path id="Trazado_170906" data-name="Trazado 170906" d="M-807.325,7240.185h-27.3c-.084-.218.061-.375.133-.537a20.728,20.728,0,0,1,5.434-7.27,1.037,1.037,0,0,1,.737-.269q7.295.012,14.59.006a.811.811,0,0,1,.6.132A20.716,20.716,0,0,1-807.325,7240.185Z" transform="translate(-78.301 -231.145)" fill="#fc4b52"/>
      <path id="Trazado_170907" data-name="Trazado 170907" d="M-799.652,7002.188c0-1.274-.014-2.306,0-3.336a3.089,3.089,0,0,1,2.7-3.014.529.529,0,0,1,.491.184,4.463,4.463,0,0,0,5.67.954.532.532,0,0,1,.568.017,4.314,4.314,0,0,0,3.527.386.442.442,0,0,1,.611.238,3.328,3.328,0,0,1,.545,1.6,45.221,45.221,0,0,1-.091,6.615,7.015,7.015,0,0,1-6.972,5.909,7.1,7.1,0,0,1-6.944-5.888A32.823,32.823,0,0,1-799.652,7002.188Z" transform="translate(-106.746 -36.41)" fill="#efcfb3"/>
      <path id="Trazado_170908" data-name="Trazado 170908" d="M-867.866,7126.857c.954.409,1.8.777,2.645,1.129a.413.413,0,0,1,.283.368c.1.706.212,1.414.332,2.117a.515.515,0,0,1-.2.491c-.528.513-1.017,1.071-1.578,1.544a5.093,5.093,0,0,1-5.593.841.679.679,0,0,1-.454-.658q-.423-3.568-.887-7.134a1.941,1.941,0,0,0-1.615-1.787c-.36-.075-.407-.217-.4-.531.016-1.368.03-2.736-.006-4.1-.012-.469.177-.521.547-.461a3.052,3.052,0,0,1,2.547,2.077q1.308,3.577,2.606,7.157c.433,1.191.418,1.151,1.624.785.621-.188.778-.431.457-1A5.732,5.732,0,0,1-867.866,7126.857Z" transform="translate(-44.402 -138.01)" fill="#efcfb3"/>
      <path id="Trazado_170909" data-name="Trazado 170909" d="M-702.206,7126.857c-.174.486-.3.861-.443,1.226-.1.252-.04.348.219.461,1.53.663,1.528.674,2.081-.847q1.236-3.4,2.465-6.807a3.13,3.13,0,0,1,2.644-2.221c.354-.053.522,0,.512.435-.031,1.389-.017,2.777-.008,4.167,0,.28-.03.415-.373.49a1.987,1.987,0,0,0-1.656,1.89c-.295,2.378-.6,4.755-.882,7.136a.6.6,0,0,1-.421.545,5.127,5.127,0,0,1-5.6-.8c-.114-.093-.218-.2-.323-.3-1.621-1.574-1.615-1.574-1.162-3.788a.58.58,0,0,1,.392-.5C-703.947,7127.618-703.142,7127.259-702.206,7126.857Z" transform="translate(-184.169 -138.01)" fill="#efcfb3"/>
      <path id="Trazado_170910" data-name="Trazado 170910" d="M-918.079,7170.875q.674-5.446,1.349-10.891c.135-1.085.29-2.168.408-3.255.032-.3.133-.367.424-.379,1.761-.072,1.761-.081,1.761,1.669,0,3.136-.006,6.271.008,9.406a1.072,1.072,0,0,1-.433.959c-1.135.9-2.239,1.847-3.354,2.776C-918.148,7171.167-918.12,7171.026-918.079,7170.875Z" transform="translate(-9.124 -169.017)" fill="#feca2e"/>
      <path id="Trazado_170911" data-name="Trazado 170911" d="M-622.859,7171.215c-1.275-1.064-2.526-2.111-3.784-3.15-.184-.151-.139-.338-.139-.518,0-3.6.005-7.192-.012-10.788,0-.407.126-.5.5-.477.522.036,1.169-.159,1.538.084.387.256.233.963.3,1.474q.837,6.6,1.652,13.2A.729.729,0,0,1-622.859,7171.215Z" transform="translate(-248.597 -169.472)" fill="#feca2e"/>
      <path id="Trazado_170912" data-name="Trazado 170912" d="M-882.263,7171.408c-1.1-.936-2.1-1.839-3.163-2.653a1.8,1.8,0,0,1-.75-1.645c.039-3.366.029-6.734,0-10.1,0-.488.138-.586.6-.578,1.4.024,1.421,0,1.6,1.4C-883.4,7162.313-882.843,7166.8-882.263,7171.408Z" transform="translate(-35.08 -169.624)" fill="#feca2e"/>
      <path id="Trazado_170913" data-name="Trazado 170913" d="M-658.13,7170.832q.607-4.91,1.214-9.82c.168-1.354.348-2.709.5-4.064.042-.366.142-.524.563-.521,1.528.011,1.528-.01,1.528,1.525,0,3.2-.008,6.393.01,9.589a1.091,1.091,0,0,1-.452.951c-1.09.891-2.152,1.816-3.225,2.729C-658.308,7171.189-658.137,7170.98-658.13,7170.832Z" transform="translate(-223.083 -169.096)" fill="#feca2e"/>
      <path id="Trazado_170914" data-name="Trazado 170914" d="M-770.111,7094.013c0,.441.01.884,0,1.325a1.014,1.014,0,0,1-1.092,1.108c-.9.016-1.809-.01-2.713.011-.32.007-.391-.084-.334-.394a5.129,5.129,0,0,0-1.285-4.435,1.438,1.438,0,0,1-.039-1.44c.132-.167.276-.074.4-.045a8.49,8.49,0,0,0,4.059-.008c.273-.066.425-.021.492.284A9.778,9.778,0,0,1-770.111,7094.013Z" transform="translate(-126.19 -114.264)" fill="#efcfb3"/>
      <path id="Trazado_170915" data-name="Trazado 170915" d="M-894.91,7111.425c0,1.01-.015,2.02.008,3.028.008.356-.1.449-.453.454-1.577.022-1.577.035-1.577-1.53,0-1.682.014-3.364-.01-5.046-.006-.413.106-.522.518-.52,1.514.007,1.514-.01,1.514,1.532Z" transform="translate(-26.329 -128.845)" fill="#dff7f9"/>
      <path id="Trazado_170916" data-name="Trazado 170916" d="M-635.569,7111.427c0,1.009-.015,2.019.008,3.027.008.357-.1.45-.453.455-1.577.021-1.577.033-1.577-1.53,0-1.684.014-3.366-.01-5.047-.006-.413.107-.521.518-.52,1.513.007,1.513-.01,1.513,1.47Z" transform="translate(-239.813 -128.845)" fill="#dff7f9"/>
      <path id="Trazado_170917" data-name="Trazado 170917" d="M-902.38,7231.4h-6.393c1.085-.9,2.077-1.725,3.065-2.55.154-.128.262-.055.383.047C-904.372,7229.711-903.418,7230.52-902.38,7231.4Z" transform="translate(-16.712 -228.441)" fill="#feca2e"/>
      <path id="Trazado_170918" data-name="Trazado 170918" d="M-642.687,7231.446h-6.422c1.058-.9,2.025-1.712,2.985-2.538.172-.147.292-.093.435.026C-644.729,7229.74-643.767,7230.544-642.687,7231.446Z" transform="translate(-230.458 -228.47)" fill="#feca2e"/>
      <path id="Trazado_170919" data-name="Trazado 170919" d="M-786.8,7149.359c-.029.431-.137,1.194-.582,1.292-.5.11-.954-.5-1.217-1.026a2.293,2.293,0,0,1,.163-2.22c.128-.239.253-.2.45-.107A2.25,2.25,0,0,1-786.8,7149.359Z" transform="translate(-115.377 -161.129)" fill="#12263f"/>
      <path id="Trazado_170920" data-name="Trazado 170920" d="M-775.995,7181.644c-.05.511-.144,1.254-.564,1.354-.533.128-.958-.471-1.228-.987a2.293,2.293,0,0,1,.162-2.276c.143-.266.3-.15.462-.061A2.182,2.182,0,0,1-775.995,7181.644Z" transform="translate(-124.243 -187.694)" fill="#12263f"/>
      <path id="Trazado_170921" data-name="Trazado 170921" d="M-916.44,7119.627c-.136.4.322,1.079-.634,1.006-.923-.071-1.389-.339-1.407-1-.018-.68.475-.987,1.417-1.051C-916.021,7118.51-916.64,7119.28-916.44,7119.627Z" transform="translate(-8.82 -137.567)" fill="#eeceb3"/>
      <path id="Trazado_170922" data-name="Trazado 170922" d="M-615.99,7119.476c.077-.366-.3-1.012.636-.928.9.081,1.38.362,1.382,1.026s-.473,1.013-1.379,1.014C-615.99,7120.589-615.99,7120.589-615.99,7119.476Z" transform="translate(-257.37 -137.537)" fill="#eeceb3"/>
      <path id="Trazado_170923" data-name="Trazado 170923" d="M-658.406,7233.422c.065.123-.037.306.141.388-.045.068-.132.155-.184.094C-658.583,7233.745-658.51,7233.575-658.406,7233.422Z" transform="translate(-222.807 -232.211)" fill="#775f4a"/>
      <path id="Trazado_170924" data-name="Trazado 170924" d="M-918.452,7234.08c.048.1.019.243.164.286-.043.109-.148.2-.224.109C-918.613,7234.358-918.557,7234.2-918.452,7234.08Z" transform="translate(-8.752 -232.746)" fill="#745d48"/>
      <path id="Trazado_170925" data-name="Trazado 170925" d="M-783.841,7037.587c1.514,0,3.028,0,4.542,0,.209,0,.431-.09.471.3a5.143,5.143,0,0,1-5.308,5.751,5.117,5.117,0,0,1-4.818-5.793c.029-.361.264-.256.445-.257C-786.953,7037.585-785.4,7037.587-783.841,7037.587Z" transform="translate(-115.428 -71.107)"/>
      <path id="Trazado_170926" data-name="Trazado 170926" d="M-787.822,7018.045a1.015,1.015,0,0,1-.989-1.011,1.013,1.013,0,0,1,1.056-1,1.018,1.018,0,0,1,.958,1.041A1.019,1.019,0,0,1-787.822,7018.045Z" transform="translate(-115.384 -53.361)" fill="#020202"/>
      <path id="Trazado_170927" data-name="Trazado 170927" d="M-744.574,7018.05a1.016,1.016,0,0,1-1.015-.984,1.011,1.011,0,0,1,1.03-1.031,1.016,1.016,0,0,1,.985,1.015A1.018,1.018,0,0,1-744.574,7018.05Z" transform="translate(-150.874 -53.366)" fill="#020202"/>
      <path id="Trazado_170928" data-name="Trazado 170928" d="M-773.792,7048.414c.778,0,1.557.011,2.335,0,.345-.007.481.057.274.412a2.956,2.956,0,0,1-2.673,1.605,2.962,2.962,0,0,1-2.673-1.605c-.209-.356-.066-.418.276-.412C-775.434,7048.424-774.613,7048.414-773.792,7048.414Z" transform="translate(-125.466 -79.95)" fill="#fe816d"/>
    </g>
  </g>
</svg>
